<?xml version="1.0" encoding="UTF-8" standalone="no"?>
<!DOCTYPE svg PUBLIC "-//W3C//DTD SVG 1.1//EN"
 "http://www.w3.org/Graphics/SVG/1.1/DTD/svg11.dtd">
<!-- Generated by graphviz version 2.47.0 (20210316.0004)
 -->
<!-- Title: dependencies Pages: 1 -->
<svg width="2834pt" height="284pt"
 viewBox="0.00 0.00 2834.00 284.00" xmlns="http://www.w3.org/2000/svg" xmlns:xlink="http://www.w3.org/1999/xlink">
<g id="graph0" class="graph" transform="scale(1 1) rotate(0) translate(4 280)">
<title>dependencies</title>
<polygon fill="white" stroke="transparent" points="-4,4 -4,-280 2830,-280 2830,4 -4,4"/>
<text text-anchor="start" x="1392.01" y="-42.4" font-family="Times-12" font-weight="bold" font-size="14.00">Legend</text>
<polygon fill="#ffffb3" stroke="transparent" points="1179,-10 1179,-30 1199,-30 1199,-10 1179,-10"/>
<text text-anchor="start" x="1202.63" y="-15.4" font-family="Times-12" font-size="14.00"> &#160;Declarations</text>
<polygon fill="#8dd3c7" stroke="transparent" points="1292,-10 1292,-30 1312,-30 1312,-10 1292,-10"/>
<text text-anchor="start" x="1315.73" y="-15.4" font-family="Times-12" font-size="14.00"> &#160;Module</text>
<polygon fill="#80b1d3" stroke="transparent" points="1378,-10 1378,-30 1398,-30 1398,-10 1378,-10"/>
<text text-anchor="start" x="1401.78" y="-15.4" font-family="Times-12" font-size="14.00"> &#160;Bootstrap</text>
<polygon fill="#fdb462" stroke="transparent" points="1475,-10 1475,-30 1495,-30 1495,-10 1475,-10"/>
<text text-anchor="start" x="1498.67" y="-15.4" font-family="Times-12" font-size="14.00"> &#160;Providers</text>
<polygon fill="#fb8072" stroke="transparent" points="1571,-10 1571,-30 1591,-30 1591,-10 1571,-10"/>
<text text-anchor="start" x="1594.73" y="-15.4" font-family="Times-12" font-size="14.00"> &#160;Exports</text>
<g id="clust1" class="cluster">
<title>cluster_CoreModule</title>
<polygon fill="none" stroke="black" stroke-dasharray="1,5" points="8,-70 8,-268 2818,-268 2818,-70 8,-70"/>
</g>
<g id="clust6" class="cluster">
<title>cluster_CoreModule_providers</title>
<polygon fill="none" stroke="black" points="158,-78 158,-130 2810,-130 2810,-78 158,-78"/>
</g>
<g id="clust3" class="cluster">
<title>cluster_CoreModule_imports</title>
<polygon fill="none" stroke="black" points="16,-78 16,-130 150,-130 150,-78 16,-78"/>
</g>
<g id="clust4" class="cluster">
<title>cluster_CoreModule_exports</title>
<polygon fill="none" stroke="black" points="1345,-208 1345,-260 1483,-260 1483,-208 1345,-208"/>
</g>
<!-- HttpClientModule -->
<g id="node1" class="node">
<title>HttpClientModule</title>
<polygon fill="#8dd3c7" stroke="black" points="142.16,-122 139.16,-126 118.16,-126 115.16,-122 23.84,-122 23.84,-86 142.16,-86 142.16,-122"/>
<text text-anchor="middle" x="83" y="-99.8" font-family="Times,serif" font-size="14.00">HttpClientModule</text>
</g>
<!-- CoreModule -->
<g id="node2" class="node">
<title>CoreModule</title>
<polygon fill="#8dd3c7" stroke="black" points="1457.26,-187 1454.26,-191 1433.26,-191 1430.26,-187 1370.74,-187 1370.74,-151 1457.26,-151 1457.26,-187"/>
<text text-anchor="middle" x="1414" y="-164.8" font-family="Times,serif" font-size="14.00">CoreModule</text>
</g>
<!-- HttpClientModule&#45;&gt;CoreModule -->
<g id="edge1" class="edge">
<title>HttpClientModule&#45;&gt;CoreModule</title>
<path fill="none" stroke="black" d="M83,-122.28C83,-143.32 83,-175 83,-175 83,-175 1360.47,-175 1360.47,-175"/>
<polygon fill="black" stroke="black" points="1360.47,-178.5 1370.47,-175 1360.47,-171.5 1360.47,-178.5"/>
</g>
<!-- HttpClientModule  -->
<g id="node3" class="node">
<title>HttpClientModule </title>
<polygon fill="#fb8072" stroke="black" points="1475.16,-252 1352.84,-252 1352.84,-216 1475.16,-216 1475.16,-252"/>
<text text-anchor="middle" x="1414" y="-229.8" font-family="Times,serif" font-size="14.00">HttpClientModule </text>
</g>
<!-- CoreModule&#45;&gt;HttpClientModule  -->
<g id="edge2" class="edge">
<title>CoreModule&#45;&gt;HttpClientModule </title>
<path fill="none" stroke="black" stroke-dasharray="5,2" d="M1414,-187.11C1414,-187.11 1414,-205.99 1414,-205.99"/>
<polygon fill="black" stroke="black" points="1410.5,-205.99 1414,-215.99 1417.5,-205.99 1410.5,-205.99"/>
</g>
<!-- { provide: LOCALE_ID, useValue: &#39;pt&#39; } -->
<g id="node4" class="node">
<title>{ provide: LOCALE_ID, useValue: &#39;pt&#39; }</title>
<ellipse fill="#fdb462" stroke="black" cx="2629" cy="-104" rx="172.74" ry="18"/>
<text text-anchor="middle" x="2629" y="-99.8" font-family="Times,serif" font-size="14.00">{ provide: LOCALE_ID, useValue: &#39;pt&#39; }</text>
</g>
<!-- { provide: LOCALE_ID, useValue: &#39;pt&#39; }&#45;&gt;CoreModule -->
<g id="edge3" class="edge">
<title>{ provide: LOCALE_ID, useValue: &#39;pt&#39; }&#45;&gt;CoreModule</title>
<path fill="none" stroke="black" d="M2629,-122.29C2629,-144.21 2629,-178 2629,-178 2629,-178 1467.6,-178 1467.6,-178"/>
<polygon fill="black" stroke="black" points="1467.6,-174.5 1457.6,-178 1467.6,-181.5 1467.6,-174.5"/>
</g>
<!-- { provide: TOKEN_APP_CONFIG, useValue: environment } -->
<g id="node5" class="node">
<title>{ provide: TOKEN_APP_CONFIG, useValue: environment }</title>
<ellipse fill="#fdb462" stroke="black" cx="2188" cy="-104" rx="250.32" ry="18"/>
<text text-anchor="middle" x="2188" y="-99.8" font-family="Times,serif" font-size="14.00">{ provide: TOKEN_APP_CONFIG, useValue: environment }</text>
</g>
<!-- { provide: TOKEN_APP_CONFIG, useValue: environment }&#45;&gt;CoreModule -->
<g id="edge4" class="edge">
<title>{ provide: TOKEN_APP_CONFIG, useValue: environment }&#45;&gt;CoreModule</title>
<path fill="none" stroke="black" d="M2188,-122.11C2188,-141.34 2188,-169 2188,-169 2188,-169 1467.27,-169 1467.27,-169"/>
<polygon fill="black" stroke="black" points="1467.27,-165.5 1457.27,-169 1467.27,-172.5 1467.27,-165.5"/>
</g>
<!-- { provide: DEFAULT_TIMEOUT, useValue: 30000 } -->
<g id="node6" class="node">
<title>{ provide: DEFAULT_TIMEOUT, useValue: 30000 }</title>
<ellipse fill="#fdb462" stroke="black" cx="1698" cy="-104" rx="221.95" ry="18"/>
<text text-anchor="middle" x="1698" y="-99.8" font-family="Times,serif" font-size="14.00">{ provide: DEFAULT_TIMEOUT, useValue: 30000 }</text>
</g>
<!-- { provide: DEFAULT_TIMEOUT, useValue: 30000 }&#45;&gt;CoreModule -->
<g id="edge5" class="edge">
<title>{ provide: DEFAULT_TIMEOUT, useValue: 30000 }&#45;&gt;CoreModule</title>
<path fill="none" stroke="black" d="M1698,-122.03C1698,-138.4 1698,-160 1698,-160 1698,-160 1467.44,-160 1467.44,-160"/>
<polygon fill="black" stroke="black" points="1467.44,-156.5 1457.44,-160 1467.44,-163.5 1467.44,-156.5"/>
</g>
<!-- { provide: HTTP_INTERCEPTORS, useClass: HttpsRequestInterceptor, multi: &#160;} -->
<g id="node7" class="node">
<title>{ provide: HTTP_INTERCEPTORS, useClass: HttpsRequestInterceptor, multi: &#160;}</title>
<ellipse fill="#fdb462" stroke="black" cx="1130" cy="-104" rx="327.87" ry="18"/>
<text text-anchor="middle" x="1130" y="-99.8" font-family="Times,serif" font-size="14.00">{ provide: HTTP_INTERCEPTORS, useClass: HttpsRequestInterceptor, multi: &#160;}</text>
</g>
<!-- { provide: HTTP_INTERCEPTORS, useClass: HttpsRequestInterceptor, multi: &#160;}&#45;&gt;CoreModule -->
<g id="edge6" class="edge">
<title>{ provide: HTTP_INTERCEPTORS, useClass: HttpsRequestInterceptor, multi: &#160;}&#45;&gt;CoreModule</title>
<path fill="none" stroke="black" d="M1414,-113.04C1414,-113.04 1414,-140.96 1414,-140.96"/>
<polygon fill="black" stroke="black" points="1410.5,-140.96 1414,-150.96 1417.5,-140.96 1410.5,-140.96"/>
</g>
<!-- { provide: HTTP_INTERCEPTORS, useClass: TimeoutInterceptor, multi: &#160;} -->
<g id="node8" class="node">
<title>{ provide: HTTP_INTERCEPTORS, useClass: TimeoutInterceptor, multi: &#160;}</title>
<ellipse fill="#fdb462" stroke="black" cx="475" cy="-104" rx="308.75" ry="18"/>
<text text-anchor="middle" x="475" y="-99.8" font-family="Times,serif" font-size="14.00">{ provide: HTTP_INTERCEPTORS, useClass: TimeoutInterceptor, multi: &#160;}</text>
</g>
<!-- { provide: HTTP_INTERCEPTORS, useClass: TimeoutInterceptor, multi: &#160;}&#45;&gt;CoreModule -->
<g id="edge7" class="edge">
<title>{ provide: HTTP_INTERCEPTORS, useClass: TimeoutInterceptor, multi: &#160;}&#45;&gt;CoreModule</title>
<path fill="none" stroke="black" d="M475,-122.02C475,-139.37 475,-163 475,-163 475,-163 1360.59,-163 1360.59,-163"/>
<polygon fill="black" stroke="black" points="1360.59,-166.5 1370.59,-163 1360.59,-159.5 1360.59,-166.5"/>
</g>
</g>
</svg>
