<?xml version="1.0" encoding="UTF-8" standalone="no"?>
<!DOCTYPE svg PUBLIC "-//W3C//DTD SVG 1.1//EN"
 "http://www.w3.org/Graphics/SVG/1.1/DTD/svg11.dtd">
<!-- Generated by graphviz version 2.47.0 (20210316.0004)
 -->
<!-- Title: dependencies Pages: 1 -->
<svg width="1657pt" height="284pt"
 viewBox="0.00 0.00 1657.00 284.00" xmlns="http://www.w3.org/2000/svg" xmlns:xlink="http://www.w3.org/1999/xlink">
<g id="graph0" class="graph" transform="scale(1 1) rotate(0) translate(4 280)">
<title>dependencies</title>
<polygon fill="white" stroke="transparent" points="-4,4 -4,-280 1653,-280 1653,4 -4,4"/>
<text text-anchor="start" x="803.51" y="-42.4" font-family="Times-12" font-weight="bold" font-size="14.00">Legend</text>
<polygon fill="#ffffb3" stroke="transparent" points="590.5,-10 590.5,-30 610.5,-30 610.5,-10 590.5,-10"/>
<text text-anchor="start" x="614.13" y="-15.4" font-family="Times-12" font-size="14.00"> &#160;Declarations</text>
<polygon fill="#8dd3c7" stroke="transparent" points="703.5,-10 703.5,-30 723.5,-30 723.5,-10 703.5,-10"/>
<text text-anchor="start" x="727.23" y="-15.4" font-family="Times-12" font-size="14.00"> &#160;Module</text>
<polygon fill="#80b1d3" stroke="transparent" points="789.5,-10 789.5,-30 809.5,-30 809.5,-10 789.5,-10"/>
<text text-anchor="start" x="813.28" y="-15.4" font-family="Times-12" font-size="14.00"> &#160;Bootstrap</text>
<polygon fill="#fdb462" stroke="transparent" points="886.5,-10 886.5,-30 906.5,-30 906.5,-10 886.5,-10"/>
<text text-anchor="start" x="910.17" y="-15.4" font-family="Times-12" font-size="14.00"> &#160;Providers</text>
<polygon fill="#fb8072" stroke="transparent" points="982.5,-10 982.5,-30 1002.5,-30 1002.5,-10 982.5,-10"/>
<text text-anchor="start" x="1006.23" y="-15.4" font-family="Times-12" font-size="14.00"> &#160;Exports</text>
<g id="clust1" class="cluster">
<title>cluster_ComedoresModule</title>
<polygon fill="none" stroke="black" stroke-dasharray="1,5" points="8,-70 8,-268 1641,-268 1641,-70 8,-70"/>
</g>
<g id="clust2" class="cluster">
<title>cluster_ComedoresModule_declarations</title>
<polygon fill="none" stroke="black" points="1278,-78 1278,-130 1633,-130 1633,-78 1278,-78"/>
</g>
<g id="clust6" class="cluster">
<title>cluster_ComedoresModule_exports</title>
<polygon fill="none" stroke="black" points="428,-208 428,-260 592,-260 592,-208 428,-208"/>
</g>
<g id="clust8" class="cluster">
<title>cluster_ComedoresModule_providers</title>
<polygon fill="none" stroke="black" points="610,-78 610,-130 1270,-130 1270,-78 610,-78"/>
</g>
<g id="clust5" class="cluster">
<title>cluster_ComedoresModule_imports</title>
<polygon fill="none" stroke="black" points="16,-78 16,-130 602,-130 602,-78 16,-78"/>
</g>
<!-- ComedoresComponent -->
<g id="node1" class="node">
<title>ComedoresComponent</title>
<polygon fill="#ffffb3" stroke="black" points="1624.59,-122 1479.41,-122 1479.41,-86 1624.59,-86 1624.59,-122"/>
<text text-anchor="middle" x="1552" y="-99.8" font-family="Times,serif" font-size="14.00">ComedoresComponent</text>
</g>
<!-- ComedoresModule -->
<g id="node3" class="node">
<title>ComedoresModule</title>
<polygon fill="#8dd3c7" stroke="black" points="571.81,-187 568.81,-191 547.81,-191 544.81,-187 448.19,-187 448.19,-151 571.81,-151 571.81,-187"/>
<text text-anchor="middle" x="510" y="-164.8" font-family="Times,serif" font-size="14.00">ComedoresModule</text>
</g>
<!-- ComedoresComponent&#45;&gt;ComedoresModule -->
<g id="edge1" class="edge">
<title>ComedoresComponent&#45;&gt;ComedoresModule</title>
<path fill="none" stroke="black" d="M1552,-122.29C1552,-144.21 1552,-178 1552,-178 1552,-178 581.68,-178 581.68,-178"/>
<polygon fill="black" stroke="black" points="581.68,-174.5 571.68,-178 581.68,-181.5 581.68,-174.5"/>
</g>
<!-- ComedoresFormComponent -->
<g id="node2" class="node">
<title>ComedoresFormComponent</title>
<polygon fill="#ffffb3" stroke="black" points="1461.93,-122 1286.07,-122 1286.07,-86 1461.93,-86 1461.93,-122"/>
<text text-anchor="middle" x="1374" y="-99.8" font-family="Times,serif" font-size="14.00">ComedoresFormComponent</text>
</g>
<!-- ComedoresFormComponent&#45;&gt;ComedoresModule -->
<g id="edge2" class="edge">
<title>ComedoresFormComponent&#45;&gt;ComedoresModule</title>
<path fill="none" stroke="black" d="M1374,-122.11C1374,-141.34 1374,-169 1374,-169 1374,-169 581.79,-169 581.79,-169"/>
<polygon fill="black" stroke="black" points="581.79,-165.5 571.79,-169 581.79,-172.5 581.79,-165.5"/>
</g>
<!-- ComedoresComponent  -->
<g id="node8" class="node">
<title>ComedoresComponent </title>
<polygon fill="#fb8072" stroke="black" points="584.09,-252 435.91,-252 435.91,-216 584.09,-216 584.09,-252"/>
<text text-anchor="middle" x="510" y="-229.8" font-family="Times,serif" font-size="14.00">ComedoresComponent </text>
</g>
<!-- ComedoresModule&#45;&gt;ComedoresComponent  -->
<g id="edge7" class="edge">
<title>ComedoresModule&#45;&gt;ComedoresComponent </title>
<path fill="none" stroke="black" stroke-dasharray="5,2" d="M510,-187.11C510,-187.11 510,-205.99 510,-205.99"/>
<polygon fill="black" stroke="black" points="506.5,-205.99 510,-215.99 513.5,-205.99 506.5,-205.99"/>
</g>
<!-- ComedoresRoutingModule -->
<g id="node4" class="node">
<title>ComedoresRoutingModule</title>
<polygon fill="#8dd3c7" stroke="black" points="594.43,-122 591.43,-126 570.43,-126 567.43,-122 425.57,-122 425.57,-86 594.43,-86 594.43,-122"/>
<text text-anchor="middle" x="510" y="-99.8" font-family="Times,serif" font-size="14.00">ComedoresRoutingModule</text>
</g>
<!-- ComedoresRoutingModule&#45;&gt;ComedoresModule -->
<g id="edge3" class="edge">
<title>ComedoresRoutingModule&#45;&gt;ComedoresModule</title>
<path fill="none" stroke="black" d="M510,-122.11C510,-122.11 510,-140.99 510,-140.99"/>
<polygon fill="black" stroke="black" points="506.5,-140.99 510,-150.99 513.5,-140.99 506.5,-140.99"/>
</g>
<!-- SharedModule -->
<g id="node5" class="node">
<title>SharedModule</title>
<polygon fill="#8dd3c7" stroke="black" points="408.42,-122 405.42,-126 384.42,-126 381.42,-122 309.58,-122 309.58,-86 408.42,-86 408.42,-122"/>
<text text-anchor="middle" x="359" y="-99.8" font-family="Times,serif" font-size="14.00">SharedModule</text>
</g>
<!-- SharedModule&#45;&gt;ComedoresModule -->
<g id="edge4" class="edge">
<title>SharedModule&#45;&gt;ComedoresModule</title>
<path fill="none" stroke="black" d="M359,-122.03C359,-138.4 359,-160 359,-160 359,-160 438.15,-160 438.15,-160"/>
<polygon fill="black" stroke="black" points="438.15,-163.5 448.15,-160 438.15,-156.5 438.15,-163.5"/>
</g>
<!-- ImagemComponent -->
<g id="node6" class="node">
<title>ImagemComponent</title>
<polygon fill="#8dd3c7" stroke="black" points="291.7,-122 288.7,-126 267.7,-126 264.7,-122 164.3,-122 164.3,-86 291.7,-86 291.7,-122"/>
<text text-anchor="middle" x="228" y="-99.8" font-family="Times,serif" font-size="14.00">ImagemComponent</text>
</g>
<!-- ImagemComponent&#45;&gt;ComedoresModule -->
<g id="edge5" class="edge">
<title>ImagemComponent&#45;&gt;ComedoresModule</title>
<path fill="none" stroke="black" d="M228,-122.11C228,-141.34 228,-169 228,-169 228,-169 438.11,-169 438.11,-169"/>
<polygon fill="black" stroke="black" points="438.11,-172.5 448.11,-169 438.11,-165.5 438.11,-172.5"/>
</g>
<!-- UploadComponent -->
<g id="node7" class="node">
<title>UploadComponent</title>
<polygon fill="#8dd3c7" stroke="black" points="146.05,-122 143.05,-126 122.05,-126 119.05,-122 23.95,-122 23.95,-86 146.05,-86 146.05,-122"/>
<text text-anchor="middle" x="85" y="-99.8" font-family="Times,serif" font-size="14.00">UploadComponent</text>
</g>
<!-- UploadComponent&#45;&gt;ComedoresModule -->
<g id="edge6" class="edge">
<title>UploadComponent&#45;&gt;ComedoresModule</title>
<path fill="none" stroke="black" d="M85,-122.29C85,-144.21 85,-178 85,-178 85,-178 438.2,-178 438.2,-178"/>
<polygon fill="black" stroke="black" points="438.2,-181.5 448.2,-178 438.2,-174.5 438.2,-181.5"/>
</g>
<!-- { provide: TOKEN_PATH_IMAGEKIT, useValue: &#39;/amsmarmita/comedores&#39; } -->
<g id="node9" class="node">
<title>{ provide: TOKEN_PATH_IMAGEKIT, useValue: &#39;/amsmarmita/comedores&#39; }</title>
<ellipse fill="#fdb462" stroke="black" cx="940" cy="-104" rx="322" ry="18"/>
<text text-anchor="middle" x="940" y="-99.8" font-family="Times,serif" font-size="14.00">{ provide: TOKEN_PATH_IMAGEKIT, useValue: &#39;/amsmarmita/comedores&#39; }</text>
</g>
<!-- { provide: TOKEN_PATH_IMAGEKIT, useValue: &#39;/amsmarmita/comedores&#39; }&#45;&gt;ComedoresModule -->
<g id="edge8" class="edge">
<title>{ provide: TOKEN_PATH_IMAGEKIT, useValue: &#39;/amsmarmita/comedores&#39; }&#45;&gt;ComedoresModule</title>
<path fill="none" stroke="black" d="M940,-122.03C940,-138.4 940,-160 940,-160 940,-160 582.07,-160 582.07,-160"/>
<polygon fill="black" stroke="black" points="582.07,-156.5 572.07,-160 582.07,-163.5 582.07,-156.5"/>
</g>
</g>
</svg>
