<?xml version="1.0" encoding="UTF-8" standalone="no"?>
<!DOCTYPE svg PUBLIC "-//W3C//DTD SVG 1.1//EN"
 "http://www.w3.org/Graphics/SVG/1.1/DTD/svg11.dtd">
<!-- Generated by graphviz version 2.47.0 (20210316.0004)
 -->
<!-- Title: dependencies Pages: 1 -->
<svg width="3870pt" height="284pt"
 viewBox="0.00 0.00 3870.00 284.00" xmlns="http://www.w3.org/2000/svg" xmlns:xlink="http://www.w3.org/1999/xlink">
<g id="graph0" class="graph" transform="scale(1 1) rotate(0) translate(4 280)">
<title>dependencies</title>
<polygon fill="white" stroke="transparent" points="-4,4 -4,-280 3866,-280 3866,4 -4,4"/>
<text text-anchor="start" x="1910.01" y="-42.4" font-family="Times-12" font-weight="bold" font-size="14.00">Legend</text>
<polygon fill="#ffffb3" stroke="transparent" points="1697,-10 1697,-30 1717,-30 1717,-10 1697,-10"/>
<text text-anchor="start" x="1720.63" y="-15.4" font-family="Times-12" font-size="14.00"> &#160;Declarations</text>
<polygon fill="#8dd3c7" stroke="transparent" points="1810,-10 1810,-30 1830,-30 1830,-10 1810,-10"/>
<text text-anchor="start" x="1833.73" y="-15.4" font-family="Times-12" font-size="14.00"> &#160;Module</text>
<polygon fill="#80b1d3" stroke="transparent" points="1896,-10 1896,-30 1916,-30 1916,-10 1896,-10"/>
<text text-anchor="start" x="1919.78" y="-15.4" font-family="Times-12" font-size="14.00"> &#160;Bootstrap</text>
<polygon fill="#fdb462" stroke="transparent" points="1993,-10 1993,-30 2013,-30 2013,-10 1993,-10"/>
<text text-anchor="start" x="2016.67" y="-15.4" font-family="Times-12" font-size="14.00"> &#160;Providers</text>
<polygon fill="#fb8072" stroke="transparent" points="2089,-10 2089,-30 2109,-30 2109,-10 2089,-10"/>
<text text-anchor="start" x="2112.73" y="-15.4" font-family="Times-12" font-size="14.00"> &#160;Exports</text>
<g id="clust1" class="cluster">
<title>cluster_ComedoresModule</title>
<polygon fill="none" stroke="black" stroke-dasharray="1,5" points="8,-70 8,-268 3854,-268 3854,-70 8,-70"/>
</g>
<g id="clust5" class="cluster">
<title>cluster_ComedoresModule_imports</title>
<polygon fill="none" stroke="black" points="1047,-78 1047,-130 3846,-130 3846,-78 1047,-78"/>
</g>
<g id="clust2" class="cluster">
<title>cluster_ComedoresModule_declarations</title>
<polygon fill="none" stroke="black" points="684,-78 684,-130 1039,-130 1039,-78 684,-78"/>
</g>
<g id="clust6" class="cluster">
<title>cluster_ComedoresModule_exports</title>
<polygon fill="none" stroke="black" points="2171,-208 2171,-260 2335,-260 2335,-208 2171,-208"/>
</g>
<g id="clust8" class="cluster">
<title>cluster_ComedoresModule_providers</title>
<polygon fill="none" stroke="black" points="16,-78 16,-130 676,-130 676,-78 16,-78"/>
</g>
<!-- ComedoresComponent -->
<g id="node1" class="node">
<title>ComedoresComponent</title>
<polygon fill="#ffffb3" stroke="black" points="1030.59,-122 885.41,-122 885.41,-86 1030.59,-86 1030.59,-122"/>
<text text-anchor="middle" x="958" y="-99.8" font-family="Times,serif" font-size="14.00">ComedoresComponent</text>
</g>
<!-- ComedoresModule -->
<g id="node3" class="node">
<title>ComedoresModule</title>
<polygon fill="#8dd3c7" stroke="black" points="2314.81,-187 2311.81,-191 2290.81,-191 2287.81,-187 2191.19,-187 2191.19,-151 2314.81,-151 2314.81,-187"/>
<text text-anchor="middle" x="2253" y="-164.8" font-family="Times,serif" font-size="14.00">ComedoresModule</text>
</g>
<!-- ComedoresComponent&#45;&gt;ComedoresModule -->
<g id="edge1" class="edge">
<title>ComedoresComponent&#45;&gt;ComedoresModule</title>
<path fill="none" stroke="black" d="M958,-122.29C958,-144.21 958,-178 958,-178 958,-178 2180.98,-178 2180.98,-178"/>
<polygon fill="black" stroke="black" points="2180.98,-181.5 2190.98,-178 2180.98,-174.5 2180.98,-181.5"/>
</g>
<!-- ComedoresFormComponent -->
<g id="node2" class="node">
<title>ComedoresFormComponent</title>
<polygon fill="#ffffb3" stroke="black" points="867.93,-122 692.07,-122 692.07,-86 867.93,-86 867.93,-122"/>
<text text-anchor="middle" x="780" y="-99.8" font-family="Times,serif" font-size="14.00">ComedoresFormComponent</text>
</g>
<!-- ComedoresFormComponent&#45;&gt;ComedoresModule -->
<g id="edge2" class="edge">
<title>ComedoresFormComponent&#45;&gt;ComedoresModule</title>
<path fill="none" stroke="black" d="M780,-122.25C780,-145.02 780,-181 780,-181 780,-181 2181.12,-181 2181.12,-181"/>
<polygon fill="black" stroke="black" points="2181.12,-184.5 2191.12,-181 2181.12,-177.5 2181.12,-184.5"/>
</g>
<!-- ComedoresComponent  -->
<g id="node24" class="node">
<title>ComedoresComponent </title>
<polygon fill="#fb8072" stroke="black" points="2327.09,-252 2178.91,-252 2178.91,-216 2327.09,-216 2327.09,-252"/>
<text text-anchor="middle" x="2253" y="-229.8" font-family="Times,serif" font-size="14.00">ComedoresComponent </text>
</g>
<!-- ComedoresModule&#45;&gt;ComedoresComponent  -->
<g id="edge23" class="edge">
<title>ComedoresModule&#45;&gt;ComedoresComponent </title>
<path fill="none" stroke="black" stroke-dasharray="5,2" d="M2253,-187.11C2253,-187.11 2253,-205.99 2253,-205.99"/>
<polygon fill="black" stroke="black" points="2249.5,-205.99 2253,-215.99 2256.5,-205.99 2249.5,-205.99"/>
</g>
<!-- NgStyle -->
<g id="node4" class="node">
<title>NgStyle</title>
<polygon fill="#8dd3c7" stroke="black" points="3837.89,-122 3834.89,-126 3813.89,-126 3810.89,-122 3776.11,-122 3776.11,-86 3837.89,-86 3837.89,-122"/>
<text text-anchor="middle" x="3807" y="-99.8" font-family="Times,serif" font-size="14.00">NgStyle</text>
</g>
<!-- NgStyle&#45;&gt;ComedoresModule -->
<g id="edge3" class="edge">
<title>NgStyle&#45;&gt;ComedoresModule</title>
<path fill="none" stroke="black" d="M3807,-122.15C3807,-145.76 3807,-184 3807,-184 3807,-184 2324.88,-184 2324.88,-184"/>
<polygon fill="black" stroke="black" points="2324.88,-180.5 2314.88,-184 2324.88,-187.5 2324.88,-180.5"/>
</g>
<!-- AsyncPipe -->
<g id="node5" class="node">
<title>AsyncPipe</title>
<polygon fill="#8dd3c7" stroke="black" points="3758.15,-122 3755.15,-126 3734.15,-126 3731.15,-122 3681.85,-122 3681.85,-86 3758.15,-86 3758.15,-122"/>
<text text-anchor="middle" x="3720" y="-99.8" font-family="Times,serif" font-size="14.00">AsyncPipe</text>
</g>
<!-- AsyncPipe&#45;&gt;ComedoresModule -->
<g id="edge4" class="edge">
<title>AsyncPipe&#45;&gt;ComedoresModule</title>
<path fill="none" stroke="black" d="M3720,-122.25C3720,-145.02 3720,-181 3720,-181 3720,-181 2325.1,-181 2325.1,-181"/>
<polygon fill="black" stroke="black" points="2325.1,-177.5 2315.1,-181 2325.1,-184.5 2325.1,-177.5"/>
</g>
<!-- DatePipe -->
<g id="node6" class="node">
<title>DatePipe</title>
<polygon fill="#8dd3c7" stroke="black" points="3663.81,-122 3660.81,-126 3639.81,-126 3636.81,-122 3596.19,-122 3596.19,-86 3663.81,-86 3663.81,-122"/>
<text text-anchor="middle" x="3630" y="-99.8" font-family="Times,serif" font-size="14.00">DatePipe</text>
</g>
<!-- DatePipe&#45;&gt;ComedoresModule -->
<g id="edge5" class="edge">
<title>DatePipe&#45;&gt;ComedoresModule</title>
<path fill="none" stroke="black" d="M3630,-122.29C3630,-144.21 3630,-178 3630,-178 3630,-178 2324.84,-178 2324.84,-178"/>
<polygon fill="black" stroke="black" points="2324.84,-174.5 2314.84,-178 2324.84,-181.5 2324.84,-174.5"/>
</g>
<!-- ReactiveFormsModule -->
<g id="node7" class="node">
<title>ReactiveFormsModule</title>
<polygon fill="#8dd3c7" stroke="black" points="3578.3,-122 3575.3,-126 3554.3,-126 3551.3,-122 3433.7,-122 3433.7,-86 3578.3,-86 3578.3,-122"/>
<text text-anchor="middle" x="3506" y="-99.8" font-family="Times,serif" font-size="14.00">ReactiveFormsModule</text>
</g>
<!-- ReactiveFormsModule&#45;&gt;ComedoresModule -->
<g id="edge6" class="edge">
<title>ReactiveFormsModule&#45;&gt;ComedoresModule</title>
<path fill="none" stroke="black" d="M3506,-122.28C3506,-143.32 3506,-175 3506,-175 3506,-175 2324.71,-175 2324.71,-175"/>
<polygon fill="black" stroke="black" points="2324.71,-171.5 2314.71,-175 2324.71,-178.5 2324.71,-171.5"/>
</g>
<!-- ComedoresRoutingModule -->
<g id="node8" class="node">
<title>ComedoresRoutingModule</title>
<polygon fill="#8dd3c7" stroke="black" points="3416.43,-122 3413.43,-126 3392.43,-126 3389.43,-122 3247.57,-122 3247.57,-86 3416.43,-86 3416.43,-122"/>
<text text-anchor="middle" x="3332" y="-99.8" font-family="Times,serif" font-size="14.00">ComedoresRoutingModule</text>
</g>
<!-- ComedoresRoutingModule&#45;&gt;ComedoresModule -->
<g id="edge7" class="edge">
<title>ComedoresRoutingModule&#45;&gt;ComedoresModule</title>
<path fill="none" stroke="black" d="M3332,-122.22C3332,-142.37 3332,-172 3332,-172 3332,-172 2324.89,-172 2324.89,-172"/>
<polygon fill="black" stroke="black" points="2324.89,-168.5 2314.89,-172 2324.89,-175.5 2324.89,-168.5"/>
</g>
<!-- AmsDialogModule -->
<g id="node9" class="node">
<title>AmsDialogModule</title>
<polygon fill="#8dd3c7" stroke="black" points="3230.09,-122 3227.09,-126 3206.09,-126 3203.09,-122 3105.91,-122 3105.91,-86 3230.09,-86 3230.09,-122"/>
<text text-anchor="middle" x="3168" y="-99.8" font-family="Times,serif" font-size="14.00">AmsDialogModule</text>
</g>
<!-- AmsDialogModule&#45;&gt;ComedoresModule -->
<g id="edge8" class="edge">
<title>AmsDialogModule&#45;&gt;ComedoresModule</title>
<path fill="none" stroke="black" d="M3168,-122.11C3168,-141.34 3168,-169 3168,-169 3168,-169 2324.81,-169 2324.81,-169"/>
<polygon fill="black" stroke="black" points="2324.81,-165.5 2314.81,-169 2324.81,-172.5 2324.81,-165.5"/>
</g>
<!-- CentralContainerComponent -->
<g id="node10" class="node">
<title>CentralContainerComponent</title>
<polygon fill="#8dd3c7" stroke="black" points="3087.75,-122 3084.75,-126 3063.75,-126 3060.75,-122 2910.25,-122 2910.25,-86 3087.75,-86 3087.75,-122"/>
<text text-anchor="middle" x="2999" y="-99.8" font-family="Times,serif" font-size="14.00">CentralContainerComponent</text>
</g>
<!-- CentralContainerComponent&#45;&gt;ComedoresModule -->
<g id="edge9" class="edge">
<title>CentralContainerComponent&#45;&gt;ComedoresModule</title>
<path fill="none" stroke="black" d="M2999,-122.27C2999,-140.56 2999,-166 2999,-166 2999,-166 2324.68,-166 2324.68,-166"/>
<polygon fill="black" stroke="black" points="2324.68,-162.5 2314.68,-166 2324.68,-169.5 2324.68,-162.5"/>
</g>
<!-- CentralFormComponent -->
<g id="node11" class="node">
<title>CentralFormComponent</title>
<polygon fill="#8dd3c7" stroke="black" points="2892.37,-122 2889.37,-126 2868.37,-126 2865.37,-122 2739.63,-122 2739.63,-86 2892.37,-86 2892.37,-122"/>
<text text-anchor="middle" x="2816" y="-99.8" font-family="Times,serif" font-size="14.00">CentralFormComponent</text>
</g>
<!-- CentralFormComponent&#45;&gt;ComedoresModule -->
<g id="edge10" class="edge">
<title>CentralFormComponent&#45;&gt;ComedoresModule</title>
<path fill="none" stroke="black" d="M2816,-122.02C2816,-139.37 2816,-163 2816,-163 2816,-163 2324.86,-163 2324.86,-163"/>
<polygon fill="black" stroke="black" points="2324.86,-159.5 2314.86,-163 2324.86,-166.5 2324.86,-159.5"/>
</g>
<!-- LongPressDirective -->
<g id="node12" class="node">
<title>LongPressDirective</title>
<polygon fill="#8dd3c7" stroke="black" points="2721.68,-122 2718.68,-126 2697.68,-126 2694.68,-122 2594.32,-122 2594.32,-86 2721.68,-86 2721.68,-122"/>
<text text-anchor="middle" x="2658" y="-99.8" font-family="Times,serif" font-size="14.00">LongPressDirective</text>
</g>
<!-- LongPressDirective&#45;&gt;ComedoresModule -->
<g id="edge11" class="edge">
<title>LongPressDirective&#45;&gt;ComedoresModule</title>
<path fill="none" stroke="black" d="M2658,-122.03C2658,-138.4 2658,-160 2658,-160 2658,-160 2324.95,-160 2324.95,-160"/>
<polygon fill="black" stroke="black" points="2324.95,-156.5 2314.95,-160 2324.95,-163.5 2324.95,-156.5"/>
</g>
<!-- MatListModule -->
<g id="node13" class="node">
<title>MatListModule</title>
<polygon fill="#8dd3c7" stroke="black" points="2575.88,-122 2572.88,-126 2551.88,-126 2548.88,-122 2472.12,-122 2472.12,-86 2575.88,-86 2575.88,-122"/>
<text text-anchor="middle" x="2524" y="-99.8" font-family="Times,serif" font-size="14.00">MatListModule</text>
</g>
<!-- MatListModule&#45;&gt;ComedoresModule -->
<g id="edge12" class="edge">
<title>MatListModule&#45;&gt;ComedoresModule</title>
<path fill="none" stroke="black" d="M2524,-122.24C2524,-137.57 2524,-157 2524,-157 2524,-157 2324.83,-157 2324.83,-157"/>
<polygon fill="black" stroke="black" points="2324.83,-153.5 2314.83,-157 2324.83,-160.5 2324.83,-153.5"/>
</g>
<!-- MatButtonModule -->
<g id="node14" class="node">
<title>MatButtonModule</title>
<polygon fill="#8dd3c7" stroke="black" points="2454.22,-122 2451.22,-126 2430.22,-126 2427.22,-122 2333.78,-122 2333.78,-86 2454.22,-86 2454.22,-122"/>
<text text-anchor="middle" x="2394" y="-99.8" font-family="Times,serif" font-size="14.00">MatButtonModule</text>
</g>
<!-- MatButtonModule&#45;&gt;ComedoresModule -->
<g id="edge13" class="edge">
<title>MatButtonModule&#45;&gt;ComedoresModule</title>
<path fill="none" stroke="black" d="M2394,-122.05C2394,-136.37 2394,-154 2394,-154 2394,-154 2324.84,-154 2324.84,-154"/>
<polygon fill="black" stroke="black" points="2324.84,-150.5 2314.84,-154 2324.84,-157.5 2324.84,-150.5"/>
</g>
<!-- MatDividerModule -->
<g id="node15" class="node">
<title>MatDividerModule</title>
<polygon fill="#8dd3c7" stroke="black" points="2315.36,-122 2312.36,-126 2291.36,-126 2288.36,-122 2190.64,-122 2190.64,-86 2315.36,-86 2315.36,-122"/>
<text text-anchor="middle" x="2253" y="-99.8" font-family="Times,serif" font-size="14.00">MatDividerModule</text>
</g>
<!-- MatDividerModule&#45;&gt;ComedoresModule -->
<g id="edge14" class="edge">
<title>MatDividerModule&#45;&gt;ComedoresModule</title>
<path fill="none" stroke="black" d="M2253,-122.11C2253,-122.11 2253,-140.99 2253,-140.99"/>
<polygon fill="black" stroke="black" points="2249.5,-140.99 2253,-150.99 2256.5,-140.99 2249.5,-140.99"/>
</g>
<!-- MatFormFieldModule -->
<g id="node16" class="node">
<title>MatFormFieldModule</title>
<polygon fill="#8dd3c7" stroke="black" points="2172.71,-122 2169.71,-126 2148.71,-126 2145.71,-122 2031.29,-122 2031.29,-86 2172.71,-86 2172.71,-122"/>
<text text-anchor="middle" x="2102" y="-99.8" font-family="Times,serif" font-size="14.00">MatFormFieldModule</text>
</g>
<!-- MatFormFieldModule&#45;&gt;ComedoresModule -->
<g id="edge15" class="edge">
<title>MatFormFieldModule&#45;&gt;ComedoresModule</title>
<path fill="none" stroke="black" d="M2102,-122.05C2102,-136.37 2102,-154 2102,-154 2102,-154 2181.15,-154 2181.15,-154"/>
<polygon fill="black" stroke="black" points="2181.15,-157.5 2191.15,-154 2181.15,-150.5 2181.15,-157.5"/>
</g>
<!-- MatInputModule -->
<g id="node17" class="node">
<title>MatInputModule</title>
<polygon fill="#8dd3c7" stroke="black" points="2013.65,-122 2010.65,-126 1989.65,-126 1986.65,-122 1902.35,-122 1902.35,-86 2013.65,-86 2013.65,-122"/>
<text text-anchor="middle" x="1958" y="-99.8" font-family="Times,serif" font-size="14.00">MatInputModule</text>
</g>
<!-- MatInputModule&#45;&gt;ComedoresModule -->
<g id="edge16" class="edge">
<title>MatInputModule&#45;&gt;ComedoresModule</title>
<path fill="none" stroke="black" d="M1958,-122.24C1958,-137.57 1958,-157 1958,-157 1958,-157 2181.16,-157 2181.16,-157"/>
<polygon fill="black" stroke="black" points="2181.16,-160.5 2191.16,-157 2181.16,-153.5 2181.16,-160.5"/>
</g>
<!-- MatIconModule -->
<g id="node18" class="node">
<title>MatIconModule</title>
<polygon fill="#8dd3c7" stroke="black" points="1884.47,-122 1881.47,-126 1860.47,-126 1857.47,-122 1777.53,-122 1777.53,-86 1884.47,-86 1884.47,-122"/>
<text text-anchor="middle" x="1831" y="-99.8" font-family="Times,serif" font-size="14.00">MatIconModule</text>
</g>
<!-- MatIconModule&#45;&gt;ComedoresModule -->
<g id="edge17" class="edge">
<title>MatIconModule&#45;&gt;ComedoresModule</title>
<path fill="none" stroke="black" d="M1831,-122.03C1831,-138.4 1831,-160 1831,-160 1831,-160 2181.19,-160 2181.19,-160"/>
<polygon fill="black" stroke="black" points="2181.19,-163.5 2191.19,-160 2181.19,-156.5 2181.19,-163.5"/>
</g>
<!-- MatSnackBarModule -->
<g id="node19" class="node">
<title>MatSnackBarModule</title>
<polygon fill="#8dd3c7" stroke="black" points="1759.02,-122 1756.02,-126 1735.02,-126 1732.02,-122 1622.98,-122 1622.98,-86 1759.02,-86 1759.02,-122"/>
<text text-anchor="middle" x="1691" y="-99.8" font-family="Times,serif" font-size="14.00">MatSnackBarModule</text>
</g>
<!-- MatSnackBarModule&#45;&gt;ComedoresModule -->
<g id="edge18" class="edge">
<title>MatSnackBarModule&#45;&gt;ComedoresModule</title>
<path fill="none" stroke="black" d="M1691,-122.02C1691,-139.37 1691,-163 1691,-163 1691,-163 2181.25,-163 2181.25,-163"/>
<polygon fill="black" stroke="black" points="2181.25,-166.5 2191.25,-163 2181.25,-159.5 2181.25,-166.5"/>
</g>
<!-- NgOptimizedImage -->
<g id="node20" class="node">
<title>NgOptimizedImage</title>
<polygon fill="#8dd3c7" stroke="black" points="1604.69,-122 1601.69,-126 1580.69,-126 1577.69,-122 1477.31,-122 1477.31,-86 1604.69,-86 1604.69,-122"/>
<text text-anchor="middle" x="1541" y="-99.8" font-family="Times,serif" font-size="14.00">NgOptimizedImage</text>
</g>
<!-- NgOptimizedImage&#45;&gt;ComedoresModule -->
<g id="edge19" class="edge">
<title>NgOptimizedImage&#45;&gt;ComedoresModule</title>
<path fill="none" stroke="black" d="M1541,-122.27C1541,-140.56 1541,-166 1541,-166 1541,-166 2181.06,-166 2181.06,-166"/>
<polygon fill="black" stroke="black" points="2181.06,-169.5 2191.06,-166 2181.06,-162.5 2181.06,-169.5"/>
</g>
<!-- MatRippleModule -->
<g id="node21" class="node">
<title>MatRippleModule</title>
<polygon fill="#8dd3c7" stroke="black" points="1459.93,-122 1456.93,-126 1435.93,-126 1432.93,-122 1340.07,-122 1340.07,-86 1459.93,-86 1459.93,-122"/>
<text text-anchor="middle" x="1400" y="-99.8" font-family="Times,serif" font-size="14.00">MatRippleModule</text>
</g>
<!-- MatRippleModule&#45;&gt;ComedoresModule -->
<g id="edge20" class="edge">
<title>MatRippleModule&#45;&gt;ComedoresModule</title>
<path fill="none" stroke="black" d="M1400,-122.11C1400,-141.34 1400,-169 1400,-169 1400,-169 2181.31,-169 2181.31,-169"/>
<polygon fill="black" stroke="black" points="2181.31,-172.5 2191.31,-169 2181.31,-165.5 2181.31,-172.5"/>
</g>
<!-- ImagemComponent -->
<g id="node22" class="node">
<title>ImagemComponent</title>
<polygon fill="#8dd3c7" stroke="black" points="1322.7,-122 1319.7,-126 1298.7,-126 1295.7,-122 1195.3,-122 1195.3,-86 1322.7,-86 1322.7,-122"/>
<text text-anchor="middle" x="1259" y="-99.8" font-family="Times,serif" font-size="14.00">ImagemComponent</text>
</g>
<!-- ImagemComponent&#45;&gt;ComedoresModule -->
<g id="edge21" class="edge">
<title>ImagemComponent&#45;&gt;ComedoresModule</title>
<path fill="none" stroke="black" d="M1259,-122.22C1259,-142.37 1259,-172 1259,-172 1259,-172 2181.2,-172 2181.2,-172"/>
<polygon fill="black" stroke="black" points="2181.2,-175.5 2191.2,-172 2181.2,-168.5 2181.2,-175.5"/>
</g>
<!-- UploadComponent -->
<g id="node23" class="node">
<title>UploadComponent</title>
<polygon fill="#8dd3c7" stroke="black" points="1177.05,-122 1174.05,-126 1153.05,-126 1150.05,-122 1054.95,-122 1054.95,-86 1177.05,-86 1177.05,-122"/>
<text text-anchor="middle" x="1116" y="-99.8" font-family="Times,serif" font-size="14.00">UploadComponent</text>
</g>
<!-- UploadComponent&#45;&gt;ComedoresModule -->
<g id="edge22" class="edge">
<title>UploadComponent&#45;&gt;ComedoresModule</title>
<path fill="none" stroke="black" d="M1116,-122.28C1116,-143.32 1116,-175 1116,-175 1116,-175 2181.06,-175 2181.06,-175"/>
<polygon fill="black" stroke="black" points="2181.06,-178.5 2191.06,-175 2181.06,-171.5 2181.06,-178.5"/>
</g>
<!-- { provide: TOKEN_PATH_IMAGEKIT, useValue: &#39;/amsmarmita/comedores&#39; } -->
<g id="node25" class="node">
<title>{ provide: TOKEN_PATH_IMAGEKIT, useValue: &#39;/amsmarmita/comedores&#39; }</title>
<ellipse fill="#fdb462" stroke="black" cx="346" cy="-104" rx="322" ry="18"/>
<text text-anchor="middle" x="346" y="-99.8" font-family="Times,serif" font-size="14.00">{ provide: TOKEN_PATH_IMAGEKIT, useValue: &#39;/amsmarmita/comedores&#39; }</text>
</g>
<!-- { provide: TOKEN_PATH_IMAGEKIT, useValue: &#39;/amsmarmita/comedores&#39; }&#45;&gt;ComedoresModule -->
<g id="edge24" class="edge">
<title>{ provide: TOKEN_PATH_IMAGEKIT, useValue: &#39;/amsmarmita/comedores&#39; }&#45;&gt;ComedoresModule</title>
<path fill="none" stroke="black" d="M346,-122.15C346,-145.76 346,-184 346,-184 346,-184 2181.17,-184 2181.17,-184"/>
<polygon fill="black" stroke="black" points="2181.17,-187.5 2191.17,-184 2181.17,-180.5 2181.17,-187.5"/>
</g>
</g>
</svg>
