<?xml version="1.0" encoding="UTF-8" standalone="no"?>
<!DOCTYPE svg PUBLIC "-//W3C//DTD SVG 1.1//EN"
 "http://www.w3.org/Graphics/SVG/1.1/DTD/svg11.dtd">
<!-- Generated by graphviz version 2.47.0 (20210316.0004)
 -->
<!-- Title: dependencies Pages: 1 -->
<svg width="850pt" height="284pt"
 viewBox="0.00 0.00 850.00 284.00" xmlns="http://www.w3.org/2000/svg" xmlns:xlink="http://www.w3.org/1999/xlink">
<g id="graph0" class="graph" transform="scale(1 1) rotate(0) translate(4 280)">
<title>dependencies</title>
<polygon fill="white" stroke="transparent" points="-4,4 -4,-280 846,-280 846,4 -4,4"/>
<text text-anchor="start" x="400.01" y="-42.4" font-family="Times-12" font-weight="bold" font-size="14.00">Legend</text>
<polygon fill="#ffffb3" stroke="transparent" points="187,-10 187,-30 207,-30 207,-10 187,-10"/>
<text text-anchor="start" x="210.63" y="-15.4" font-family="Times-12" font-size="14.00"> &#160;Declarations</text>
<polygon fill="#8dd3c7" stroke="transparent" points="300,-10 300,-30 320,-30 320,-10 300,-10"/>
<text text-anchor="start" x="323.73" y="-15.4" font-family="Times-12" font-size="14.00"> &#160;Module</text>
<polygon fill="#80b1d3" stroke="transparent" points="386,-10 386,-30 406,-30 406,-10 386,-10"/>
<text text-anchor="start" x="409.78" y="-15.4" font-family="Times-12" font-size="14.00"> &#160;Bootstrap</text>
<polygon fill="#fdb462" stroke="transparent" points="483,-10 483,-30 503,-30 503,-10 483,-10"/>
<text text-anchor="start" x="506.67" y="-15.4" font-family="Times-12" font-size="14.00"> &#160;Providers</text>
<polygon fill="#fb8072" stroke="transparent" points="579,-10 579,-30 599,-30 599,-10 579,-10"/>
<text text-anchor="start" x="602.73" y="-15.4" font-family="Times-12" font-size="14.00"> &#160;Exports</text>
<g id="clust1" class="cluster">
<title>cluster_SharedModule</title>
<polygon fill="none" stroke="black" stroke-dasharray="1,5" points="8,-70 8,-268 834,-268 834,-70 8,-70"/>
</g>
<g id="clust3" class="cluster">
<title>cluster_SharedModule_imports</title>
<polygon fill="none" stroke="black" points="726,-78 726,-130 826,-130 826,-78 726,-78"/>
</g>
<g id="clust4" class="cluster">
<title>cluster_SharedModule_exports</title>
<polygon fill="none" stroke="black" points="437,-208 437,-260 541,-260 541,-208 437,-208"/>
</g>
<g id="clust6" class="cluster">
<title>cluster_SharedModule_providers</title>
<polygon fill="none" stroke="black" points="16,-78 16,-130 718,-130 718,-78 16,-78"/>
</g>
<!-- MODULES -->
<g id="node1" class="node">
<title>MODULES</title>
<polygon fill="#8dd3c7" stroke="black" points="817.65,-122 814.65,-126 793.65,-126 790.65,-122 734.35,-122 734.35,-86 817.65,-86 817.65,-122"/>
<text text-anchor="middle" x="776" y="-99.8" font-family="Times,serif" font-size="14.00">MODULES</text>
</g>
<!-- SharedModule -->
<g id="node2" class="node">
<title>SharedModule</title>
<polygon fill="#8dd3c7" stroke="black" points="538.42,-187 535.42,-191 514.42,-191 511.42,-187 439.58,-187 439.58,-151 538.42,-151 538.42,-187"/>
<text text-anchor="middle" x="489" y="-164.8" font-family="Times,serif" font-size="14.00">SharedModule</text>
</g>
<!-- MODULES&#45;&gt;SharedModule -->
<g id="edge1" class="edge">
<title>MODULES&#45;&gt;SharedModule</title>
<path fill="none" stroke="black" d="M776,-122.11C776,-141.34 776,-169 776,-169 776,-169 548.34,-169 548.34,-169"/>
<polygon fill="black" stroke="black" points="548.34,-165.5 538.34,-169 548.34,-172.5 548.34,-165.5"/>
</g>
<!-- MODULES  -->
<g id="node3" class="node">
<title>MODULES </title>
<polygon fill="#fb8072" stroke="black" points="532.65,-252 445.35,-252 445.35,-216 532.65,-216 532.65,-252"/>
<text text-anchor="middle" x="489" y="-229.8" font-family="Times,serif" font-size="14.00">MODULES </text>
</g>
<!-- SharedModule&#45;&gt;MODULES  -->
<g id="edge2" class="edge">
<title>SharedModule&#45;&gt;MODULES </title>
<path fill="none" stroke="black" stroke-dasharray="5,2" d="M489,-187.11C489,-187.11 489,-205.99 489,-205.99"/>
<polygon fill="black" stroke="black" points="485.5,-205.99 489,-215.99 492.5,-205.99 485.5,-205.99"/>
</g>
<!-- { provide: MAT_DATE_LOCALE, useValue: ptBR } -->
<g id="node4" class="node">
<title>{ provide: MAT_DATE_LOCALE, useValue: ptBR }</title>
<ellipse fill="#fdb462" stroke="black" cx="489" cy="-104" rx="220.82" ry="18"/>
<text text-anchor="middle" x="489" y="-99.8" font-family="Times,serif" font-size="14.00">{ provide: MAT_DATE_LOCALE, useValue: ptBR }</text>
</g>
<!-- { provide: MAT_DATE_LOCALE, useValue: ptBR }&#45;&gt;SharedModule -->
<g id="edge3" class="edge">
<title>{ provide: MAT_DATE_LOCALE, useValue: ptBR }&#45;&gt;SharedModule</title>
<path fill="none" stroke="black" d="M489,-122.11C489,-122.11 489,-140.99 489,-140.99"/>
<polygon fill="black" stroke="black" points="485.5,-140.99 489,-150.99 492.5,-140.99 485.5,-140.99"/>
</g>
<!-- provideDateFnsAdapter.() -->
<g id="node5" class="node">
<title>provideDateFnsAdapter.()</title>
<ellipse fill="#fdb462" stroke="black" cx="137" cy="-104" rx="112.82" ry="18"/>
<text text-anchor="middle" x="137" y="-99.8" font-family="Times,serif" font-size="14.00">provideDateFnsAdapter.()</text>
</g>
<!-- provideDateFnsAdapter.()&#45;&gt;SharedModule -->
<g id="edge4" class="edge">
<title>provideDateFnsAdapter.()&#45;&gt;SharedModule</title>
<path fill="none" stroke="black" d="M137,-122.11C137,-141.34 137,-169 137,-169 137,-169 429.69,-169 429.69,-169"/>
<polygon fill="black" stroke="black" points="429.69,-172.5 439.69,-169 429.69,-165.5 429.69,-172.5"/>
</g>
</g>
</svg>
