<?xml version="1.0" encoding="UTF-8" standalone="no"?>
<!DOCTYPE svg PUBLIC "-//W3C//DTD SVG 1.1//EN"
 "http://www.w3.org/Graphics/SVG/1.1/DTD/svg11.dtd">
<!-- Generated by graphviz version 2.47.0 (20210316.0004)
 -->
<!-- Title: dependencies Pages: 1 -->
<svg width="703pt" height="211pt"
 viewBox="0.00 0.00 703.00 211.00" xmlns="http://www.w3.org/2000/svg" xmlns:xlink="http://www.w3.org/1999/xlink">
<g id="graph0" class="graph" transform="scale(1 1) rotate(0) translate(4 207)">
<title>dependencies</title>
<polygon fill="white" stroke="transparent" points="-4,4 -4,-207 699,-207 699,4 -4,4"/>
<text text-anchor="start" x="326.51" y="-42.4" font-family="Times-12" font-weight="bold" font-size="14.00">Legend</text>
<polygon fill="#ffffb3" stroke="transparent" points="113.5,-10 113.5,-30 133.5,-30 133.5,-10 113.5,-10"/>
<text text-anchor="start" x="137.13" y="-15.4" font-family="Times-12" font-size="14.00"> &#160;Declarations</text>
<polygon fill="#8dd3c7" stroke="transparent" points="226.5,-10 226.5,-30 246.5,-30 246.5,-10 226.5,-10"/>
<text text-anchor="start" x="250.23" y="-15.4" font-family="Times-12" font-size="14.00"> &#160;Module</text>
<polygon fill="#80b1d3" stroke="transparent" points="312.5,-10 312.5,-30 332.5,-30 332.5,-10 312.5,-10"/>
<text text-anchor="start" x="336.28" y="-15.4" font-family="Times-12" font-size="14.00"> &#160;Bootstrap</text>
<polygon fill="#fdb462" stroke="transparent" points="409.5,-10 409.5,-30 429.5,-30 429.5,-10 409.5,-10"/>
<text text-anchor="start" x="433.17" y="-15.4" font-family="Times-12" font-size="14.00"> &#160;Providers</text>
<polygon fill="#fb8072" stroke="transparent" points="505.5,-10 505.5,-30 525.5,-30 525.5,-10 505.5,-10"/>
<text text-anchor="start" x="529.23" y="-15.4" font-family="Times-12" font-size="14.00"> &#160;Exports</text>
<g id="clust1" class="cluster">
<title>cluster_IngredienteModule</title>
<polygon fill="none" stroke="black" stroke-dasharray="1,5" points="8,-70 8,-195 687,-195 687,-70 8,-70"/>
</g>
<g id="clust5" class="cluster">
<title>cluster_IngredienteModule_imports</title>
<polygon fill="none" stroke="black" points="379,-78 379,-130 679,-130 679,-78 379,-78"/>
</g>
<g id="clust2" class="cluster">
<title>cluster_IngredienteModule_declarations</title>
<polygon fill="none" stroke="black" points="16,-78 16,-130 371,-130 371,-78 16,-78"/>
</g>
<!-- IngredienteComponent -->
<g id="node1" class="node">
<title>IngredienteComponent</title>
<polygon fill="#ffffb3" stroke="black" points="362.58,-122 217.42,-122 217.42,-86 362.58,-86 362.58,-122"/>
<text text-anchor="middle" x="290" y="-99.8" font-family="Times,serif" font-size="14.00">IngredienteComponent</text>
</g>
<!-- IngredienteModule -->
<g id="node3" class="node">
<title>IngredienteModule</title>
<polygon fill="#8dd3c7" stroke="black" points="424.8,-187 421.8,-191 400.8,-191 397.8,-187 301.2,-187 301.2,-151 424.8,-151 424.8,-187"/>
<text text-anchor="middle" x="363" y="-164.8" font-family="Times,serif" font-size="14.00">IngredienteModule</text>
</g>
<!-- IngredienteComponent&#45;&gt;IngredienteModule -->
<g id="edge1" class="edge">
<title>IngredienteComponent&#45;&gt;IngredienteModule</title>
<path fill="none" stroke="black" d="M331.95,-122.11C331.95,-122.11 331.95,-140.99 331.95,-140.99"/>
<polygon fill="black" stroke="black" points="328.45,-140.99 331.95,-150.99 335.45,-140.99 328.45,-140.99"/>
</g>
<!-- IngredienteFormComponent -->
<g id="node2" class="node">
<title>IngredienteFormComponent</title>
<polygon fill="#ffffb3" stroke="black" points="199.91,-122 24.09,-122 24.09,-86 199.91,-86 199.91,-122"/>
<text text-anchor="middle" x="112" y="-99.8" font-family="Times,serif" font-size="14.00">IngredienteFormComponent</text>
</g>
<!-- IngredienteFormComponent&#45;&gt;IngredienteModule -->
<g id="edge2" class="edge">
<title>IngredienteFormComponent&#45;&gt;IngredienteModule</title>
<path fill="none" stroke="black" d="M112,-122.11C112,-141.34 112,-169 112,-169 112,-169 291.28,-169 291.28,-169"/>
<polygon fill="black" stroke="black" points="291.28,-172.5 301.28,-169 291.28,-165.5 291.28,-172.5"/>
</g>
<!-- IngredienteRoutingModule -->
<g id="node4" class="node">
<title>IngredienteRoutingModule</title>
<polygon fill="#8dd3c7" stroke="black" points="671.41,-122 668.41,-126 647.41,-126 644.41,-122 502.59,-122 502.59,-86 671.41,-86 671.41,-122"/>
<text text-anchor="middle" x="587" y="-99.8" font-family="Times,serif" font-size="14.00">IngredienteRoutingModule</text>
</g>
<!-- IngredienteRoutingModule&#45;&gt;IngredienteModule -->
<g id="edge3" class="edge">
<title>IngredienteRoutingModule&#45;&gt;IngredienteModule</title>
<path fill="none" stroke="black" d="M587,-122.11C587,-141.34 587,-169 587,-169 587,-169 434.8,-169 434.8,-169"/>
<polygon fill="black" stroke="black" points="434.8,-165.5 424.8,-169 434.8,-172.5 434.8,-165.5"/>
</g>
<!-- SharedModule -->
<g id="node5" class="node">
<title>SharedModule</title>
<polygon fill="#8dd3c7" stroke="black" points="485.42,-122 482.42,-126 461.42,-126 458.42,-122 386.58,-122 386.58,-86 485.42,-86 485.42,-122"/>
<text text-anchor="middle" x="436" y="-99.8" font-family="Times,serif" font-size="14.00">SharedModule</text>
</g>
<!-- SharedModule&#45;&gt;IngredienteModule -->
<g id="edge4" class="edge">
<title>SharedModule&#45;&gt;IngredienteModule</title>
<path fill="none" stroke="black" d="M405.72,-122.11C405.72,-122.11 405.72,-140.99 405.72,-140.99"/>
<polygon fill="black" stroke="black" points="402.22,-140.99 405.72,-150.99 409.22,-140.99 402.22,-140.99"/>
</g>
</g>
</svg>
