<?xml version="1.0" encoding="UTF-8" standalone="no"?>
<!DOCTYPE svg PUBLIC "-//W3C//DTD SVG 1.1//EN"
 "http://www.w3.org/Graphics/SVG/1.1/DTD/svg11.dtd">
<!-- Generated by graphviz version 2.47.0 (20210316.0004)
 -->
<!-- Title: dependencies Pages: 1 -->
<svg width="3018pt" height="211pt"
 viewBox="0.00 0.00 3018.00 211.00" xmlns="http://www.w3.org/2000/svg" xmlns:xlink="http://www.w3.org/1999/xlink">
<g id="graph0" class="graph" transform="scale(1 1) rotate(0) translate(4 207)">
<title>dependencies</title>
<polygon fill="white" stroke="transparent" points="-4,4 -4,-207 3014,-207 3014,4 -4,4"/>
<text text-anchor="start" x="1484.01" y="-42.4" font-family="Times-12" font-weight="bold" font-size="14.00">Legend</text>
<polygon fill="#ffffb3" stroke="transparent" points="1271,-10 1271,-30 1291,-30 1291,-10 1271,-10"/>
<text text-anchor="start" x="1294.63" y="-15.4" font-family="Times-12" font-size="14.00"> &#160;Declarations</text>
<polygon fill="#8dd3c7" stroke="transparent" points="1384,-10 1384,-30 1404,-30 1404,-10 1384,-10"/>
<text text-anchor="start" x="1407.73" y="-15.4" font-family="Times-12" font-size="14.00"> &#160;Module</text>
<polygon fill="#80b1d3" stroke="transparent" points="1470,-10 1470,-30 1490,-30 1490,-10 1470,-10"/>
<text text-anchor="start" x="1493.78" y="-15.4" font-family="Times-12" font-size="14.00"> &#160;Bootstrap</text>
<polygon fill="#fdb462" stroke="transparent" points="1567,-10 1567,-30 1587,-30 1587,-10 1567,-10"/>
<text text-anchor="start" x="1590.67" y="-15.4" font-family="Times-12" font-size="14.00"> &#160;Providers</text>
<polygon fill="#fb8072" stroke="transparent" points="1663,-10 1663,-30 1683,-30 1683,-10 1663,-10"/>
<text text-anchor="start" x="1686.73" y="-15.4" font-family="Times-12" font-size="14.00"> &#160;Exports</text>
<g id="clust1" class="cluster">
<title>cluster_GruposModule</title>
<polygon fill="none" stroke="black" stroke-dasharray="1,5" points="8,-70 8,-195 3002,-195 3002,-70 8,-70"/>
</g>
<g id="clust2" class="cluster">
<title>cluster_GruposModule_declarations</title>
<polygon fill="none" stroke="black" points="2695,-78 2695,-130 2994,-130 2994,-78 2695,-78"/>
</g>
<g id="clust5" class="cluster">
<title>cluster_GruposModule_imports</title>
<polygon fill="none" stroke="black" points="16,-78 16,-130 2687,-130 2687,-78 16,-78"/>
</g>
<!-- GrupoComponent -->
<g id="node1" class="node">
<title>GrupoComponent</title>
<polygon fill="#ffffb3" stroke="black" points="2985.6,-122 2868.4,-122 2868.4,-86 2985.6,-86 2985.6,-122"/>
<text text-anchor="middle" x="2927" y="-99.8" font-family="Times,serif" font-size="14.00">GrupoComponent</text>
</g>
<!-- GruposModule -->
<g id="node3" class="node">
<title>GruposModule</title>
<polygon fill="#8dd3c7" stroke="black" points="1627.26,-187 1624.26,-191 1603.26,-191 1600.26,-187 1526.74,-187 1526.74,-151 1627.26,-151 1627.26,-187"/>
<text text-anchor="middle" x="1577" y="-164.8" font-family="Times,serif" font-size="14.00">GruposModule</text>
</g>
<!-- GrupoComponent&#45;&gt;GruposModule -->
<g id="edge1" class="edge">
<title>GrupoComponent&#45;&gt;GruposModule</title>
<path fill="none" stroke="black" d="M2927,-122.15C2927,-145.76 2927,-184 2927,-184 2927,-184 1637.46,-184 1637.46,-184"/>
<polygon fill="black" stroke="black" points="1637.46,-180.5 1627.46,-184 1637.46,-187.5 1637.46,-180.5"/>
</g>
<!-- GrupoFormComponent -->
<g id="node2" class="node">
<title>GrupoFormComponent</title>
<polygon fill="#ffffb3" stroke="black" points="2850.93,-122 2703.07,-122 2703.07,-86 2850.93,-86 2850.93,-122"/>
<text text-anchor="middle" x="2777" y="-99.8" font-family="Times,serif" font-size="14.00">GrupoFormComponent</text>
</g>
<!-- GrupoFormComponent&#45;&gt;GruposModule -->
<g id="edge2" class="edge">
<title>GrupoFormComponent&#45;&gt;GruposModule</title>
<path fill="none" stroke="black" d="M2777,-122.01C2777,-144.49 2777,-180 2777,-180 2777,-180 1637.41,-180 1637.41,-180"/>
<polygon fill="black" stroke="black" points="1637.41,-176.5 1627.41,-180 1637.41,-183.5 1637.41,-176.5"/>
</g>
<!-- AsyncPipe -->
<g id="node4" class="node">
<title>AsyncPipe</title>
<polygon fill="#8dd3c7" stroke="black" points="2679.15,-122 2676.15,-126 2655.15,-126 2652.15,-122 2602.85,-122 2602.85,-86 2679.15,-86 2679.15,-122"/>
<text text-anchor="middle" x="2641" y="-99.8" font-family="Times,serif" font-size="14.00">AsyncPipe</text>
</g>
<!-- AsyncPipe&#45;&gt;GruposModule -->
<g id="edge3" class="edge">
<title>AsyncPipe&#45;&gt;GruposModule</title>
<path fill="none" stroke="black" d="M2641,-122.04C2641,-143.66 2641,-177 2641,-177 2641,-177 1637.6,-177 1637.6,-177"/>
<polygon fill="black" stroke="black" points="1637.6,-173.5 1627.6,-177 1637.6,-180.5 1637.6,-173.5"/>
</g>
<!-- ReactiveFormsModule -->
<g id="node5" class="node">
<title>ReactiveFormsModule</title>
<polygon fill="#8dd3c7" stroke="black" points="2585.3,-122 2582.3,-126 2561.3,-126 2558.3,-122 2440.7,-122 2440.7,-86 2585.3,-86 2585.3,-122"/>
<text text-anchor="middle" x="2513" y="-99.8" font-family="Times,serif" font-size="14.00">ReactiveFormsModule</text>
</g>
<!-- ReactiveFormsModule&#45;&gt;GruposModule -->
<g id="edge4" class="edge">
<title>ReactiveFormsModule&#45;&gt;GruposModule</title>
<path fill="none" stroke="black" d="M2513,-122.13C2513,-142.57 2513,-173 2513,-173 2513,-173 1637.32,-173 1637.32,-173"/>
<polygon fill="black" stroke="black" points="1637.32,-169.5 1627.32,-173 1637.32,-176.5 1637.32,-169.5"/>
</g>
<!-- GruposRoutingModule -->
<g id="node6" class="node">
<title>GruposRoutingModule</title>
<polygon fill="#8dd3c7" stroke="black" points="2422.88,-122 2419.88,-126 2398.88,-126 2395.88,-122 2277.12,-122 2277.12,-86 2422.88,-86 2422.88,-122"/>
<text text-anchor="middle" x="2350" y="-99.8" font-family="Times,serif" font-size="14.00">GruposRoutingModule</text>
</g>
<!-- GruposRoutingModule&#45;&gt;GruposModule -->
<g id="edge5" class="edge">
<title>GruposRoutingModule&#45;&gt;GruposModule</title>
<path fill="none" stroke="black" d="M2350,-122.11C2350,-141.34 2350,-169 2350,-169 2350,-169 1637.42,-169 1637.42,-169"/>
<polygon fill="black" stroke="black" points="1637.42,-165.5 1627.42,-169 1637.42,-172.5 1637.42,-165.5"/>
</g>
<!-- MatListModule -->
<g id="node7" class="node">
<title>MatListModule</title>
<polygon fill="#8dd3c7" stroke="black" points="2258.88,-122 2255.88,-126 2234.88,-126 2231.88,-122 2155.12,-122 2155.12,-86 2258.88,-86 2258.88,-122"/>
<text text-anchor="middle" x="2207" y="-99.8" font-family="Times,serif" font-size="14.00">MatListModule</text>
</g>
<!-- MatListModule&#45;&gt;GruposModule -->
<g id="edge6" class="edge">
<title>MatListModule&#45;&gt;GruposModule</title>
<path fill="none" stroke="black" d="M2207,-122.27C2207,-140.56 2207,-166 2207,-166 2207,-166 1637.49,-166 1637.49,-166"/>
<polygon fill="black" stroke="black" points="1637.49,-162.5 1627.49,-166 1637.49,-169.5 1637.49,-162.5"/>
</g>
<!-- MatButtonModule -->
<g id="node8" class="node">
<title>MatButtonModule</title>
<polygon fill="#8dd3c7" stroke="black" points="2137.22,-122 2134.22,-126 2113.22,-126 2110.22,-122 2016.78,-122 2016.78,-86 2137.22,-86 2137.22,-122"/>
<text text-anchor="middle" x="2077" y="-99.8" font-family="Times,serif" font-size="14.00">MatButtonModule</text>
</g>
<!-- MatButtonModule&#45;&gt;GruposModule -->
<g id="edge7" class="edge">
<title>MatButtonModule&#45;&gt;GruposModule</title>
<path fill="none" stroke="black" d="M2077,-122.03C2077,-139.06 2077,-162 2077,-162 2077,-162 1637.69,-162 1637.69,-162"/>
<polygon fill="black" stroke="black" points="1637.69,-158.5 1627.69,-162 1637.69,-165.5 1637.69,-158.5"/>
</g>
<!-- MatDividerModule -->
<g id="node9" class="node">
<title>MatDividerModule</title>
<polygon fill="#8dd3c7" stroke="black" points="1998.36,-122 1995.36,-126 1974.36,-126 1971.36,-122 1873.64,-122 1873.64,-86 1998.36,-86 1998.36,-122"/>
<text text-anchor="middle" x="1936" y="-99.8" font-family="Times,serif" font-size="14.00">MatDividerModule</text>
</g>
<!-- MatDividerModule&#45;&gt;GruposModule -->
<g id="edge8" class="edge">
<title>MatDividerModule&#45;&gt;GruposModule</title>
<path fill="none" stroke="black" d="M1936,-122.01C1936,-138.05 1936,-159 1936,-159 1936,-159 1637.3,-159 1637.3,-159"/>
<polygon fill="black" stroke="black" points="1637.3,-155.5 1627.3,-159 1637.3,-162.5 1637.3,-155.5"/>
</g>
<!-- MatFormFieldModule -->
<g id="node10" class="node">
<title>MatFormFieldModule</title>
<polygon fill="#8dd3c7" stroke="black" points="1855.71,-122 1852.71,-126 1831.71,-126 1828.71,-122 1714.29,-122 1714.29,-86 1855.71,-86 1855.71,-122"/>
<text text-anchor="middle" x="1785" y="-99.8" font-family="Times,serif" font-size="14.00">MatFormFieldModule</text>
</g>
<!-- MatFormFieldModule&#45;&gt;GruposModule -->
<g id="edge9" class="edge">
<title>MatFormFieldModule&#45;&gt;GruposModule</title>
<path fill="none" stroke="black" d="M1785,-122.12C1785,-136.78 1785,-155 1785,-155 1785,-155 1637.35,-155 1637.35,-155"/>
<polygon fill="black" stroke="black" points="1637.35,-151.5 1627.35,-155 1637.35,-158.5 1637.35,-151.5"/>
</g>
<!-- MatInputModule -->
<g id="node11" class="node">
<title>MatInputModule</title>
<polygon fill="#8dd3c7" stroke="black" points="1696.65,-122 1693.65,-126 1672.65,-126 1669.65,-122 1585.35,-122 1585.35,-86 1696.65,-86 1696.65,-122"/>
<text text-anchor="middle" x="1641" y="-99.8" font-family="Times,serif" font-size="14.00">MatInputModule</text>
</g>
<!-- MatInputModule&#45;&gt;GruposModule -->
<g id="edge10" class="edge">
<title>MatInputModule&#45;&gt;GruposModule</title>
<path fill="none" stroke="black" d="M1606.28,-122.11C1606.28,-122.11 1606.28,-140.99 1606.28,-140.99"/>
<polygon fill="black" stroke="black" points="1602.78,-140.99 1606.28,-150.99 1609.78,-140.99 1602.78,-140.99"/>
</g>
<!-- MatIconModule -->
<g id="node12" class="node">
<title>MatIconModule</title>
<polygon fill="#8dd3c7" stroke="black" points="1567.47,-122 1564.47,-126 1543.47,-126 1540.47,-122 1460.53,-122 1460.53,-86 1567.47,-86 1567.47,-122"/>
<text text-anchor="middle" x="1514" y="-99.8" font-family="Times,serif" font-size="14.00">MatIconModule</text>
</g>
<!-- MatIconModule&#45;&gt;GruposModule -->
<g id="edge11" class="edge">
<title>MatIconModule&#45;&gt;GruposModule</title>
<path fill="none" stroke="black" d="M1547.05,-122.11C1547.05,-122.11 1547.05,-140.99 1547.05,-140.99"/>
<polygon fill="black" stroke="black" points="1543.55,-140.99 1547.05,-150.99 1550.55,-140.99 1543.55,-140.99"/>
</g>
<!-- MatSlideToggleModule -->
<g id="node13" class="node">
<title>MatSlideToggleModule</title>
<polygon fill="#8dd3c7" stroke="black" points="1442.04,-122 1439.04,-126 1418.04,-126 1415.04,-122 1291.96,-122 1291.96,-86 1442.04,-86 1442.04,-122"/>
<text text-anchor="middle" x="1367" y="-99.8" font-family="Times,serif" font-size="14.00">MatSlideToggleModule</text>
</g>
<!-- MatSlideToggleModule&#45;&gt;GruposModule -->
<g id="edge12" class="edge">
<title>MatSlideToggleModule&#45;&gt;GruposModule</title>
<path fill="none" stroke="black" d="M1367,-122.12C1367,-136.78 1367,-155 1367,-155 1367,-155 1516.7,-155 1516.7,-155"/>
<polygon fill="black" stroke="black" points="1516.7,-158.5 1526.7,-155 1516.7,-151.5 1516.7,-158.5"/>
</g>
<!-- MatSnackBarModule -->
<g id="node14" class="node">
<title>MatSnackBarModule</title>
<polygon fill="#8dd3c7" stroke="black" points="1273.02,-122 1270.02,-126 1249.02,-126 1246.02,-122 1136.98,-122 1136.98,-86 1273.02,-86 1273.02,-122"/>
<text text-anchor="middle" x="1205" y="-99.8" font-family="Times,serif" font-size="14.00">MatSnackBarModule</text>
</g>
<!-- MatSnackBarModule&#45;&gt;GruposModule -->
<g id="edge13" class="edge">
<title>MatSnackBarModule&#45;&gt;GruposModule</title>
<path fill="none" stroke="black" d="M1205,-122.01C1205,-138.05 1205,-159 1205,-159 1205,-159 1516.44,-159 1516.44,-159"/>
<polygon fill="black" stroke="black" points="1516.44,-162.5 1526.44,-159 1516.44,-155.5 1516.44,-162.5"/>
</g>
<!-- NgxColorsModule -->
<g id="node15" class="node">
<title>NgxColorsModule</title>
<polygon fill="#8dd3c7" stroke="black" points="1118.49,-122 1115.49,-126 1094.49,-126 1091.49,-122 997.51,-122 997.51,-86 1118.49,-86 1118.49,-122"/>
<text text-anchor="middle" x="1058" y="-99.8" font-family="Times,serif" font-size="14.00">NgxColorsModule</text>
</g>
<!-- NgxColorsModule&#45;&gt;GruposModule -->
<g id="edge14" class="edge">
<title>NgxColorsModule&#45;&gt;GruposModule</title>
<path fill="none" stroke="black" d="M1058,-122.03C1058,-139.06 1058,-162 1058,-162 1058,-162 1516.29,-162 1516.29,-162"/>
<polygon fill="black" stroke="black" points="1516.29,-165.5 1526.29,-162 1516.29,-158.5 1516.29,-165.5"/>
</g>
<!-- CorBoardaDirective -->
<g id="node16" class="node">
<title>CorBoardaDirective</title>
<polygon fill="#8dd3c7" stroke="black" points="979.51,-122 976.51,-126 955.51,-126 952.51,-122 850.49,-122 850.49,-86 979.51,-86 979.51,-122"/>
<text text-anchor="middle" x="915" y="-99.8" font-family="Times,serif" font-size="14.00">CorBoardaDirective</text>
</g>
<!-- CorBoardaDirective&#45;&gt;GruposModule -->
<g id="edge15" class="edge">
<title>CorBoardaDirective&#45;&gt;GruposModule</title>
<path fill="none" stroke="black" d="M915,-122.27C915,-140.56 915,-166 915,-166 915,-166 1516.7,-166 1516.7,-166"/>
<polygon fill="black" stroke="black" points="1516.7,-169.5 1526.7,-166 1516.7,-162.5 1516.7,-169.5"/>
</g>
<!-- GrupoPrincipalDirective -->
<g id="node17" class="node">
<title>GrupoPrincipalDirective</title>
<polygon fill="#8dd3c7" stroke="black" points="832.39,-122 829.39,-126 808.39,-126 805.39,-122 677.61,-122 677.61,-86 832.39,-86 832.39,-122"/>
<text text-anchor="middle" x="755" y="-99.8" font-family="Times,serif" font-size="14.00">GrupoPrincipalDirective</text>
</g>
<!-- GrupoPrincipalDirective&#45;&gt;GruposModule -->
<g id="edge16" class="edge">
<title>GrupoPrincipalDirective&#45;&gt;GruposModule</title>
<path fill="none" stroke="black" d="M755,-122.11C755,-141.34 755,-169 755,-169 755,-169 1516.51,-169 1516.51,-169"/>
<polygon fill="black" stroke="black" points="1516.51,-172.5 1526.51,-169 1516.51,-165.5 1516.51,-172.5"/>
</g>
<!-- LongPressDirective -->
<g id="node18" class="node">
<title>LongPressDirective</title>
<polygon fill="#8dd3c7" stroke="black" points="659.68,-122 656.68,-126 635.68,-126 632.68,-122 532.32,-122 532.32,-86 659.68,-86 659.68,-122"/>
<text text-anchor="middle" x="596" y="-99.8" font-family="Times,serif" font-size="14.00">LongPressDirective</text>
</g>
<!-- LongPressDirective&#45;&gt;GruposModule -->
<g id="edge17" class="edge">
<title>LongPressDirective&#45;&gt;GruposModule</title>
<path fill="none" stroke="black" d="M596,-122.13C596,-142.57 596,-173 596,-173 596,-173 1516.66,-173 1516.66,-173"/>
<polygon fill="black" stroke="black" points="1516.66,-176.5 1526.66,-173 1516.66,-169.5 1516.66,-176.5"/>
</g>
<!-- AmsDialogModule -->
<g id="node19" class="node">
<title>AmsDialogModule</title>
<polygon fill="#8dd3c7" stroke="black" points="514.09,-122 511.09,-126 490.09,-126 487.09,-122 389.91,-122 389.91,-86 514.09,-86 514.09,-122"/>
<text text-anchor="middle" x="452" y="-99.8" font-family="Times,serif" font-size="14.00">AmsDialogModule</text>
</g>
<!-- AmsDialogModule&#45;&gt;GruposModule -->
<g id="edge18" class="edge">
<title>AmsDialogModule&#45;&gt;GruposModule</title>
<path fill="none" stroke="black" d="M452,-122.04C452,-143.66 452,-177 452,-177 452,-177 1516.48,-177 1516.48,-177"/>
<polygon fill="black" stroke="black" points="1516.48,-180.5 1526.48,-177 1516.48,-173.5 1516.48,-180.5"/>
</g>
<!-- CentralContainerComponent -->
<g id="node20" class="node">
<title>CentralContainerComponent</title>
<polygon fill="#8dd3c7" stroke="black" points="371.75,-122 368.75,-126 347.75,-126 344.75,-122 194.25,-122 194.25,-86 371.75,-86 371.75,-122"/>
<text text-anchor="middle" x="283" y="-99.8" font-family="Times,serif" font-size="14.00">CentralContainerComponent</text>
</g>
<!-- CentralContainerComponent&#45;&gt;GruposModule -->
<g id="edge19" class="edge">
<title>CentralContainerComponent&#45;&gt;GruposModule</title>
<path fill="none" stroke="black" d="M283,-122.01C283,-144.49 283,-180 283,-180 283,-180 1516.67,-180 1516.67,-180"/>
<polygon fill="black" stroke="black" points="1516.67,-183.5 1526.67,-180 1516.67,-176.5 1516.67,-183.5"/>
</g>
<!-- CentralFormComponent -->
<g id="node21" class="node">
<title>CentralFormComponent</title>
<polygon fill="#8dd3c7" stroke="black" points="176.37,-122 173.37,-126 152.37,-126 149.37,-122 23.63,-122 23.63,-86 176.37,-86 176.37,-122"/>
<text text-anchor="middle" x="100" y="-99.8" font-family="Times,serif" font-size="14.00">CentralFormComponent</text>
</g>
<!-- CentralFormComponent&#45;&gt;GruposModule -->
<g id="edge20" class="edge">
<title>CentralFormComponent&#45;&gt;GruposModule</title>
<path fill="none" stroke="black" d="M100,-122.15C100,-145.76 100,-184 100,-184 100,-184 1516.59,-184 1516.59,-184"/>
<polygon fill="black" stroke="black" points="1516.59,-187.5 1526.59,-184 1516.59,-180.5 1516.59,-187.5"/>
</g>
</g>
</svg>
