<?xml version="1.0" encoding="UTF-8" standalone="no"?>
<!DOCTYPE svg PUBLIC "-//W3C//DTD SVG 1.1//EN"
 "http://www.w3.org/Graphics/SVG/1.1/DTD/svg11.dtd">
<!-- Generated by graphviz version 2.47.0 (20210316.0004)
 -->
<!-- Title: dependencies Pages: 1 -->
<svg width="1084pt" height="211pt"
 viewBox="0.00 0.00 1084.00 211.00" xmlns="http://www.w3.org/2000/svg" xmlns:xlink="http://www.w3.org/1999/xlink">
<g id="graph0" class="graph" transform="scale(1 1) rotate(0) translate(4 207)">
<title>dependencies</title>
<polygon fill="white" stroke="transparent" points="-4,4 -4,-207 1080,-207 1080,4 -4,4"/>
<text text-anchor="start" x="517.01" y="-42.4" font-family="Times-12" font-weight="bold" font-size="14.00">Legend</text>
<polygon fill="#ffffb3" stroke="transparent" points="304,-10 304,-30 324,-30 324,-10 304,-10"/>
<text text-anchor="start" x="327.63" y="-15.4" font-family="Times-12" font-size="14.00"> &#160;Declarations</text>
<polygon fill="#8dd3c7" stroke="transparent" points="417,-10 417,-30 437,-30 437,-10 417,-10"/>
<text text-anchor="start" x="440.73" y="-15.4" font-family="Times-12" font-size="14.00"> &#160;Module</text>
<polygon fill="#80b1d3" stroke="transparent" points="503,-10 503,-30 523,-30 523,-10 503,-10"/>
<text text-anchor="start" x="526.78" y="-15.4" font-family="Times-12" font-size="14.00"> &#160;Bootstrap</text>
<polygon fill="#fdb462" stroke="transparent" points="600,-10 600,-30 620,-30 620,-10 600,-10"/>
<text text-anchor="start" x="623.67" y="-15.4" font-family="Times-12" font-size="14.00"> &#160;Providers</text>
<polygon fill="#fb8072" stroke="transparent" points="696,-10 696,-30 716,-30 716,-10 696,-10"/>
<text text-anchor="start" x="719.73" y="-15.4" font-family="Times-12" font-size="14.00"> &#160;Exports</text>
<g id="clust1" class="cluster">
<title>cluster_GruposModule</title>
<polygon fill="none" stroke="black" stroke-dasharray="1,5" points="8,-70 8,-195 1068,-195 1068,-70 8,-70"/>
</g>
<g id="clust2" class="cluster">
<title>cluster_GruposModule_declarations</title>
<polygon fill="none" stroke="black" points="761,-78 761,-130 1060,-130 1060,-78 761,-78"/>
</g>
<g id="clust5" class="cluster">
<title>cluster_GruposModule_imports</title>
<polygon fill="none" stroke="black" points="16,-78 16,-130 753,-130 753,-78 16,-78"/>
</g>
<!-- GrupoComponent -->
<g id="node1" class="node">
<title>GrupoComponent</title>
<polygon fill="#ffffb3" stroke="black" points="1051.6,-122 934.4,-122 934.4,-86 1051.6,-86 1051.6,-122"/>
<text text-anchor="middle" x="993" y="-99.8" font-family="Times,serif" font-size="14.00">GrupoComponent</text>
</g>
<!-- GruposModule -->
<g id="node3" class="node">
<title>GruposModule</title>
<polygon fill="#8dd3c7" stroke="black" points="582.26,-187 579.26,-191 558.26,-191 555.26,-187 481.74,-187 481.74,-151 582.26,-151 582.26,-187"/>
<text text-anchor="middle" x="532" y="-164.8" font-family="Times,serif" font-size="14.00">GruposModule</text>
</g>
<!-- GrupoComponent&#45;&gt;GruposModule -->
<g id="edge1" class="edge">
<title>GrupoComponent&#45;&gt;GruposModule</title>
<path fill="none" stroke="black" d="M993,-122.29C993,-144.21 993,-178 993,-178 993,-178 592.65,-178 592.65,-178"/>
<polygon fill="black" stroke="black" points="592.65,-174.5 582.65,-178 592.65,-181.5 592.65,-174.5"/>
</g>
<!-- GrupoFormComponent -->
<g id="node2" class="node">
<title>GrupoFormComponent</title>
<polygon fill="#ffffb3" stroke="black" points="916.93,-122 769.07,-122 769.07,-86 916.93,-86 916.93,-122"/>
<text text-anchor="middle" x="843" y="-99.8" font-family="Times,serif" font-size="14.00">GrupoFormComponent</text>
</g>
<!-- GrupoFormComponent&#45;&gt;GruposModule -->
<g id="edge2" class="edge">
<title>GrupoFormComponent&#45;&gt;GruposModule</title>
<path fill="none" stroke="black" d="M843,-122.11C843,-141.34 843,-169 843,-169 843,-169 592.31,-169 592.31,-169"/>
<polygon fill="black" stroke="black" points="592.31,-165.5 582.31,-169 592.31,-172.5 592.31,-165.5"/>
</g>
<!-- GruposRoutingModule -->
<g id="node4" class="node">
<title>GruposRoutingModule</title>
<polygon fill="#8dd3c7" stroke="black" points="744.88,-122 741.88,-126 720.88,-126 717.88,-122 599.12,-122 599.12,-86 744.88,-86 744.88,-122"/>
<text text-anchor="middle" x="672" y="-99.8" font-family="Times,serif" font-size="14.00">GruposRoutingModule</text>
</g>
<!-- GruposRoutingModule&#45;&gt;GruposModule -->
<g id="edge3" class="edge">
<title>GruposRoutingModule&#45;&gt;GruposModule</title>
<path fill="none" stroke="black" d="M672,-122.03C672,-138.4 672,-160 672,-160 672,-160 592.54,-160 592.54,-160"/>
<polygon fill="black" stroke="black" points="592.54,-156.5 582.54,-160 592.54,-163.5 592.54,-156.5"/>
</g>
<!-- SharedModule -->
<g id="node5" class="node">
<title>SharedModule</title>
<polygon fill="#8dd3c7" stroke="black" points="581.42,-122 578.42,-126 557.42,-126 554.42,-122 482.58,-122 482.58,-86 581.42,-86 581.42,-122"/>
<text text-anchor="middle" x="532" y="-99.8" font-family="Times,serif" font-size="14.00">SharedModule</text>
</g>
<!-- SharedModule&#45;&gt;GruposModule -->
<g id="edge4" class="edge">
<title>SharedModule&#45;&gt;GruposModule</title>
<path fill="none" stroke="black" d="M532,-122.11C532,-122.11 532,-140.99 532,-140.99"/>
<polygon fill="black" stroke="black" points="528.5,-140.99 532,-150.99 535.5,-140.99 528.5,-140.99"/>
</g>
<!-- NgxColorsModule -->
<g id="node6" class="node">
<title>NgxColorsModule</title>
<polygon fill="#8dd3c7" stroke="black" points="464.49,-122 461.49,-126 440.49,-126 437.49,-122 343.51,-122 343.51,-86 464.49,-86 464.49,-122"/>
<text text-anchor="middle" x="404" y="-99.8" font-family="Times,serif" font-size="14.00">NgxColorsModule</text>
</g>
<!-- NgxColorsModule&#45;&gt;GruposModule -->
<g id="edge5" class="edge">
<title>NgxColorsModule&#45;&gt;GruposModule</title>
<path fill="none" stroke="black" d="M404,-122.03C404,-138.4 404,-160 404,-160 404,-160 471.41,-160 471.41,-160"/>
<polygon fill="black" stroke="black" points="471.41,-163.5 481.41,-160 471.41,-156.5 471.41,-163.5"/>
</g>
<!-- CorBoardaDirective -->
<g id="node7" class="node">
<title>CorBoardaDirective</title>
<polygon fill="#8dd3c7" stroke="black" points="325.51,-122 322.51,-126 301.51,-126 298.51,-122 196.49,-122 196.49,-86 325.51,-86 325.51,-122"/>
<text text-anchor="middle" x="261" y="-99.8" font-family="Times,serif" font-size="14.00">CorBoardaDirective</text>
</g>
<!-- CorBoardaDirective&#45;&gt;GruposModule -->
<g id="edge6" class="edge">
<title>CorBoardaDirective&#45;&gt;GruposModule</title>
<path fill="none" stroke="black" d="M261,-122.11C261,-141.34 261,-169 261,-169 261,-169 471.66,-169 471.66,-169"/>
<polygon fill="black" stroke="black" points="471.66,-172.5 481.66,-169 471.66,-165.5 471.66,-172.5"/>
</g>
<!-- GrupoPrincipalDirective -->
<g id="node8" class="node">
<title>GrupoPrincipalDirective</title>
<polygon fill="#8dd3c7" stroke="black" points="178.39,-122 175.39,-126 154.39,-126 151.39,-122 23.61,-122 23.61,-86 178.39,-86 178.39,-122"/>
<text text-anchor="middle" x="101" y="-99.8" font-family="Times,serif" font-size="14.00">GrupoPrincipalDirective</text>
</g>
<!-- GrupoPrincipalDirective&#45;&gt;GruposModule -->
<g id="edge7" class="edge">
<title>GrupoPrincipalDirective&#45;&gt;GruposModule</title>
<path fill="none" stroke="black" d="M101,-122.29C101,-144.21 101,-178 101,-178 101,-178 471.72,-178 471.72,-178"/>
<polygon fill="black" stroke="black" points="471.72,-181.5 481.72,-178 471.72,-174.5 471.72,-181.5"/>
</g>
</g>
</svg>
