<?xml version="1.0" encoding="UTF-8" standalone="no"?>
<!DOCTYPE svg PUBLIC "-//W3C//DTD SVG 1.1//EN"
 "http://www.w3.org/Graphics/SVG/1.1/DTD/svg11.dtd">
<!-- Generated by graphviz version 2.47.0 (20210316.0004)
 -->
<!-- Title: dependencies Pages: 1 -->
<svg width="3452pt" height="211pt"
 viewBox="0.00 0.00 3452.00 211.00" xmlns="http://www.w3.org/2000/svg" xmlns:xlink="http://www.w3.org/1999/xlink">
<g id="graph0" class="graph" transform="scale(1 1) rotate(0) translate(4 207)">
<title>dependencies</title>
<polygon fill="white" stroke="transparent" points="-4,4 -4,-207 3448,-207 3448,4 -4,4"/>
<text text-anchor="start" x="1701.01" y="-42.4" font-family="Times-12" font-weight="bold" font-size="14.00">Legend</text>
<polygon fill="#ffffb3" stroke="transparent" points="1488,-10 1488,-30 1508,-30 1508,-10 1488,-10"/>
<text text-anchor="start" x="1511.63" y="-15.4" font-family="Times-12" font-size="14.00"> &#160;Declarations</text>
<polygon fill="#8dd3c7" stroke="transparent" points="1601,-10 1601,-30 1621,-30 1621,-10 1601,-10"/>
<text text-anchor="start" x="1624.73" y="-15.4" font-family="Times-12" font-size="14.00"> &#160;Module</text>
<polygon fill="#80b1d3" stroke="transparent" points="1687,-10 1687,-30 1707,-30 1707,-10 1687,-10"/>
<text text-anchor="start" x="1710.78" y="-15.4" font-family="Times-12" font-size="14.00"> &#160;Bootstrap</text>
<polygon fill="#fdb462" stroke="transparent" points="1784,-10 1784,-30 1804,-30 1804,-10 1784,-10"/>
<text text-anchor="start" x="1807.67" y="-15.4" font-family="Times-12" font-size="14.00"> &#160;Providers</text>
<polygon fill="#fb8072" stroke="transparent" points="1880,-10 1880,-30 1900,-30 1900,-10 1880,-10"/>
<text text-anchor="start" x="1903.73" y="-15.4" font-family="Times-12" font-size="14.00"> &#160;Exports</text>
<g id="clust1" class="cluster">
<title>cluster_MarmitasModule</title>
<polygon fill="none" stroke="black" stroke-dasharray="1,5" points="8,-70 8,-195 3436,-195 3436,-70 8,-70"/>
</g>
<g id="clust2" class="cluster">
<title>cluster_MarmitasModule_declarations</title>
<polygon fill="none" stroke="black" points="2915,-78 2915,-130 3428,-130 3428,-78 2915,-78"/>
</g>
<g id="clust6" class="cluster">
<title>cluster_MarmitasModule_imports</title>
<polygon fill="none" stroke="black" points="726,-78 726,-130 2907,-130 2907,-78 726,-78"/>
</g>
<g id="clust9" class="cluster">
<title>cluster_MarmitasModule_providers</title>
<polygon fill="none" stroke="black" points="16,-78 16,-130 718,-130 718,-78 16,-78"/>
</g>
<!-- MarmitasComponent -->
<g id="node1" class="node">
<title>MarmitasComponent</title>
<polygon fill="#ffffb3" stroke="black" points="3420.48,-122 3285.52,-122 3285.52,-86 3420.48,-86 3420.48,-122"/>
<text text-anchor="middle" x="3353" y="-99.8" font-family="Times,serif" font-size="14.00">MarmitasComponent</text>
</g>
<!-- MarmitasModule -->
<g id="node4" class="node">
<title>MarmitasModule</title>
<polygon fill="#8dd3c7" stroke="black" points="2010.7,-187 2007.7,-191 1986.7,-191 1983.7,-187 1897.3,-187 1897.3,-151 2010.7,-151 2010.7,-187"/>
<text text-anchor="middle" x="1954" y="-164.8" font-family="Times,serif" font-size="14.00">MarmitasModule</text>
</g>
<!-- MarmitasComponent&#45;&gt;MarmitasModule -->
<g id="edge1" class="edge">
<title>MarmitasComponent&#45;&gt;MarmitasModule</title>
<path fill="none" stroke="black" d="M3353,-122.15C3353,-145.76 3353,-184 3353,-184 3353,-184 2021.01,-184 2021.01,-184"/>
<polygon fill="black" stroke="black" points="2021.01,-180.5 2011.01,-184 2021.01,-187.5 2021.01,-180.5"/>
</g>
<!-- MarmitasItemComponent -->
<g id="node2" class="node">
<title>MarmitasItemComponent</title>
<polygon fill="#ffffb3" stroke="black" points="3267.14,-122 3106.86,-122 3106.86,-86 3267.14,-86 3267.14,-122"/>
<text text-anchor="middle" x="3187" y="-99.8" font-family="Times,serif" font-size="14.00">MarmitasItemComponent</text>
</g>
<!-- MarmitasItemComponent&#45;&gt;MarmitasModule -->
<g id="edge2" class="edge">
<title>MarmitasItemComponent&#45;&gt;MarmitasModule</title>
<path fill="none" stroke="black" d="M3187,-122.01C3187,-144.49 3187,-180 3187,-180 3187,-180 2021,-180 2021,-180"/>
<polygon fill="black" stroke="black" points="2021,-176.5 2011,-180 2021,-183.5 2021,-176.5"/>
</g>
<!-- MarmitasFormComponent -->
<g id="node3" class="node">
<title>MarmitasFormComponent</title>
<polygon fill="#ffffb3" stroke="black" points="3088.82,-122 2923.18,-122 2923.18,-86 3088.82,-86 3088.82,-122"/>
<text text-anchor="middle" x="3006" y="-99.8" font-family="Times,serif" font-size="14.00">MarmitasFormComponent</text>
</g>
<!-- MarmitasFormComponent&#45;&gt;MarmitasModule -->
<g id="edge3" class="edge">
<title>MarmitasFormComponent&#45;&gt;MarmitasModule</title>
<path fill="none" stroke="black" d="M3006,-122.04C3006,-143.66 3006,-177 3006,-177 3006,-177 2020.93,-177 2020.93,-177"/>
<polygon fill="black" stroke="black" points="2020.93,-173.5 2010.93,-177 2020.93,-180.5 2020.93,-173.5"/>
</g>
<!-- AsyncPipe -->
<g id="node5" class="node">
<title>AsyncPipe</title>
<polygon fill="#8dd3c7" stroke="black" points="2899.15,-122 2896.15,-126 2875.15,-126 2872.15,-122 2822.85,-122 2822.85,-86 2899.15,-86 2899.15,-122"/>
<text text-anchor="middle" x="2861" y="-99.8" font-family="Times,serif" font-size="14.00">AsyncPipe</text>
</g>
<!-- AsyncPipe&#45;&gt;MarmitasModule -->
<g id="edge4" class="edge">
<title>AsyncPipe&#45;&gt;MarmitasModule</title>
<path fill="none" stroke="black" d="M2861,-122.13C2861,-142.57 2861,-173 2861,-173 2861,-173 2020.74,-173 2020.74,-173"/>
<polygon fill="black" stroke="black" points="2020.74,-169.5 2010.74,-173 2020.74,-176.5 2020.74,-169.5"/>
</g>
<!-- DatePipe -->
<g id="node6" class="node">
<title>DatePipe</title>
<polygon fill="#8dd3c7" stroke="black" points="2804.81,-122 2801.81,-126 2780.81,-126 2777.81,-122 2737.19,-122 2737.19,-86 2804.81,-86 2804.81,-122"/>
<text text-anchor="middle" x="2771" y="-99.8" font-family="Times,serif" font-size="14.00">DatePipe</text>
</g>
<!-- DatePipe&#45;&gt;MarmitasModule -->
<g id="edge5" class="edge">
<title>DatePipe&#45;&gt;MarmitasModule</title>
<path fill="none" stroke="black" d="M2771,-122.11C2771,-141.34 2771,-169 2771,-169 2771,-169 2020.8,-169 2020.8,-169"/>
<polygon fill="black" stroke="black" points="2020.8,-165.5 2010.8,-169 2020.8,-172.5 2020.8,-165.5"/>
</g>
<!-- ReactiveFormsModule -->
<g id="node7" class="node">
<title>ReactiveFormsModule</title>
<polygon fill="#8dd3c7" stroke="black" points="2719.3,-122 2716.3,-126 2695.3,-126 2692.3,-122 2574.7,-122 2574.7,-86 2719.3,-86 2719.3,-122"/>
<text text-anchor="middle" x="2647" y="-99.8" font-family="Times,serif" font-size="14.00">ReactiveFormsModule</text>
</g>
<!-- ReactiveFormsModule&#45;&gt;MarmitasModule -->
<g id="edge6" class="edge">
<title>ReactiveFormsModule&#45;&gt;MarmitasModule</title>
<path fill="none" stroke="black" d="M2647,-122.27C2647,-140.56 2647,-166 2647,-166 2647,-166 2020.71,-166 2020.71,-166"/>
<polygon fill="black" stroke="black" points="2020.71,-162.5 2010.71,-166 2020.71,-169.5 2020.71,-162.5"/>
</g>
<!-- MarmitasRoutingModule -->
<g id="node8" class="node">
<title>MarmitasRoutingModule</title>
<polygon fill="#8dd3c7" stroke="black" points="2557.32,-122 2554.32,-126 2533.32,-126 2530.32,-122 2398.68,-122 2398.68,-86 2557.32,-86 2557.32,-122"/>
<text text-anchor="middle" x="2478" y="-99.8" font-family="Times,serif" font-size="14.00">MarmitasRoutingModule</text>
</g>
<!-- MarmitasRoutingModule&#45;&gt;MarmitasModule -->
<g id="edge7" class="edge">
<title>MarmitasRoutingModule&#45;&gt;MarmitasModule</title>
<path fill="none" stroke="black" d="M2478,-122.03C2478,-139.06 2478,-162 2478,-162 2478,-162 2021.07,-162 2021.07,-162"/>
<polygon fill="black" stroke="black" points="2021.07,-158.5 2011.07,-162 2021.07,-165.5 2021.07,-158.5"/>
</g>
<!-- MatBottomSheetModule -->
<g id="node9" class="node">
<title>MatBottomSheetModule</title>
<polygon fill="#8dd3c7" stroke="black" points="2380.71,-122 2377.71,-126 2356.71,-126 2353.71,-122 2225.29,-122 2225.29,-86 2380.71,-86 2380.71,-122"/>
<text text-anchor="middle" x="2303" y="-99.8" font-family="Times,serif" font-size="14.00">MatBottomSheetModule</text>
</g>
<!-- MatBottomSheetModule&#45;&gt;MarmitasModule -->
<g id="edge8" class="edge">
<title>MatBottomSheetModule&#45;&gt;MarmitasModule</title>
<path fill="none" stroke="black" d="M2303,-122.01C2303,-138.05 2303,-159 2303,-159 2303,-159 2020.85,-159 2020.85,-159"/>
<polygon fill="black" stroke="black" points="2020.85,-155.5 2010.85,-159 2020.85,-162.5 2020.85,-155.5"/>
</g>
<!-- MatCardModule -->
<g id="node10" class="node">
<title>MatCardModule</title>
<polygon fill="#8dd3c7" stroke="black" points="2207.81,-122 2204.81,-126 2183.81,-126 2180.81,-122 2098.19,-122 2098.19,-86 2207.81,-86 2207.81,-122"/>
<text text-anchor="middle" x="2153" y="-99.8" font-family="Times,serif" font-size="14.00">MatCardModule</text>
</g>
<!-- MatCardModule&#45;&gt;MarmitasModule -->
<g id="edge9" class="edge">
<title>MatCardModule&#45;&gt;MarmitasModule</title>
<path fill="none" stroke="black" d="M2153,-122.12C2153,-136.78 2153,-155 2153,-155 2153,-155 2020.76,-155 2020.76,-155"/>
<polygon fill="black" stroke="black" points="2020.76,-151.5 2010.76,-155 2020.76,-158.5 2020.76,-151.5"/>
</g>
<!-- MatButtonModule -->
<g id="node11" class="node">
<title>MatButtonModule</title>
<polygon fill="#8dd3c7" stroke="black" points="2080.22,-122 2077.22,-126 2056.22,-126 2053.22,-122 1959.78,-122 1959.78,-86 2080.22,-86 2080.22,-122"/>
<text text-anchor="middle" x="2020" y="-99.8" font-family="Times,serif" font-size="14.00">MatButtonModule</text>
</g>
<!-- MatButtonModule&#45;&gt;MarmitasModule -->
<g id="edge10" class="edge">
<title>MatButtonModule&#45;&gt;MarmitasModule</title>
<path fill="none" stroke="black" d="M1985.25,-122.11C1985.25,-122.11 1985.25,-140.99 1985.25,-140.99"/>
<polygon fill="black" stroke="black" points="1981.75,-140.99 1985.25,-150.99 1988.75,-140.99 1981.75,-140.99"/>
</g>
<!-- MatIconModule -->
<g id="node12" class="node">
<title>MatIconModule</title>
<polygon fill="#8dd3c7" stroke="black" points="1941.47,-122 1938.47,-126 1917.47,-126 1914.47,-122 1834.53,-122 1834.53,-86 1941.47,-86 1941.47,-122"/>
<text text-anchor="middle" x="1888" y="-99.8" font-family="Times,serif" font-size="14.00">MatIconModule</text>
</g>
<!-- MatIconModule&#45;&gt;MarmitasModule -->
<g id="edge11" class="edge">
<title>MatIconModule&#45;&gt;MarmitasModule</title>
<path fill="none" stroke="black" d="M1919.44,-122.11C1919.44,-122.11 1919.44,-140.99 1919.44,-140.99"/>
<polygon fill="black" stroke="black" points="1915.94,-140.99 1919.44,-150.99 1922.94,-140.99 1915.94,-140.99"/>
</g>
<!-- MatInputModule -->
<g id="node13" class="node">
<title>MatInputModule</title>
<polygon fill="#8dd3c7" stroke="black" points="1816.65,-122 1813.65,-126 1792.65,-126 1789.65,-122 1705.35,-122 1705.35,-86 1816.65,-86 1816.65,-122"/>
<text text-anchor="middle" x="1761" y="-99.8" font-family="Times,serif" font-size="14.00">MatInputModule</text>
</g>
<!-- MatInputModule&#45;&gt;MarmitasModule -->
<g id="edge12" class="edge">
<title>MatInputModule&#45;&gt;MarmitasModule</title>
<path fill="none" stroke="black" d="M1761,-122.12C1761,-136.78 1761,-155 1761,-155 1761,-155 1887.4,-155 1887.4,-155"/>
<polygon fill="black" stroke="black" points="1887.4,-158.5 1897.4,-155 1887.4,-151.5 1887.4,-158.5"/>
</g>
<!-- MatDatepickerModule -->
<g id="node14" class="node">
<title>MatDatepickerModule</title>
<polygon fill="#8dd3c7" stroke="black" points="1686.51,-122 1683.51,-126 1662.51,-126 1659.51,-122 1543.49,-122 1543.49,-86 1686.51,-86 1686.51,-122"/>
<text text-anchor="middle" x="1615" y="-99.8" font-family="Times,serif" font-size="14.00">MatDatepickerModule</text>
</g>
<!-- MatDatepickerModule&#45;&gt;MarmitasModule -->
<g id="edge13" class="edge">
<title>MatDatepickerModule&#45;&gt;MarmitasModule</title>
<path fill="none" stroke="black" d="M1615,-122.01C1615,-138.05 1615,-159 1615,-159 1615,-159 1887.26,-159 1887.26,-159"/>
<polygon fill="black" stroke="black" points="1887.26,-162.5 1897.26,-159 1887.26,-155.5 1887.26,-162.5"/>
</g>
<!-- MatFormFieldModule -->
<g id="node15" class="node">
<title>MatFormFieldModule</title>
<polygon fill="#8dd3c7" stroke="black" points="1525.71,-122 1522.71,-126 1501.71,-126 1498.71,-122 1384.29,-122 1384.29,-86 1525.71,-86 1525.71,-122"/>
<text text-anchor="middle" x="1455" y="-99.8" font-family="Times,serif" font-size="14.00">MatFormFieldModule</text>
</g>
<!-- MatFormFieldModule&#45;&gt;MarmitasModule -->
<g id="edge14" class="edge">
<title>MatFormFieldModule&#45;&gt;MarmitasModule</title>
<path fill="none" stroke="black" d="M1455,-122.03C1455,-139.06 1455,-162 1455,-162 1455,-162 1887.24,-162 1887.24,-162"/>
<polygon fill="black" stroke="black" points="1887.24,-165.5 1897.24,-162 1887.24,-158.5 1887.24,-165.5"/>
</g>
<!-- AmsDialogModule -->
<g id="node16" class="node">
<title>AmsDialogModule</title>
<polygon fill="#8dd3c7" stroke="black" points="1366.09,-122 1363.09,-126 1342.09,-126 1339.09,-122 1241.91,-122 1241.91,-86 1366.09,-86 1366.09,-122"/>
<text text-anchor="middle" x="1304" y="-99.8" font-family="Times,serif" font-size="14.00">AmsDialogModule</text>
</g>
<!-- AmsDialogModule&#45;&gt;MarmitasModule -->
<g id="edge15" class="edge">
<title>AmsDialogModule&#45;&gt;MarmitasModule</title>
<path fill="none" stroke="black" d="M1304,-122.27C1304,-140.56 1304,-166 1304,-166 1304,-166 1887.17,-166 1887.17,-166"/>
<polygon fill="black" stroke="black" points="1887.17,-169.5 1897.17,-166 1887.17,-162.5 1887.17,-169.5"/>
</g>
<!-- CentralContainerComponent -->
<g id="node17" class="node">
<title>CentralContainerComponent</title>
<polygon fill="#8dd3c7" stroke="black" points="1223.75,-122 1220.75,-126 1199.75,-126 1196.75,-122 1046.25,-122 1046.25,-86 1223.75,-86 1223.75,-122"/>
<text text-anchor="middle" x="1135" y="-99.8" font-family="Times,serif" font-size="14.00">CentralContainerComponent</text>
</g>
<!-- CentralContainerComponent&#45;&gt;MarmitasModule -->
<g id="edge16" class="edge">
<title>CentralContainerComponent&#45;&gt;MarmitasModule</title>
<path fill="none" stroke="black" d="M1135,-122.11C1135,-141.34 1135,-169 1135,-169 1135,-169 1887.38,-169 1887.38,-169"/>
<polygon fill="black" stroke="black" points="1887.38,-172.5 1897.38,-169 1887.38,-165.5 1887.38,-172.5"/>
</g>
<!-- CentralFormComponent -->
<g id="node18" class="node">
<title>CentralFormComponent</title>
<polygon fill="#8dd3c7" stroke="black" points="1028.37,-122 1025.37,-126 1004.37,-126 1001.37,-122 875.63,-122 875.63,-86 1028.37,-86 1028.37,-122"/>
<text text-anchor="middle" x="952" y="-99.8" font-family="Times,serif" font-size="14.00">CentralFormComponent</text>
</g>
<!-- CentralFormComponent&#45;&gt;MarmitasModule -->
<g id="edge17" class="edge">
<title>CentralFormComponent&#45;&gt;MarmitasModule</title>
<path fill="none" stroke="black" d="M952,-122.13C952,-142.57 952,-173 952,-173 952,-173 1887.26,-173 1887.26,-173"/>
<polygon fill="black" stroke="black" points="1887.26,-176.5 1897.26,-173 1887.26,-169.5 1887.26,-176.5"/>
</g>
<!-- ComedoresModule -->
<g id="node19" class="node">
<title>ComedoresModule</title>
<polygon fill="#8dd3c7" stroke="black" points="857.81,-122 854.81,-126 833.81,-126 830.81,-122 734.19,-122 734.19,-86 857.81,-86 857.81,-122"/>
<text text-anchor="middle" x="796" y="-99.8" font-family="Times,serif" font-size="14.00">ComedoresModule</text>
</g>
<!-- ComedoresModule&#45;&gt;MarmitasModule -->
<g id="edge18" class="edge">
<title>ComedoresModule&#45;&gt;MarmitasModule</title>
<path fill="none" stroke="black" d="M796,-122.04C796,-143.66 796,-177 796,-177 796,-177 1887.36,-177 1887.36,-177"/>
<polygon fill="black" stroke="black" points="1887.36,-180.5 1897.36,-177 1887.36,-173.5 1887.36,-180.5"/>
</g>
<!-- { provide: MAT_DATE_LOCALE, useValue: ptBR } -->
<g id="node20" class="node">
<title>{ provide: MAT_DATE_LOCALE, useValue: ptBR }</title>
<ellipse fill="#fdb462" stroke="black" cx="489" cy="-104" rx="220.82" ry="18"/>
<text text-anchor="middle" x="489" y="-99.8" font-family="Times,serif" font-size="14.00">{ provide: MAT_DATE_LOCALE, useValue: ptBR }</text>
</g>
<!-- { provide: MAT_DATE_LOCALE, useValue: ptBR }&#45;&gt;MarmitasModule -->
<g id="edge19" class="edge">
<title>{ provide: MAT_DATE_LOCALE, useValue: ptBR }&#45;&gt;MarmitasModule</title>
<path fill="none" stroke="black" d="M489,-122.01C489,-144.49 489,-180 489,-180 489,-180 1887.02,-180 1887.02,-180"/>
<polygon fill="black" stroke="black" points="1887.02,-183.5 1897.02,-180 1887.02,-176.5 1887.02,-183.5"/>
</g>
<!-- provideDateFnsAdapter.() -->
<g id="node21" class="node">
<title>provideDateFnsAdapter.()</title>
<ellipse fill="#fdb462" stroke="black" cx="137" cy="-104" rx="112.82" ry="18"/>
<text text-anchor="middle" x="137" y="-99.8" font-family="Times,serif" font-size="14.00">provideDateFnsAdapter.()</text>
</g>
<!-- provideDateFnsAdapter.()&#45;&gt;MarmitasModule -->
<g id="edge20" class="edge">
<title>provideDateFnsAdapter.()&#45;&gt;MarmitasModule</title>
<path fill="none" stroke="black" d="M137,-122.15C137,-145.76 137,-184 137,-184 137,-184 1887.38,-184 1887.38,-184"/>
<polygon fill="black" stroke="black" points="1887.38,-187.5 1897.38,-184 1887.38,-180.5 1887.38,-187.5"/>
</g>
</g>
</svg>
