<?xml version="1.0" encoding="UTF-8" standalone="no"?>
<!DOCTYPE svg PUBLIC "-//W3C//DTD SVG 1.1//EN"
 "http://www.w3.org/Graphics/SVG/1.1/DTD/svg11.dtd">
<!-- Generated by graphviz version 2.47.0 (20210316.0004)
 -->
<!-- Title: dependencies Pages: 1 -->
<svg width="1555pt" height="211pt"
 viewBox="0.00 0.00 1555.00 211.00" xmlns="http://www.w3.org/2000/svg" xmlns:xlink="http://www.w3.org/1999/xlink">
<g id="graph0" class="graph" transform="scale(1 1) rotate(0) translate(4 207)">
<title>dependencies</title>
<polygon fill="white" stroke="transparent" points="-4,4 -4,-207 1551,-207 1551,4 -4,4"/>
<text text-anchor="start" x="752.51" y="-42.4" font-family="Times-12" font-weight="bold" font-size="14.00">Legend</text>
<polygon fill="#ffffb3" stroke="transparent" points="539.5,-10 539.5,-30 559.5,-30 559.5,-10 539.5,-10"/>
<text text-anchor="start" x="563.13" y="-15.4" font-family="Times-12" font-size="14.00"> &#160;Declarations</text>
<polygon fill="#8dd3c7" stroke="transparent" points="652.5,-10 652.5,-30 672.5,-30 672.5,-10 652.5,-10"/>
<text text-anchor="start" x="676.23" y="-15.4" font-family="Times-12" font-size="14.00"> &#160;Module</text>
<polygon fill="#80b1d3" stroke="transparent" points="738.5,-10 738.5,-30 758.5,-30 758.5,-10 738.5,-10"/>
<text text-anchor="start" x="762.28" y="-15.4" font-family="Times-12" font-size="14.00"> &#160;Bootstrap</text>
<polygon fill="#fdb462" stroke="transparent" points="835.5,-10 835.5,-30 855.5,-30 855.5,-10 835.5,-10"/>
<text text-anchor="start" x="859.17" y="-15.4" font-family="Times-12" font-size="14.00"> &#160;Providers</text>
<polygon fill="#fb8072" stroke="transparent" points="931.5,-10 931.5,-30 951.5,-30 951.5,-10 931.5,-10"/>
<text text-anchor="start" x="955.23" y="-15.4" font-family="Times-12" font-size="14.00"> &#160;Exports</text>
<g id="clust1" class="cluster">
<title>cluster_RelatorioModule</title>
<polygon fill="none" stroke="black" stroke-dasharray="1,5" points="8,-70 8,-195 1539,-195 1539,-70 8,-70"/>
</g>
<g id="clust2" class="cluster">
<title>cluster_RelatorioModule_declarations</title>
<polygon fill="none" stroke="black" points="989,-78 989,-130 1531,-130 1531,-78 989,-78"/>
</g>
<g id="clust6" class="cluster">
<title>cluster_RelatorioModule_imports</title>
<polygon fill="none" stroke="black" points="16,-78 16,-130 981,-130 981,-78 16,-78"/>
</g>
<!-- RelatorioComponent -->
<g id="node1" class="node">
<title>RelatorioComponent</title>
<polygon fill="#ffffb3" stroke="black" points="1522.93,-122 1389.07,-122 1389.07,-86 1522.93,-86 1522.93,-122"/>
<text text-anchor="middle" x="1456" y="-99.8" font-family="Times,serif" font-size="14.00">RelatorioComponent</text>
</g>
<!-- RelatorioModule -->
<g id="node4" class="node">
<title>RelatorioModule</title>
<polygon fill="#8dd3c7" stroke="black" points="734.65,-187 731.65,-191 710.65,-191 707.65,-187 623.35,-187 623.35,-151 734.65,-151 734.65,-187"/>
<text text-anchor="middle" x="679" y="-164.8" font-family="Times,serif" font-size="14.00">RelatorioModule</text>
</g>
<!-- RelatorioComponent&#45;&gt;RelatorioModule -->
<g id="edge1" class="edge">
<title>RelatorioComponent&#45;&gt;RelatorioModule</title>
<path fill="none" stroke="black" d="M1456,-122.01C1456,-144.49 1456,-180 1456,-180 1456,-180 744.88,-180 744.88,-180"/>
<polygon fill="black" stroke="black" points="744.88,-176.5 734.88,-180 744.88,-183.5 744.88,-176.5"/>
</g>
<!-- RelatorioItemComponent -->
<g id="node2" class="node">
<title>RelatorioItemComponent</title>
<polygon fill="#ffffb3" stroke="black" points="1371.59,-122 1212.41,-122 1212.41,-86 1371.59,-86 1371.59,-122"/>
<text text-anchor="middle" x="1292" y="-99.8" font-family="Times,serif" font-size="14.00">RelatorioItemComponent</text>
</g>
<!-- RelatorioItemComponent&#45;&gt;RelatorioModule -->
<g id="edge2" class="edge">
<title>RelatorioItemComponent&#45;&gt;RelatorioModule</title>
<path fill="none" stroke="black" d="M1292,-122.13C1292,-142.57 1292,-173 1292,-173 1292,-173 744.75,-173 744.75,-173"/>
<polygon fill="black" stroke="black" points="744.75,-169.5 734.75,-173 744.75,-176.5 744.75,-169.5"/>
</g>
<!-- RelatorioIngredienteComponent -->
<g id="node3" class="node">
<title>RelatorioIngredienteComponent</title>
<polygon fill="#ffffb3" stroke="black" points="1194.68,-122 997.32,-122 997.32,-86 1194.68,-86 1194.68,-122"/>
<text text-anchor="middle" x="1096" y="-99.8" font-family="Times,serif" font-size="14.00">RelatorioIngredienteComponent</text>
</g>
<!-- RelatorioIngredienteComponent&#45;&gt;RelatorioModule -->
<g id="edge3" class="edge">
<title>RelatorioIngredienteComponent&#45;&gt;RelatorioModule</title>
<path fill="none" stroke="black" d="M1096,-122.27C1096,-140.56 1096,-166 1096,-166 1096,-166 744.81,-166 744.81,-166"/>
<polygon fill="black" stroke="black" points="744.81,-162.5 734.81,-166 744.81,-169.5 744.81,-162.5"/>
</g>
<!-- RelatorioRoutingModule -->
<g id="node5" class="node">
<title>RelatorioRoutingModule</title>
<polygon fill="#8dd3c7" stroke="black" points="973.27,-122 970.27,-126 949.27,-126 946.27,-122 816.73,-122 816.73,-86 973.27,-86 973.27,-122"/>
<text text-anchor="middle" x="895" y="-99.8" font-family="Times,serif" font-size="14.00">RelatorioRoutingModule</text>
</g>
<!-- RelatorioRoutingModule&#45;&gt;RelatorioModule -->
<g id="edge4" class="edge">
<title>RelatorioRoutingModule&#45;&gt;RelatorioModule</title>
<path fill="none" stroke="black" d="M895,-122.01C895,-138.05 895,-159 895,-159 895,-159 744.91,-159 744.91,-159"/>
<polygon fill="black" stroke="black" points="744.91,-155.5 734.91,-159 744.91,-162.5 744.91,-155.5"/>
</g>
<!-- MatTabsModule -->
<g id="node6" class="node">
<title>MatTabsModule</title>
<polygon fill="#8dd3c7" stroke="black" points="798.81,-122 795.81,-126 774.81,-126 771.81,-122 689.19,-122 689.19,-86 798.81,-86 798.81,-122"/>
<text text-anchor="middle" x="744" y="-99.8" font-family="Times,serif" font-size="14.00">MatTabsModule</text>
</g>
<!-- MatTabsModule&#45;&gt;RelatorioModule -->
<g id="edge5" class="edge">
<title>MatTabsModule&#45;&gt;RelatorioModule</title>
<path fill="none" stroke="black" d="M712.08,-122.11C712.08,-122.11 712.08,-140.99 712.08,-140.99"/>
<polygon fill="black" stroke="black" points="708.58,-140.99 712.08,-150.99 715.58,-140.99 708.58,-140.99"/>
</g>
<!-- MatChipsModule -->
<g id="node7" class="node">
<title>MatChipsModule</title>
<polygon fill="#8dd3c7" stroke="black" points="671.27,-122 668.27,-126 647.27,-126 644.27,-122 556.73,-122 556.73,-86 671.27,-86 671.27,-122"/>
<text text-anchor="middle" x="614" y="-99.8" font-family="Times,serif" font-size="14.00">MatChipsModule</text>
</g>
<!-- MatChipsModule&#45;&gt;RelatorioModule -->
<g id="edge6" class="edge">
<title>MatChipsModule&#45;&gt;RelatorioModule</title>
<path fill="none" stroke="black" d="M647.28,-122.11C647.28,-122.11 647.28,-140.99 647.28,-140.99"/>
<polygon fill="black" stroke="black" points="643.78,-140.99 647.28,-150.99 650.78,-140.99 643.78,-140.99"/>
</g>
<!-- MatExpansionModule -->
<g id="node8" class="node">
<title>MatExpansionModule</title>
<polygon fill="#8dd3c7" stroke="black" points="538.7,-122 535.7,-126 514.7,-126 511.7,-122 397.3,-122 397.3,-86 538.7,-86 538.7,-122"/>
<text text-anchor="middle" x="468" y="-99.8" font-family="Times,serif" font-size="14.00">MatExpansionModule</text>
</g>
<!-- MatExpansionModule&#45;&gt;RelatorioModule -->
<g id="edge7" class="edge">
<title>MatExpansionModule&#45;&gt;RelatorioModule</title>
<path fill="none" stroke="black" d="M468,-122.01C468,-138.05 468,-159 468,-159 468,-159 613.29,-159 613.29,-159"/>
<polygon fill="black" stroke="black" points="613.29,-162.5 623.29,-159 613.29,-155.5 613.29,-162.5"/>
</g>
<!-- MatIconModule -->
<g id="node9" class="node">
<title>MatIconModule</title>
<polygon fill="#8dd3c7" stroke="black" points="379.47,-122 376.47,-126 355.47,-126 352.47,-122 272.53,-122 272.53,-86 379.47,-86 379.47,-122"/>
<text text-anchor="middle" x="326" y="-99.8" font-family="Times,serif" font-size="14.00">MatIconModule</text>
</g>
<!-- MatIconModule&#45;&gt;RelatorioModule -->
<g id="edge8" class="edge">
<title>MatIconModule&#45;&gt;RelatorioModule</title>
<path fill="none" stroke="black" d="M326,-122.27C326,-140.56 326,-166 326,-166 326,-166 613.07,-166 613.07,-166"/>
<polygon fill="black" stroke="black" points="613.07,-169.5 623.07,-166 613.07,-162.5 613.07,-169.5"/>
</g>
<!-- MatProgressBarModule -->
<g id="node10" class="node">
<title>MatProgressBarModule</title>
<polygon fill="#8dd3c7" stroke="black" points="254.02,-122 251.02,-126 230.02,-126 227.02,-122 103.98,-122 103.98,-86 254.02,-86 254.02,-122"/>
<text text-anchor="middle" x="179" y="-99.8" font-family="Times,serif" font-size="14.00">MatProgressBarModule</text>
</g>
<!-- MatProgressBarModule&#45;&gt;RelatorioModule -->
<g id="edge9" class="edge">
<title>MatProgressBarModule&#45;&gt;RelatorioModule</title>
<path fill="none" stroke="black" d="M179,-122.13C179,-142.57 179,-173 179,-173 179,-173 613.1,-173 613.1,-173"/>
<polygon fill="black" stroke="black" points="613.1,-176.5 623.1,-173 613.1,-169.5 613.1,-176.5"/>
</g>
<!-- NgStyle -->
<g id="node11" class="node">
<title>NgStyle</title>
<polygon fill="#8dd3c7" stroke="black" points="85.89,-122 82.89,-126 61.89,-126 58.89,-122 24.11,-122 24.11,-86 85.89,-86 85.89,-122"/>
<text text-anchor="middle" x="55" y="-99.8" font-family="Times,serif" font-size="14.00">NgStyle</text>
</g>
<!-- NgStyle&#45;&gt;RelatorioModule -->
<g id="edge10" class="edge">
<title>NgStyle&#45;&gt;RelatorioModule</title>
<path fill="none" stroke="black" d="M55,-122.01C55,-144.49 55,-180 55,-180 55,-180 613.35,-180 613.35,-180"/>
<polygon fill="black" stroke="black" points="613.35,-183.5 623.35,-180 613.35,-176.5 613.35,-183.5"/>
</g>
</g>
</svg>
