<?xml version="1.0" encoding="UTF-8" standalone="no"?>
<!DOCTYPE svg PUBLIC "-//W3C//DTD SVG 1.1//EN"
 "http://www.w3.org/Graphics/SVG/1.1/DTD/svg11.dtd">
<!-- Generated by graphviz version 2.47.0 (20210316.0004)
 -->
<!-- Title: dependencies Pages: 1 -->
<svg width="3082pt" height="284pt"
 viewBox="0.00 0.00 3082.00 284.00" xmlns="http://www.w3.org/2000/svg" xmlns:xlink="http://www.w3.org/1999/xlink">
<g id="graph0" class="graph" transform="scale(1 1) rotate(0) translate(4 280)">
<title>dependencies</title>
<polygon fill="white" stroke="transparent" points="-4,4 -4,-280 3078,-280 3078,4 -4,4"/>
<text text-anchor="start" x="1516.01" y="-42.4" font-family="Times-12" font-weight="bold" font-size="14.00">Legend</text>
<polygon fill="#ffffb3" stroke="transparent" points="1303,-10 1303,-30 1323,-30 1323,-10 1303,-10"/>
<text text-anchor="start" x="1326.63" y="-15.4" font-family="Times-12" font-size="14.00"> &#160;Declarations</text>
<polygon fill="#8dd3c7" stroke="transparent" points="1416,-10 1416,-30 1436,-30 1436,-10 1416,-10"/>
<text text-anchor="start" x="1439.73" y="-15.4" font-family="Times-12" font-size="14.00"> &#160;Module</text>
<polygon fill="#80b1d3" stroke="transparent" points="1502,-10 1502,-30 1522,-30 1522,-10 1502,-10"/>
<text text-anchor="start" x="1525.78" y="-15.4" font-family="Times-12" font-size="14.00"> &#160;Bootstrap</text>
<polygon fill="#fdb462" stroke="transparent" points="1599,-10 1599,-30 1619,-30 1619,-10 1599,-10"/>
<text text-anchor="start" x="1622.67" y="-15.4" font-family="Times-12" font-size="14.00"> &#160;Providers</text>
<polygon fill="#fb8072" stroke="transparent" points="1695,-10 1695,-30 1715,-30 1715,-10 1695,-10"/>
<text text-anchor="start" x="1718.73" y="-15.4" font-family="Times-12" font-size="14.00"> &#160;Exports</text>
<g id="clust1" class="cluster">
<title>cluster_AppModule</title>
<polygon fill="none" stroke="black" stroke-dasharray="1,5" points="8,-70 8,-268 3066,-268 3066,-70 8,-70"/>
</g>
<g id="clust2" class="cluster">
<title>cluster_AppModule_declarations</title>
<polygon fill="none" stroke="black" points="2936,-78 2936,-130 3058,-130 3058,-78 2936,-78"/>
</g>
<g id="clust7" class="cluster">
<title>cluster_AppModule_providers</title>
<polygon fill="none" stroke="black" points="2398,-78 2398,-130 2928,-130 2928,-78 2398,-78"/>
</g>
<g id="clust4" class="cluster">
<title>cluster_AppModule_imports</title>
<polygon fill="none" stroke="black" points="16,-78 16,-130 2390,-130 2390,-78 16,-78"/>
</g>
<g id="clust6" class="cluster">
<title>cluster_AppModule_bootstrap</title>
<polygon fill="none" stroke="black" points="1336,-208 1336,-260 1460,-260 1460,-208 1336,-208"/>
</g>
<!-- AppComponent -->
<g id="node1" class="node">
<title>AppComponent</title>
<polygon fill="#ffffb3" stroke="black" points="3049.94,-122 2944.06,-122 2944.06,-86 3049.94,-86 3049.94,-122"/>
<text text-anchor="middle" x="2997" y="-99.8" font-family="Times,serif" font-size="14.00">AppComponent</text>
</g>
<!-- AppModule -->
<g id="node2" class="node">
<title>AppModule</title>
<polygon fill="#8dd3c7" stroke="black" points="1439.66,-187 1436.66,-191 1415.66,-191 1412.66,-187 1356.34,-187 1356.34,-151 1439.66,-151 1439.66,-187"/>
<text text-anchor="middle" x="1398" y="-164.8" font-family="Times,serif" font-size="14.00">AppModule</text>
</g>
<!-- AppComponent&#45;&gt;AppModule -->
<g id="edge1" class="edge">
<title>AppComponent&#45;&gt;AppModule</title>
<path fill="none" stroke="black" d="M2997,-122.15C2997,-145.76 2997,-184 2997,-184 2997,-184 1449.95,-184 1449.95,-184"/>
<polygon fill="black" stroke="black" points="1449.95,-180.5 1439.95,-184 1449.95,-187.5 1449.95,-180.5"/>
</g>
<!-- AppComponent  -->
<g id="node19" class="node">
<title>AppComponent </title>
<polygon fill="#80b1d3" stroke="black" points="1452.44,-252 1343.56,-252 1343.56,-216 1452.44,-216 1452.44,-252"/>
<text text-anchor="middle" x="1398" y="-229.8" font-family="Times,serif" font-size="14.00">AppComponent </text>
</g>
<!-- AppModule&#45;&gt;AppComponent  -->
<g id="edge18" class="edge">
<title>AppModule&#45;&gt;AppComponent </title>
<path fill="none" stroke="black" stroke-dasharray="1,5" d="M1398,-187.11C1398,-187.11 1398,-205.99 1398,-205.99"/>
<polygon fill="black" stroke="black" points="1394.5,-205.99 1398,-215.99 1401.5,-205.99 1394.5,-205.99"/>
</g>
<!-- BrowserModule -->
<g id="node3" class="node">
<title>BrowserModule</title>
<polygon fill="#8dd3c7" stroke="black" points="2382.47,-122 2379.47,-126 2358.47,-126 2355.47,-122 2275.53,-122 2275.53,-86 2382.47,-86 2382.47,-122"/>
<text text-anchor="middle" x="2329" y="-99.8" font-family="Times,serif" font-size="14.00">BrowserModule</text>
</g>
<!-- BrowserModule&#45;&gt;AppModule -->
<g id="edge2" class="edge">
<title>BrowserModule&#45;&gt;AppModule</title>
<path fill="none" stroke="black" d="M2329,-122.13C2329,-142.57 2329,-173 2329,-173 2329,-173 1449.81,-173 1449.81,-173"/>
<polygon fill="black" stroke="black" points="1449.81,-169.5 1439.81,-173 1449.81,-176.5 1449.81,-169.5"/>
</g>
<!-- AppRoutingModule -->
<g id="node4" class="node">
<title>AppRoutingModule</title>
<polygon fill="#8dd3c7" stroke="black" points="2257.27,-122 2254.27,-126 2233.27,-126 2230.27,-122 2128.73,-122 2128.73,-86 2257.27,-86 2257.27,-122"/>
<text text-anchor="middle" x="2193" y="-99.8" font-family="Times,serif" font-size="14.00">AppRoutingModule</text>
</g>
<!-- AppRoutingModule&#45;&gt;AppModule -->
<g id="edge3" class="edge">
<title>AppRoutingModule&#45;&gt;AppModule</title>
<path fill="none" stroke="black" d="M2193,-122.11C2193,-141.34 2193,-169 2193,-169 2193,-169 1449.9,-169 1449.9,-169"/>
<polygon fill="black" stroke="black" points="1449.9,-165.5 1439.9,-169 1449.9,-172.5 1449.9,-165.5"/>
</g>
<!-- BrowserAnimationsModule -->
<g id="node5" class="node">
<title>BrowserAnimationsModule</title>
<polygon fill="#8dd3c7" stroke="black" points="2110.3,-122 2107.3,-126 2086.3,-126 2083.3,-122 1937.7,-122 1937.7,-86 2110.3,-86 2110.3,-122"/>
<text text-anchor="middle" x="2024" y="-99.8" font-family="Times,serif" font-size="14.00">BrowserAnimationsModule</text>
</g>
<!-- BrowserAnimationsModule&#45;&gt;AppModule -->
<g id="edge4" class="edge">
<title>BrowserAnimationsModule&#45;&gt;AppModule</title>
<path fill="none" stroke="black" d="M2024,-122.27C2024,-140.56 2024,-166 2024,-166 2024,-166 1450.05,-166 1450.05,-166"/>
<polygon fill="black" stroke="black" points="1450.05,-162.5 1440.05,-166 1450.05,-169.5 1450.05,-162.5"/>
</g>
<!-- VersaoSistemaDirective -->
<g id="node6" class="node">
<title>VersaoSistemaDirective</title>
<polygon fill="#8dd3c7" stroke="black" points="1920.05,-122 1917.05,-126 1896.05,-126 1893.05,-122 1767.95,-122 1767.95,-86 1920.05,-86 1920.05,-122"/>
<text text-anchor="middle" x="1844" y="-99.8" font-family="Times,serif" font-size="14.00">VersaoSistemaDirective</text>
</g>
<!-- VersaoSistemaDirective&#45;&gt;AppModule -->
<g id="edge5" class="edge">
<title>VersaoSistemaDirective&#45;&gt;AppModule</title>
<path fill="none" stroke="black" d="M1844,-122.03C1844,-139.06 1844,-162 1844,-162 1844,-162 1449.96,-162 1449.96,-162"/>
<polygon fill="black" stroke="black" points="1449.96,-158.5 1439.96,-162 1449.96,-165.5 1449.96,-158.5"/>
</g>
<!-- NgTemplateOutlet -->
<g id="node7" class="node">
<title>NgTemplateOutlet</title>
<polygon fill="#8dd3c7" stroke="black" points="1749.47,-122 1746.47,-126 1725.47,-126 1722.47,-122 1628.53,-122 1628.53,-86 1749.47,-86 1749.47,-122"/>
<text text-anchor="middle" x="1689" y="-99.8" font-family="Times,serif" font-size="14.00">NgTemplateOutlet</text>
</g>
<!-- NgTemplateOutlet&#45;&gt;AppModule -->
<g id="edge6" class="edge">
<title>NgTemplateOutlet&#45;&gt;AppModule</title>
<path fill="none" stroke="black" d="M1689,-122.01C1689,-138.05 1689,-159 1689,-159 1689,-159 1449.69,-159 1449.69,-159"/>
<polygon fill="black" stroke="black" points="1449.69,-155.5 1439.69,-159 1449.69,-162.5 1449.69,-155.5"/>
</g>
<!-- MatSnackBarModule -->
<g id="node8" class="node">
<title>MatSnackBarModule</title>
<polygon fill="#8dd3c7" stroke="black" points="1610.02,-122 1607.02,-126 1586.02,-126 1583.02,-122 1473.98,-122 1473.98,-86 1610.02,-86 1610.02,-122"/>
<text text-anchor="middle" x="1542" y="-99.8" font-family="Times,serif" font-size="14.00">MatSnackBarModule</text>
</g>
<!-- MatSnackBarModule&#45;&gt;AppModule -->
<g id="edge7" class="edge">
<title>MatSnackBarModule&#45;&gt;AppModule</title>
<path fill="none" stroke="black" d="M1542,-122.12C1542,-136.78 1542,-155 1542,-155 1542,-155 1450.04,-155 1450.04,-155"/>
<polygon fill="black" stroke="black" points="1450.04,-151.5 1440.04,-155 1450.04,-158.5 1450.04,-151.5"/>
</g>
<!-- LoginComponent -->
<g id="node9" class="node">
<title>LoginComponent</title>
<polygon fill="#8dd3c7" stroke="black" points="1455.28,-122 1452.28,-126 1431.28,-126 1428.28,-122 1340.72,-122 1340.72,-86 1455.28,-86 1455.28,-122"/>
<text text-anchor="middle" x="1398" y="-99.8" font-family="Times,serif" font-size="14.00">LoginComponent</text>
</g>
<!-- LoginComponent&#45;&gt;AppModule -->
<g id="edge8" class="edge">
<title>LoginComponent&#45;&gt;AppModule</title>
<path fill="none" stroke="black" d="M1398,-122.11C1398,-122.11 1398,-140.99 1398,-140.99"/>
<polygon fill="black" stroke="black" points="1394.5,-140.99 1398,-150.99 1401.5,-140.99 1394.5,-140.99"/>
</g>
<!-- FooterComponent -->
<g id="node10" class="node">
<title>FooterComponent</title>
<polygon fill="#8dd3c7" stroke="black" points="1322.88,-122 1319.88,-126 1298.88,-126 1295.88,-122 1205.12,-122 1205.12,-86 1322.88,-86 1322.88,-122"/>
<text text-anchor="middle" x="1264" y="-99.8" font-family="Times,serif" font-size="14.00">FooterComponent</text>
</g>
<!-- FooterComponent&#45;&gt;AppModule -->
<g id="edge9" class="edge">
<title>FooterComponent&#45;&gt;AppModule</title>
<path fill="none" stroke="black" d="M1264,-122.12C1264,-136.78 1264,-155 1264,-155 1264,-155 1346.34,-155 1346.34,-155"/>
<polygon fill="black" stroke="black" points="1346.34,-158.5 1356.34,-155 1346.34,-151.5 1346.34,-158.5"/>
</g>
<!-- MatSidenavModule -->
<g id="node11" class="node">
<title>MatSidenavModule</title>
<polygon fill="#8dd3c7" stroke="black" points="1186.7,-122 1183.7,-126 1162.7,-126 1159.7,-122 1059.3,-122 1059.3,-86 1186.7,-86 1186.7,-122"/>
<text text-anchor="middle" x="1123" y="-99.8" font-family="Times,serif" font-size="14.00">MatSidenavModule</text>
</g>
<!-- MatSidenavModule&#45;&gt;AppModule -->
<g id="edge10" class="edge">
<title>MatSidenavModule&#45;&gt;AppModule</title>
<path fill="none" stroke="black" d="M1123,-122.01C1123,-138.05 1123,-159 1123,-159 1123,-159 1346.23,-159 1346.23,-159"/>
<polygon fill="black" stroke="black" points="1346.23,-162.5 1356.23,-159 1346.23,-155.5 1346.23,-162.5"/>
</g>
<!-- MatToolbarModule -->
<g id="node12" class="node">
<title>MatToolbarModule</title>
<polygon fill="#8dd3c7" stroke="black" points="1041.42,-122 1038.42,-126 1017.42,-126 1014.42,-122 914.58,-122 914.58,-86 1041.42,-86 1041.42,-122"/>
<text text-anchor="middle" x="978" y="-99.8" font-family="Times,serif" font-size="14.00">MatToolbarModule</text>
</g>
<!-- MatToolbarModule&#45;&gt;AppModule -->
<g id="edge11" class="edge">
<title>MatToolbarModule&#45;&gt;AppModule</title>
<path fill="none" stroke="black" d="M978,-122.03C978,-139.06 978,-162 978,-162 978,-162 1346.19,-162 1346.19,-162"/>
<polygon fill="black" stroke="black" points="1346.19,-165.5 1356.19,-162 1346.19,-158.5 1346.19,-165.5"/>
</g>
<!-- MatButtonModule -->
<g id="node13" class="node">
<title>MatButtonModule</title>
<polygon fill="#8dd3c7" stroke="black" points="897.22,-122 894.22,-126 873.22,-126 870.22,-122 776.78,-122 776.78,-86 897.22,-86 897.22,-122"/>
<text text-anchor="middle" x="837" y="-99.8" font-family="Times,serif" font-size="14.00">MatButtonModule</text>
</g>
<!-- MatButtonModule&#45;&gt;AppModule -->
<g id="edge12" class="edge">
<title>MatButtonModule&#45;&gt;AppModule</title>
<path fill="none" stroke="black" d="M837,-122.27C837,-140.56 837,-166 837,-166 837,-166 1346.29,-166 1346.29,-166"/>
<polygon fill="black" stroke="black" points="1346.29,-169.5 1356.29,-166 1346.29,-162.5 1346.29,-169.5"/>
</g>
<!-- MatIconModule -->
<g id="node14" class="node">
<title>MatIconModule</title>
<polygon fill="#8dd3c7" stroke="black" points="758.47,-122 755.47,-126 734.47,-126 731.47,-122 651.53,-122 651.53,-86 758.47,-86 758.47,-122"/>
<text text-anchor="middle" x="705" y="-99.8" font-family="Times,serif" font-size="14.00">MatIconModule</text>
</g>
<!-- MatIconModule&#45;&gt;AppModule -->
<g id="edge13" class="edge">
<title>MatIconModule&#45;&gt;AppModule</title>
<path fill="none" stroke="black" d="M705,-122.11C705,-141.34 705,-169 705,-169 705,-169 1346.21,-169 1346.21,-169"/>
<polygon fill="black" stroke="black" points="1346.21,-172.5 1356.21,-169 1346.21,-165.5 1346.21,-172.5"/>
</g>
<!-- MatRippleModule -->
<g id="node15" class="node">
<title>MatRippleModule</title>
<polygon fill="#8dd3c7" stroke="black" points="633.93,-122 630.93,-126 609.93,-126 606.93,-122 514.07,-122 514.07,-86 633.93,-86 633.93,-122"/>
<text text-anchor="middle" x="574" y="-99.8" font-family="Times,serif" font-size="14.00">MatRippleModule</text>
</g>
<!-- MatRippleModule&#45;&gt;AppModule -->
<g id="edge14" class="edge">
<title>MatRippleModule&#45;&gt;AppModule</title>
<path fill="none" stroke="black" d="M574,-122.13C574,-142.57 574,-173 574,-173 574,-173 1346.29,-173 1346.29,-173"/>
<polygon fill="black" stroke="black" points="1346.29,-176.5 1356.29,-173 1346.29,-169.5 1346.29,-176.5"/>
</g>
<!-- MatListModule -->
<g id="node16" class="node">
<title>MatListModule</title>
<polygon fill="#8dd3c7" stroke="black" points="495.88,-122 492.88,-126 471.88,-126 468.88,-122 392.12,-122 392.12,-86 495.88,-86 495.88,-122"/>
<text text-anchor="middle" x="444" y="-99.8" font-family="Times,serif" font-size="14.00">MatListModule</text>
</g>
<!-- MatListModule&#45;&gt;AppModule -->
<g id="edge15" class="edge">
<title>MatListModule&#45;&gt;AppModule</title>
<path fill="none" stroke="black" d="M444,-122.04C444,-143.66 444,-177 444,-177 444,-177 1346.09,-177 1346.09,-177"/>
<polygon fill="black" stroke="black" points="1346.09,-180.5 1356.09,-177 1346.09,-173.5 1346.09,-180.5"/>
</g>
<!-- CoreModule -->
<g id="node17" class="node">
<title>CoreModule</title>
<polygon fill="#8dd3c7" stroke="black" points="374.26,-122 371.26,-126 350.26,-126 347.26,-122 287.74,-122 287.74,-86 374.26,-86 374.26,-122"/>
<text text-anchor="middle" x="331" y="-99.8" font-family="Times,serif" font-size="14.00">CoreModule</text>
</g>
<!-- CoreModule&#45;&gt;AppModule -->
<g id="edge16" class="edge">
<title>CoreModule&#45;&gt;AppModule</title>
<path fill="none" stroke="black" d="M331,-122.01C331,-144.49 331,-180 331,-180 331,-180 1346.17,-180 1346.17,-180"/>
<polygon fill="black" stroke="black" points="1346.17,-183.5 1356.17,-180 1346.17,-176.5 1346.17,-183.5"/>
</g>
<!-- ImagekitioAngularModule.forRoot(args) -->
<g id="node18" class="node">
<title>ImagekitioAngularModule.forRoot(args)</title>
<polygon fill="#8dd3c7" stroke="black" points="269.76,-122 266.76,-126 245.76,-126 242.76,-122 24.24,-122 24.24,-86 269.76,-86 269.76,-122"/>
<text text-anchor="middle" x="147" y="-99.8" font-family="Times,serif" font-size="14.00">ImagekitioAngularModule.forRoot(args)</text>
</g>
<!-- ImagekitioAngularModule.forRoot(args)&#45;&gt;AppModule -->
<g id="edge17" class="edge">
<title>ImagekitioAngularModule.forRoot(args)&#45;&gt;AppModule</title>
<path fill="none" stroke="black" d="M147,-122.15C147,-145.76 147,-184 147,-184 147,-184 1346.02,-184 1346.02,-184"/>
<polygon fill="black" stroke="black" points="1346.02,-187.5 1356.02,-184 1346.02,-180.5 1346.02,-187.5"/>
</g>
<!-- provideAnimationsAsync.() -->
<g id="node20" class="node">
<title>provideAnimationsAsync.()</title>
<ellipse fill="#fdb462" stroke="black" cx="2801" cy="-104" rx="119.22" ry="18"/>
<text text-anchor="middle" x="2801" y="-99.8" font-family="Times,serif" font-size="14.00">provideAnimationsAsync.()</text>
</g>
<!-- provideAnimationsAsync.()&#45;&gt;AppModule -->
<g id="edge19" class="edge">
<title>provideAnimationsAsync.()&#45;&gt;AppModule</title>
<path fill="none" stroke="black" d="M2801,-122.01C2801,-144.49 2801,-180 2801,-180 2801,-180 1449.99,-180 1449.99,-180"/>
<polygon fill="black" stroke="black" points="1449.99,-176.5 1439.99,-180 1449.99,-183.5 1449.99,-176.5"/>
</g>
<!-- provideImageKitLoader.(args) -->
<g id="node21" class="node">
<title>provideImageKitLoader.(args)</title>
<ellipse fill="#fdb462" stroke="black" cx="2535" cy="-104" rx="129.05" ry="18"/>
<text text-anchor="middle" x="2535" y="-99.8" font-family="Times,serif" font-size="14.00">provideImageKitLoader.(args)</text>
</g>
<!-- provideImageKitLoader.(args)&#45;&gt;AppModule -->
<g id="edge20" class="edge">
<title>provideImageKitLoader.(args)&#45;&gt;AppModule</title>
<path fill="none" stroke="black" d="M2535,-122.04C2535,-143.66 2535,-177 2535,-177 2535,-177 1449.81,-177 1449.81,-177"/>
<polygon fill="black" stroke="black" points="1449.81,-173.5 1439.81,-177 1449.81,-180.5 1449.81,-173.5"/>
</g>
</g>
</svg>
