<?xml version="1.0" encoding="UTF-8" standalone="no"?>
<!DOCTYPE svg PUBLIC "-//W3C//DTD SVG 1.1//EN"
 "http://www.w3.org/Graphics/SVG/1.1/DTD/svg11.dtd">
<!-- Generated by graphviz version 2.47.0 (20210316.0004)
 -->
<!-- Title: dependencies Pages: 1 -->
<svg width="851pt" height="211pt"
 viewBox="0.00 0.00 851.00 211.00" xmlns="http://www.w3.org/2000/svg" xmlns:xlink="http://www.w3.org/1999/xlink">
<g id="graph0" class="graph" transform="scale(1 1) rotate(0) translate(4 207)">
<title>dependencies</title>
<polygon fill="white" stroke="transparent" points="-4,4 -4,-207 847,-207 847,4 -4,4"/>
<text text-anchor="start" x="400.51" y="-42.4" font-family="Times-12" font-weight="bold" font-size="14.00">Legend</text>
<polygon fill="#ffffb3" stroke="transparent" points="187.5,-10 187.5,-30 207.5,-30 207.5,-10 187.5,-10"/>
<text text-anchor="start" x="211.13" y="-15.4" font-family="Times-12" font-size="14.00"> &#160;Declarations</text>
<polygon fill="#8dd3c7" stroke="transparent" points="300.5,-10 300.5,-30 320.5,-30 320.5,-10 300.5,-10"/>
<text text-anchor="start" x="324.23" y="-15.4" font-family="Times-12" font-size="14.00"> &#160;Module</text>
<polygon fill="#80b1d3" stroke="transparent" points="386.5,-10 386.5,-30 406.5,-30 406.5,-10 386.5,-10"/>
<text text-anchor="start" x="410.28" y="-15.4" font-family="Times-12" font-size="14.00"> &#160;Bootstrap</text>
<polygon fill="#fdb462" stroke="transparent" points="483.5,-10 483.5,-30 503.5,-30 503.5,-10 483.5,-10"/>
<text text-anchor="start" x="507.17" y="-15.4" font-family="Times-12" font-size="14.00"> &#160;Providers</text>
<polygon fill="#fb8072" stroke="transparent" points="579.5,-10 579.5,-30 599.5,-30 599.5,-10 579.5,-10"/>
<text text-anchor="start" x="603.23" y="-15.4" font-family="Times-12" font-size="14.00"> &#160;Exports</text>
<g id="clust1" class="cluster">
<title>cluster_MarmitasModule</title>
<polygon fill="none" stroke="black" stroke-dasharray="1,5" points="8,-70 8,-195 835,-195 835,-70 8,-70"/>
</g>
<g id="clust2" class="cluster">
<title>cluster_MarmitasModule_declarations</title>
<polygon fill="none" stroke="black" points="314,-78 314,-130 827,-130 827,-78 314,-78"/>
</g>
<g id="clust6" class="cluster">
<title>cluster_MarmitasModule_imports</title>
<polygon fill="none" stroke="black" points="16,-78 16,-130 306,-130 306,-78 16,-78"/>
</g>
<!-- MarmitasComponent -->
<g id="node1" class="node">
<title>MarmitasComponent</title>
<polygon fill="#ffffb3" stroke="black" points="819.48,-122 684.52,-122 684.52,-86 819.48,-86 819.48,-122"/>
<text text-anchor="middle" x="752" y="-99.8" font-family="Times,serif" font-size="14.00">MarmitasComponent</text>
</g>
<!-- MarmitasModule -->
<g id="node4" class="node">
<title>MarmitasModule</title>
<polygon fill="#8dd3c7" stroke="black" points="461.7,-187 458.7,-191 437.7,-191 434.7,-187 348.3,-187 348.3,-151 461.7,-151 461.7,-187"/>
<text text-anchor="middle" x="405" y="-164.8" font-family="Times,serif" font-size="14.00">MarmitasModule</text>
</g>
<!-- MarmitasComponent&#45;&gt;MarmitasModule -->
<g id="edge1" class="edge">
<title>MarmitasComponent&#45;&gt;MarmitasModule</title>
<path fill="none" stroke="black" d="M752,-122.28C752,-143.32 752,-175 752,-175 752,-175 471.91,-175 471.91,-175"/>
<polygon fill="black" stroke="black" points="471.91,-171.5 461.91,-175 471.91,-178.5 471.91,-171.5"/>
</g>
<!-- MarmitasItemComponent -->
<g id="node2" class="node">
<title>MarmitasItemComponent</title>
<polygon fill="#ffffb3" stroke="black" points="666.14,-122 505.86,-122 505.86,-86 666.14,-86 666.14,-122"/>
<text text-anchor="middle" x="586" y="-99.8" font-family="Times,serif" font-size="14.00">MarmitasItemComponent</text>
</g>
<!-- MarmitasItemComponent&#45;&gt;MarmitasModule -->
<g id="edge2" class="edge">
<title>MarmitasItemComponent&#45;&gt;MarmitasModule</title>
<path fill="none" stroke="black" d="M586,-122.02C586,-139.37 586,-163 586,-163 586,-163 471.77,-163 471.77,-163"/>
<polygon fill="black" stroke="black" points="471.77,-159.5 461.77,-163 471.77,-166.5 471.77,-159.5"/>
</g>
<!-- MarmitasFormComponent -->
<g id="node3" class="node">
<title>MarmitasFormComponent</title>
<polygon fill="#ffffb3" stroke="black" points="487.82,-122 322.18,-122 322.18,-86 487.82,-86 487.82,-122"/>
<text text-anchor="middle" x="405" y="-99.8" font-family="Times,serif" font-size="14.00">MarmitasFormComponent</text>
</g>
<!-- MarmitasFormComponent&#45;&gt;MarmitasModule -->
<g id="edge3" class="edge">
<title>MarmitasFormComponent&#45;&gt;MarmitasModule</title>
<path fill="none" stroke="black" d="M405,-122.11C405,-122.11 405,-140.99 405,-140.99"/>
<polygon fill="black" stroke="black" points="401.5,-140.99 405,-150.99 408.5,-140.99 401.5,-140.99"/>
</g>
<!-- MarmitasRoutingModule -->
<g id="node5" class="node">
<title>MarmitasRoutingModule</title>
<polygon fill="#8dd3c7" stroke="black" points="298.32,-122 295.32,-126 274.32,-126 271.32,-122 139.68,-122 139.68,-86 298.32,-86 298.32,-122"/>
<text text-anchor="middle" x="219" y="-99.8" font-family="Times,serif" font-size="14.00">MarmitasRoutingModule</text>
</g>
<!-- MarmitasRoutingModule&#45;&gt;MarmitasModule -->
<g id="edge4" class="edge">
<title>MarmitasRoutingModule&#45;&gt;MarmitasModule</title>
<path fill="none" stroke="black" d="M219,-122.02C219,-139.37 219,-163 219,-163 219,-163 338.18,-163 338.18,-163"/>
<polygon fill="black" stroke="black" points="338.18,-166.5 348.18,-163 338.18,-159.5 338.18,-166.5"/>
</g>
<!-- SharedModule -->
<g id="node6" class="node">
<title>SharedModule</title>
<polygon fill="#8dd3c7" stroke="black" points="122.42,-122 119.42,-126 98.42,-126 95.42,-122 23.58,-122 23.58,-86 122.42,-86 122.42,-122"/>
<text text-anchor="middle" x="73" y="-99.8" font-family="Times,serif" font-size="14.00">SharedModule</text>
</g>
<!-- SharedModule&#45;&gt;MarmitasModule -->
<g id="edge5" class="edge">
<title>SharedModule&#45;&gt;MarmitasModule</title>
<path fill="none" stroke="black" d="M73,-122.28C73,-143.32 73,-175 73,-175 73,-175 338.3,-175 338.3,-175"/>
<polygon fill="black" stroke="black" points="338.3,-178.5 348.3,-175 338.3,-171.5 338.3,-178.5"/>
</g>
</g>
</svg>
