<?xml version="1.0" encoding="UTF-8" standalone="no"?>
<!DOCTYPE svg PUBLIC "-//W3C//DTD SVG 1.1//EN"
 "http://www.w3.org/Graphics/SVG/1.1/DTD/svg11.dtd">
<!-- Generated by graphviz version 2.47.0 (20210316.0004)
 -->
<!-- Title: dependencies Pages: 1 -->
<svg width="1341pt" height="211pt"
 viewBox="0.00 0.00 1341.00 211.00" xmlns="http://www.w3.org/2000/svg" xmlns:xlink="http://www.w3.org/1999/xlink">
<g id="graph0" class="graph" transform="scale(1 1) rotate(0) translate(4 207)">
<title>dependencies</title>
<polygon fill="white" stroke="transparent" points="-4,4 -4,-207 1337,-207 1337,4 -4,4"/>
<text text-anchor="start" x="645.51" y="-42.4" font-family="Times-12" font-weight="bold" font-size="14.00">Legend</text>
<polygon fill="#ffffb3" stroke="transparent" points="432.5,-10 432.5,-30 452.5,-30 452.5,-10 432.5,-10"/>
<text text-anchor="start" x="456.13" y="-15.4" font-family="Times-12" font-size="14.00"> &#160;Declarations</text>
<polygon fill="#8dd3c7" stroke="transparent" points="545.5,-10 545.5,-30 565.5,-30 565.5,-10 545.5,-10"/>
<text text-anchor="start" x="569.23" y="-15.4" font-family="Times-12" font-size="14.00"> &#160;Module</text>
<polygon fill="#80b1d3" stroke="transparent" points="631.5,-10 631.5,-30 651.5,-30 651.5,-10 631.5,-10"/>
<text text-anchor="start" x="655.28" y="-15.4" font-family="Times-12" font-size="14.00"> &#160;Bootstrap</text>
<polygon fill="#fdb462" stroke="transparent" points="728.5,-10 728.5,-30 748.5,-30 748.5,-10 728.5,-10"/>
<text text-anchor="start" x="752.17" y="-15.4" font-family="Times-12" font-size="14.00"> &#160;Providers</text>
<polygon fill="#fb8072" stroke="transparent" points="824.5,-10 824.5,-30 844.5,-30 844.5,-10 824.5,-10"/>
<text text-anchor="start" x="848.23" y="-15.4" font-family="Times-12" font-size="14.00"> &#160;Exports</text>
<g id="clust1" class="cluster">
<title>cluster_PedidosModule</title>
<polygon fill="none" stroke="black" stroke-dasharray="1,5" points="8,-70 8,-195 1325,-195 1325,-70 8,-70"/>
</g>
<g id="clust2" class="cluster">
<title>cluster_PedidosModule_declarations</title>
<polygon fill="none" stroke="black" points="760,-78 760,-130 1317,-130 1317,-78 760,-78"/>
</g>
<g id="clust6" class="cluster">
<title>cluster_PedidosModule_imports</title>
<polygon fill="none" stroke="black" points="16,-78 16,-130 752,-130 752,-78 16,-78"/>
</g>
<!-- PedidosComponent -->
<g id="node1" class="node">
<title>PedidosComponent</title>
<polygon fill="#ffffb3" stroke="black" points="1308.67,-122 1183.33,-122 1183.33,-86 1308.67,-86 1308.67,-122"/>
<text text-anchor="middle" x="1246" y="-99.8" font-family="Times,serif" font-size="14.00">PedidosComponent</text>
</g>
<!-- PedidosModule -->
<g id="node4" class="node">
<title>PedidosModule</title>
<polygon fill="#8dd3c7" stroke="black" points="629.88,-187 626.88,-191 605.88,-191 602.88,-187 526.12,-187 526.12,-151 629.88,-151 629.88,-187"/>
<text text-anchor="middle" x="578" y="-164.8" font-family="Times,serif" font-size="14.00">PedidosModule</text>
</g>
<!-- PedidosComponent&#45;&gt;PedidosModule -->
<g id="edge1" class="edge">
<title>PedidosComponent&#45;&gt;PedidosModule</title>
<path fill="none" stroke="black" d="M1246,-122.29C1246,-144.21 1246,-178 1246,-178 1246,-178 640.14,-178 640.14,-178"/>
<polygon fill="black" stroke="black" points="640.14,-174.5 630.14,-178 640.14,-181.5 640.14,-174.5"/>
</g>
<!-- PedidosItemComponent -->
<g id="node2" class="node">
<title>PedidosItemComponent</title>
<polygon fill="#ffffb3" stroke="black" points="1165.82,-122 1014.18,-122 1014.18,-86 1165.82,-86 1165.82,-122"/>
<text text-anchor="middle" x="1090" y="-99.8" font-family="Times,serif" font-size="14.00">PedidosItemComponent</text>
</g>
<!-- PedidosItemComponent&#45;&gt;PedidosModule -->
<g id="edge2" class="edge">
<title>PedidosItemComponent&#45;&gt;PedidosModule</title>
<path fill="none" stroke="black" d="M1090,-122.11C1090,-141.34 1090,-169 1090,-169 1090,-169 639.91,-169 639.91,-169"/>
<polygon fill="black" stroke="black" points="639.91,-165.5 629.91,-169 639.91,-172.5 639.91,-165.5"/>
</g>
<!-- PedidosAcompanhamentoComponent -->
<g id="node3" class="node">
<title>PedidosAcompanhamentoComponent</title>
<polygon fill="#ffffb3" stroke="black" points="996.3,-122 767.7,-122 767.7,-86 996.3,-86 996.3,-122"/>
<text text-anchor="middle" x="882" y="-99.8" font-family="Times,serif" font-size="14.00">PedidosAcompanhamentoComponent</text>
</g>
<!-- PedidosAcompanhamentoComponent&#45;&gt;PedidosModule -->
<g id="edge3" class="edge">
<title>PedidosAcompanhamentoComponent&#45;&gt;PedidosModule</title>
<path fill="none" stroke="black" d="M882,-122.03C882,-138.4 882,-160 882,-160 882,-160 639.91,-160 639.91,-160"/>
<polygon fill="black" stroke="black" points="639.91,-156.5 629.91,-160 639.91,-163.5 639.91,-156.5"/>
</g>
<!-- PedidosRoutingModule -->
<g id="node5" class="node">
<title>PedidosRoutingModule</title>
<polygon fill="#8dd3c7" stroke="black" points="743.5,-122 740.5,-126 719.5,-126 716.5,-122 594.5,-122 594.5,-86 743.5,-86 743.5,-122"/>
<text text-anchor="middle" x="669" y="-99.8" font-family="Times,serif" font-size="14.00">PedidosRoutingModule</text>
</g>
<!-- PedidosRoutingModule&#45;&gt;PedidosModule -->
<g id="edge4" class="edge">
<title>PedidosRoutingModule&#45;&gt;PedidosModule</title>
<path fill="none" stroke="black" d="M612.22,-122.11C612.22,-122.11 612.22,-140.99 612.22,-140.99"/>
<polygon fill="black" stroke="black" points="608.72,-140.99 612.22,-150.99 615.72,-140.99 608.72,-140.99"/>
</g>
<!-- SelecaoNumerosComponent -->
<g id="node6" class="node">
<title>SelecaoNumerosComponent</title>
<polygon fill="#8dd3c7" stroke="black" points="576.18,-122 573.18,-126 552.18,-126 549.18,-122 399.82,-122 399.82,-86 576.18,-86 576.18,-122"/>
<text text-anchor="middle" x="488" y="-99.8" font-family="Times,serif" font-size="14.00">SelecaoNumerosComponent</text>
</g>
<!-- SelecaoNumerosComponent&#45;&gt;PedidosModule -->
<g id="edge5" class="edge">
<title>SelecaoNumerosComponent&#45;&gt;PedidosModule</title>
<path fill="none" stroke="black" d="M551.07,-122.11C551.07,-122.11 551.07,-140.99 551.07,-140.99"/>
<polygon fill="black" stroke="black" points="547.57,-140.99 551.07,-150.99 554.57,-140.99 547.57,-140.99"/>
</g>
<!-- CorBoardaDirective -->
<g id="node7" class="node">
<title>CorBoardaDirective</title>
<polygon fill="#8dd3c7" stroke="black" points="381.51,-122 378.51,-126 357.51,-126 354.51,-122 252.49,-122 252.49,-86 381.51,-86 381.51,-122"/>
<text text-anchor="middle" x="317" y="-99.8" font-family="Times,serif" font-size="14.00">CorBoardaDirective</text>
</g>
<!-- CorBoardaDirective&#45;&gt;PedidosModule -->
<g id="edge6" class="edge">
<title>CorBoardaDirective&#45;&gt;PedidosModule</title>
<path fill="none" stroke="black" d="M317,-122.03C317,-138.4 317,-160 317,-160 317,-160 515.81,-160 515.81,-160"/>
<polygon fill="black" stroke="black" points="515.81,-163.5 525.81,-160 515.81,-156.5 515.81,-163.5"/>
</g>
<!-- SharedModule -->
<g id="node8" class="node">
<title>SharedModule</title>
<polygon fill="#8dd3c7" stroke="black" points="234.42,-122 231.42,-126 210.42,-126 207.42,-122 135.58,-122 135.58,-86 234.42,-86 234.42,-122"/>
<text text-anchor="middle" x="185" y="-99.8" font-family="Times,serif" font-size="14.00">SharedModule</text>
</g>
<!-- SharedModule&#45;&gt;PedidosModule -->
<g id="edge7" class="edge">
<title>SharedModule&#45;&gt;PedidosModule</title>
<path fill="none" stroke="black" d="M185,-122.11C185,-141.34 185,-169 185,-169 185,-169 515.81,-169 515.81,-169"/>
<polygon fill="black" stroke="black" points="515.81,-172.5 525.81,-169 515.81,-165.5 515.81,-172.5"/>
</g>
<!-- PratosModule -->
<g id="node9" class="node">
<title>PratosModule</title>
<polygon fill="#8dd3c7" stroke="black" points="118.04,-122 115.04,-126 94.04,-126 91.04,-122 23.96,-122 23.96,-86 118.04,-86 118.04,-122"/>
<text text-anchor="middle" x="71" y="-99.8" font-family="Times,serif" font-size="14.00">PratosModule</text>
</g>
<!-- PratosModule&#45;&gt;PedidosModule -->
<g id="edge8" class="edge">
<title>PratosModule&#45;&gt;PedidosModule</title>
<path fill="none" stroke="black" d="M71,-122.29C71,-144.21 71,-178 71,-178 71,-178 515.65,-178 515.65,-178"/>
<polygon fill="black" stroke="black" points="515.65,-181.5 525.65,-178 515.65,-174.5 515.65,-181.5"/>
</g>
</g>
</svg>
