<?xml version="1.0" encoding="UTF-8" standalone="no"?>
<!DOCTYPE svg PUBLIC "-//W3C//DTD SVG 1.1//EN"
 "http://www.w3.org/Graphics/SVG/1.1/DTD/svg11.dtd">
<!-- Generated by graphviz version 2.47.0 (20210316.0004)
 -->
<!-- Title: dependencies Pages: 1 -->
<svg width="3702pt" height="211pt"
 viewBox="0.00 0.00 3702.00 211.00" xmlns="http://www.w3.org/2000/svg" xmlns:xlink="http://www.w3.org/1999/xlink">
<g id="graph0" class="graph" transform="scale(1 1) rotate(0) translate(4 207)">
<title>dependencies</title>
<polygon fill="white" stroke="transparent" points="-4,4 -4,-207 3698,-207 3698,4 -4,4"/>
<text text-anchor="start" x="1826.01" y="-42.4" font-family="Times-12" font-weight="bold" font-size="14.00">Legend</text>
<polygon fill="#ffffb3" stroke="transparent" points="1613,-10 1613,-30 1633,-30 1633,-10 1613,-10"/>
<text text-anchor="start" x="1636.63" y="-15.4" font-family="Times-12" font-size="14.00"> &#160;Declarations</text>
<polygon fill="#8dd3c7" stroke="transparent" points="1726,-10 1726,-30 1746,-30 1746,-10 1726,-10"/>
<text text-anchor="start" x="1749.73" y="-15.4" font-family="Times-12" font-size="14.00"> &#160;Module</text>
<polygon fill="#80b1d3" stroke="transparent" points="1812,-10 1812,-30 1832,-30 1832,-10 1812,-10"/>
<text text-anchor="start" x="1835.78" y="-15.4" font-family="Times-12" font-size="14.00"> &#160;Bootstrap</text>
<polygon fill="#fdb462" stroke="transparent" points="1909,-10 1909,-30 1929,-30 1929,-10 1909,-10"/>
<text text-anchor="start" x="1932.67" y="-15.4" font-family="Times-12" font-size="14.00"> &#160;Providers</text>
<polygon fill="#fb8072" stroke="transparent" points="2005,-10 2005,-30 2025,-30 2025,-10 2005,-10"/>
<text text-anchor="start" x="2028.73" y="-15.4" font-family="Times-12" font-size="14.00"> &#160;Exports</text>
<g id="clust1" class="cluster">
<title>cluster_PedidosModule</title>
<polygon fill="none" stroke="black" stroke-dasharray="1,5" points="8,-70 8,-195 3686,-195 3686,-70 8,-70"/>
</g>
<g id="clust2" class="cluster">
<title>cluster_PedidosModule_declarations</title>
<polygon fill="none" stroke="black" points="3121,-78 3121,-130 3678,-130 3678,-78 3121,-78"/>
</g>
<g id="clust6" class="cluster">
<title>cluster_PedidosModule_imports</title>
<polygon fill="none" stroke="black" points="16,-78 16,-130 3113,-130 3113,-78 16,-78"/>
</g>
<!-- PedidosComponent -->
<g id="node1" class="node">
<title>PedidosComponent</title>
<polygon fill="#ffffb3" stroke="black" points="3669.67,-122 3544.33,-122 3544.33,-86 3669.67,-86 3669.67,-122"/>
<text text-anchor="middle" x="3607" y="-99.8" font-family="Times,serif" font-size="14.00">PedidosComponent</text>
</g>
<!-- PedidosModule -->
<g id="node4" class="node">
<title>PedidosModule</title>
<polygon fill="#8dd3c7" stroke="black" points="1859.88,-187 1856.88,-191 1835.88,-191 1832.88,-187 1756.12,-187 1756.12,-151 1859.88,-151 1859.88,-187"/>
<text text-anchor="middle" x="1808" y="-164.8" font-family="Times,serif" font-size="14.00">PedidosModule</text>
</g>
<!-- PedidosComponent&#45;&gt;PedidosModule -->
<g id="edge1" class="edge">
<title>PedidosComponent&#45;&gt;PedidosModule</title>
<path fill="none" stroke="black" d="M3607,-122.38C3607,-146.28 3607,-185 3607,-185 3607,-185 1869.9,-185 1869.9,-185"/>
<polygon fill="black" stroke="black" points="1869.9,-181.5 1859.9,-185 1869.9,-188.5 1869.9,-181.5"/>
</g>
<!-- PedidosItemComponent -->
<g id="node2" class="node">
<title>PedidosItemComponent</title>
<polygon fill="#ffffb3" stroke="black" points="3526.82,-122 3375.18,-122 3375.18,-86 3526.82,-86 3526.82,-122"/>
<text text-anchor="middle" x="3451" y="-99.8" font-family="Times,serif" font-size="14.00">PedidosItemComponent</text>
</g>
<!-- PedidosItemComponent&#45;&gt;PedidosModule -->
<g id="edge2" class="edge">
<title>PedidosItemComponent&#45;&gt;PedidosModule</title>
<path fill="none" stroke="black" d="M3451,-122.09C3451,-145.13 3451,-182 3451,-182 3451,-182 1869.89,-182 1869.89,-182"/>
<polygon fill="black" stroke="black" points="1869.89,-178.5 1859.89,-182 1869.89,-185.5 1869.89,-178.5"/>
</g>
<!-- PedidosAcompanhamentoComponent -->
<g id="node3" class="node">
<title>PedidosAcompanhamentoComponent</title>
<polygon fill="#ffffb3" stroke="black" points="3357.3,-122 3128.7,-122 3128.7,-86 3357.3,-86 3357.3,-122"/>
<text text-anchor="middle" x="3243" y="-99.8" font-family="Times,serif" font-size="14.00">PedidosAcompanhamentoComponent</text>
</g>
<!-- PedidosAcompanhamentoComponent&#45;&gt;PedidosModule -->
<g id="edge3" class="edge">
<title>PedidosAcompanhamentoComponent&#45;&gt;PedidosModule</title>
<path fill="none" stroke="black" d="M3243,-122.16C3243,-144.35 3243,-179 3243,-179 3243,-179 1869.92,-179 1869.92,-179"/>
<polygon fill="black" stroke="black" points="1869.92,-175.5 1859.92,-179 1869.92,-182.5 1869.92,-175.5"/>
</g>
<!-- SelecaoNumerosComponent -->
<g id="node5" class="node">
<title>SelecaoNumerosComponent</title>
<polygon fill="#8dd3c7" stroke="black" points="3105.18,-122 3102.18,-126 3081.18,-126 3078.18,-122 2928.82,-122 2928.82,-86 3105.18,-86 3105.18,-122"/>
<text text-anchor="middle" x="3017" y="-99.8" font-family="Times,serif" font-size="14.00">SelecaoNumerosComponent</text>
</g>
<!-- SelecaoNumerosComponent&#45;&gt;PedidosModule -->
<g id="edge4" class="edge">
<title>SelecaoNumerosComponent&#45;&gt;PedidosModule</title>
<path fill="none" stroke="black" d="M3017,-122.17C3017,-143.5 3017,-176 3017,-176 3017,-176 1869.95,-176 1869.95,-176"/>
<polygon fill="black" stroke="black" points="1869.95,-172.5 1859.95,-176 1869.95,-179.5 1869.95,-172.5"/>
</g>
<!-- CorBoardaDirective -->
<g id="node6" class="node">
<title>CorBoardaDirective</title>
<polygon fill="#8dd3c7" stroke="black" points="2910.51,-122 2907.51,-126 2886.51,-126 2883.51,-122 2781.49,-122 2781.49,-86 2910.51,-86 2910.51,-122"/>
<text text-anchor="middle" x="2846" y="-99.8" font-family="Times,serif" font-size="14.00">CorBoardaDirective</text>
</g>
<!-- CorBoardaDirective&#45;&gt;PedidosModule -->
<g id="edge5" class="edge">
<title>CorBoardaDirective&#45;&gt;PedidosModule</title>
<path fill="none" stroke="black" d="M2846,-122.03C2846,-142.77 2846,-174 2846,-174 2846,-174 1870.19,-174 1870.19,-174"/>
<polygon fill="black" stroke="black" points="1870.19,-170.5 1860.19,-174 1870.19,-177.5 1870.19,-170.5"/>
</g>
<!-- ReactiveFormsModule -->
<g id="node7" class="node">
<title>ReactiveFormsModule</title>
<polygon fill="#8dd3c7" stroke="black" points="2763.3,-122 2760.3,-126 2739.3,-126 2736.3,-122 2618.7,-122 2618.7,-86 2763.3,-86 2763.3,-122"/>
<text text-anchor="middle" x="2691" y="-99.8" font-family="Times,serif" font-size="14.00">ReactiveFormsModule</text>
</g>
<!-- ReactiveFormsModule&#45;&gt;PedidosModule -->
<g id="edge6" class="edge">
<title>ReactiveFormsModule&#45;&gt;PedidosModule</title>
<path fill="none" stroke="black" d="M2691,-122.31C2691,-142.15 2691,-171 2691,-171 2691,-171 1869.94,-171 1869.94,-171"/>
<polygon fill="black" stroke="black" points="1869.94,-167.5 1859.94,-171 1869.94,-174.5 1869.94,-167.5"/>
</g>
<!-- AsyncPipe -->
<g id="node8" class="node">
<title>AsyncPipe</title>
<polygon fill="#8dd3c7" stroke="black" points="2601.15,-122 2598.15,-126 2577.15,-126 2574.15,-122 2524.85,-122 2524.85,-86 2601.15,-86 2601.15,-122"/>
<text text-anchor="middle" x="2563" y="-99.8" font-family="Times,serif" font-size="14.00">AsyncPipe</text>
</g>
<!-- AsyncPipe&#45;&gt;PedidosModule -->
<g id="edge7" class="edge">
<title>AsyncPipe&#45;&gt;PedidosModule</title>
<path fill="none" stroke="black" d="M2563,-122.17C2563,-141.09 2563,-168 2563,-168 2563,-168 1869.89,-168 1869.89,-168"/>
<polygon fill="black" stroke="black" points="1869.89,-164.5 1859.89,-168 1869.89,-171.5 1869.89,-164.5"/>
</g>
<!-- NgStyle -->
<g id="node9" class="node">
<title>NgStyle</title>
<polygon fill="#8dd3c7" stroke="black" points="2506.89,-122 2503.89,-126 2482.89,-126 2479.89,-122 2445.11,-122 2445.11,-86 2506.89,-86 2506.89,-122"/>
<text text-anchor="middle" x="2476" y="-99.8" font-family="Times,serif" font-size="14.00">NgStyle</text>
</g>
<!-- NgStyle&#45;&gt;PedidosModule -->
<g id="edge8" class="edge">
<title>NgStyle&#45;&gt;PedidosModule</title>
<path fill="none" stroke="black" d="M2476,-122.3C2476,-140.27 2476,-165 2476,-165 2476,-165 1870.14,-165 1870.14,-165"/>
<polygon fill="black" stroke="black" points="1870.14,-161.5 1860.14,-165 1870.14,-168.5 1870.14,-161.5"/>
</g>
<!-- FormsModule -->
<g id="node10" class="node">
<title>FormsModule</title>
<polygon fill="#8dd3c7" stroke="black" points="2426.83,-122 2423.83,-126 2402.83,-126 2399.83,-122 2331.17,-122 2331.17,-86 2426.83,-86 2426.83,-122"/>
<text text-anchor="middle" x="2379" y="-99.8" font-family="Times,serif" font-size="14.00">FormsModule</text>
</g>
<!-- FormsModule&#45;&gt;PedidosModule -->
<g id="edge9" class="edge">
<title>FormsModule&#45;&gt;PedidosModule</title>
<path fill="none" stroke="black" d="M2379,-122.02C2379,-139.37 2379,-163 2379,-163 2379,-163 1869.93,-163 1869.93,-163"/>
<polygon fill="black" stroke="black" points="1869.93,-159.5 1859.93,-163 1869.93,-166.5 1869.93,-159.5"/>
</g>
<!-- PedidosRoutingModule -->
<g id="node11" class="node">
<title>PedidosRoutingModule</title>
<polygon fill="#8dd3c7" stroke="black" points="2313.5,-122 2310.5,-126 2289.5,-126 2286.5,-122 2164.5,-122 2164.5,-86 2313.5,-86 2313.5,-122"/>
<text text-anchor="middle" x="2239" y="-99.8" font-family="Times,serif" font-size="14.00">PedidosRoutingModule</text>
</g>
<!-- PedidosRoutingModule&#45;&gt;PedidosModule -->
<g id="edge10" class="edge">
<title>PedidosRoutingModule&#45;&gt;PedidosModule</title>
<path fill="none" stroke="black" d="M2239,-122.03C2239,-138.4 2239,-160 2239,-160 2239,-160 1869.99,-160 1869.99,-160"/>
<polygon fill="black" stroke="black" points="1869.99,-156.5 1859.99,-160 1869.99,-163.5 1869.99,-156.5"/>
</g>
<!-- NgTemplateOutlet -->
<g id="node12" class="node">
<title>NgTemplateOutlet</title>
<polygon fill="#8dd3c7" stroke="black" points="2146.47,-122 2143.47,-126 2122.47,-126 2119.47,-122 2025.53,-122 2025.53,-86 2146.47,-86 2146.47,-122"/>
<text text-anchor="middle" x="2086" y="-99.8" font-family="Times,serif" font-size="14.00">NgTemplateOutlet</text>
</g>
<!-- NgTemplateOutlet&#45;&gt;PedidosModule -->
<g id="edge11" class="edge">
<title>NgTemplateOutlet&#45;&gt;PedidosModule</title>
<path fill="none" stroke="black" d="M2086,-122.24C2086,-137.57 2086,-157 2086,-157 2086,-157 1869.96,-157 1869.96,-157"/>
<polygon fill="black" stroke="black" points="1869.96,-153.5 1859.96,-157 1869.96,-160.5 1869.96,-153.5"/>
</g>
<!-- MatSidenavModule -->
<g id="node13" class="node">
<title>MatSidenavModule</title>
<polygon fill="#8dd3c7" stroke="black" points="2007.7,-122 2004.7,-126 1983.7,-126 1980.7,-122 1880.3,-122 1880.3,-86 2007.7,-86 2007.7,-122"/>
<text text-anchor="middle" x="1944" y="-99.8" font-family="Times,serif" font-size="14.00">MatSidenavModule</text>
</g>
<!-- MatSidenavModule&#45;&gt;PedidosModule -->
<g id="edge12" class="edge">
<title>MatSidenavModule&#45;&gt;PedidosModule</title>
<path fill="none" stroke="black" d="M1944,-122.05C1944,-136.37 1944,-154 1944,-154 1944,-154 1870.19,-154 1870.19,-154"/>
<polygon fill="black" stroke="black" points="1870.19,-150.5 1860.19,-154 1870.19,-157.5 1870.19,-150.5"/>
</g>
<!-- MatTabsModule -->
<g id="node14" class="node">
<title>MatTabsModule</title>
<polygon fill="#8dd3c7" stroke="black" points="1862.81,-122 1859.81,-126 1838.81,-126 1835.81,-122 1753.19,-122 1753.19,-86 1862.81,-86 1862.81,-122"/>
<text text-anchor="middle" x="1808" y="-99.8" font-family="Times,serif" font-size="14.00">MatTabsModule</text>
</g>
<!-- MatTabsModule&#45;&gt;PedidosModule -->
<g id="edge13" class="edge">
<title>MatTabsModule&#45;&gt;PedidosModule</title>
<path fill="none" stroke="black" d="M1808,-122.11C1808,-122.11 1808,-140.99 1808,-140.99"/>
<polygon fill="black" stroke="black" points="1804.5,-140.99 1808,-150.99 1811.5,-140.99 1804.5,-140.99"/>
</g>
<!-- MatIconModule -->
<g id="node15" class="node">
<title>MatIconModule</title>
<polygon fill="#8dd3c7" stroke="black" points="1735.47,-122 1732.47,-126 1711.47,-126 1708.47,-122 1628.53,-122 1628.53,-86 1735.47,-86 1735.47,-122"/>
<text text-anchor="middle" x="1682" y="-99.8" font-family="Times,serif" font-size="14.00">MatIconModule</text>
</g>
<!-- MatIconModule&#45;&gt;PedidosModule -->
<g id="edge14" class="edge">
<title>MatIconModule&#45;&gt;PedidosModule</title>
<path fill="none" stroke="black" d="M1682,-122.05C1682,-136.37 1682,-154 1682,-154 1682,-154 1746.02,-154 1746.02,-154"/>
<polygon fill="black" stroke="black" points="1746.02,-157.5 1756.02,-154 1746.02,-150.5 1746.02,-157.5"/>
</g>
<!-- MatFormFieldModule -->
<g id="node16" class="node">
<title>MatFormFieldModule</title>
<polygon fill="#8dd3c7" stroke="black" points="1610.71,-122 1607.71,-126 1586.71,-126 1583.71,-122 1469.29,-122 1469.29,-86 1610.71,-86 1610.71,-122"/>
<text text-anchor="middle" x="1540" y="-99.8" font-family="Times,serif" font-size="14.00">MatFormFieldModule</text>
</g>
<!-- MatFormFieldModule&#45;&gt;PedidosModule -->
<g id="edge15" class="edge">
<title>MatFormFieldModule&#45;&gt;PedidosModule</title>
<path fill="none" stroke="black" d="M1540,-122.24C1540,-137.57 1540,-157 1540,-157 1540,-157 1746.01,-157 1746.01,-157"/>
<polygon fill="black" stroke="black" points="1746.01,-160.5 1756.01,-157 1746.01,-153.5 1746.01,-160.5"/>
</g>
<!-- MatInputModule -->
<g id="node17" class="node">
<title>MatInputModule</title>
<polygon fill="#8dd3c7" stroke="black" points="1451.65,-122 1448.65,-126 1427.65,-126 1424.65,-122 1340.35,-122 1340.35,-86 1451.65,-86 1451.65,-122"/>
<text text-anchor="middle" x="1396" y="-99.8" font-family="Times,serif" font-size="14.00">MatInputModule</text>
</g>
<!-- MatInputModule&#45;&gt;PedidosModule -->
<g id="edge16" class="edge">
<title>MatInputModule&#45;&gt;PedidosModule</title>
<path fill="none" stroke="black" d="M1396,-122.03C1396,-138.4 1396,-160 1396,-160 1396,-160 1745.82,-160 1745.82,-160"/>
<polygon fill="black" stroke="black" points="1745.82,-163.5 1755.82,-160 1745.82,-156.5 1745.82,-163.5"/>
</g>
<!-- MatButtonModule -->
<g id="node18" class="node">
<title>MatButtonModule</title>
<polygon fill="#8dd3c7" stroke="black" points="1322.22,-122 1319.22,-126 1298.22,-126 1295.22,-122 1201.78,-122 1201.78,-86 1322.22,-86 1322.22,-122"/>
<text text-anchor="middle" x="1262" y="-99.8" font-family="Times,serif" font-size="14.00">MatButtonModule</text>
</g>
<!-- MatButtonModule&#45;&gt;PedidosModule -->
<g id="edge17" class="edge">
<title>MatButtonModule&#45;&gt;PedidosModule</title>
<path fill="none" stroke="black" d="M1262,-122.02C1262,-139.37 1262,-163 1262,-163 1262,-163 1745.65,-163 1745.65,-163"/>
<polygon fill="black" stroke="black" points="1745.65,-166.5 1755.65,-163 1745.65,-159.5 1745.65,-166.5"/>
</g>
<!-- MatDividerModule -->
<g id="node19" class="node">
<title>MatDividerModule</title>
<polygon fill="#8dd3c7" stroke="black" points="1183.36,-122 1180.36,-126 1159.36,-126 1156.36,-122 1058.64,-122 1058.64,-86 1183.36,-86 1183.36,-122"/>
<text text-anchor="middle" x="1121" y="-99.8" font-family="Times,serif" font-size="14.00">MatDividerModule</text>
</g>
<!-- MatDividerModule&#45;&gt;PedidosModule -->
<g id="edge18" class="edge">
<title>MatDividerModule&#45;&gt;PedidosModule</title>
<path fill="none" stroke="black" d="M1121,-122.3C1121,-140.27 1121,-165 1121,-165 1121,-165 1746.08,-165 1746.08,-165"/>
<polygon fill="black" stroke="black" points="1746.08,-168.5 1756.08,-165 1746.08,-161.5 1746.08,-168.5"/>
</g>
<!-- MatButtonToggleModule -->
<g id="node20" class="node">
<title>MatButtonToggleModule</title>
<polygon fill="#8dd3c7" stroke="black" points="1040.88,-122 1037.88,-126 1016.88,-126 1013.88,-122 881.12,-122 881.12,-86 1040.88,-86 1040.88,-122"/>
<text text-anchor="middle" x="961" y="-99.8" font-family="Times,serif" font-size="14.00">MatButtonToggleModule</text>
</g>
<!-- MatButtonToggleModule&#45;&gt;PedidosModule -->
<g id="edge19" class="edge">
<title>MatButtonToggleModule&#45;&gt;PedidosModule</title>
<path fill="none" stroke="black" d="M961,-122.17C961,-141.09 961,-168 961,-168 961,-168 1745.97,-168 1745.97,-168"/>
<polygon fill="black" stroke="black" points="1745.97,-171.5 1755.97,-168 1745.97,-164.5 1745.97,-171.5"/>
</g>
<!-- MatCheckboxModule -->
<g id="node21" class="node">
<title>MatCheckboxModule</title>
<polygon fill="#8dd3c7" stroke="black" points="863.37,-122 860.37,-126 839.37,-126 836.37,-122 724.63,-122 724.63,-86 863.37,-86 863.37,-122"/>
<text text-anchor="middle" x="794" y="-99.8" font-family="Times,serif" font-size="14.00">MatCheckboxModule</text>
</g>
<!-- MatCheckboxModule&#45;&gt;PedidosModule -->
<g id="edge20" class="edge">
<title>MatCheckboxModule&#45;&gt;PedidosModule</title>
<path fill="none" stroke="black" d="M794,-122.31C794,-142.15 794,-171 794,-171 794,-171 1745.97,-171 1745.97,-171"/>
<polygon fill="black" stroke="black" points="1745.97,-174.5 1755.97,-171 1745.97,-167.5 1745.97,-174.5"/>
</g>
<!-- MatExpansionModule -->
<g id="node22" class="node">
<title>MatExpansionModule</title>
<polygon fill="#8dd3c7" stroke="black" points="706.7,-122 703.7,-126 682.7,-126 679.7,-122 565.3,-122 565.3,-86 706.7,-86 706.7,-122"/>
<text text-anchor="middle" x="636" y="-99.8" font-family="Times,serif" font-size="14.00">MatExpansionModule</text>
</g>
<!-- MatExpansionModule&#45;&gt;PedidosModule -->
<g id="edge21" class="edge">
<title>MatExpansionModule&#45;&gt;PedidosModule</title>
<path fill="none" stroke="black" d="M636,-122.03C636,-142.77 636,-174 636,-174 636,-174 1745.75,-174 1745.75,-174"/>
<polygon fill="black" stroke="black" points="1745.75,-177.5 1755.75,-174 1745.75,-170.5 1745.75,-177.5"/>
</g>
<!-- MatCardModule -->
<g id="node23" class="node">
<title>MatCardModule</title>
<polygon fill="#8dd3c7" stroke="black" points="547.81,-122 544.81,-126 523.81,-126 520.81,-122 438.19,-122 438.19,-86 547.81,-86 547.81,-122"/>
<text text-anchor="middle" x="493" y="-99.8" font-family="Times,serif" font-size="14.00">MatCardModule</text>
</g>
<!-- MatCardModule&#45;&gt;PedidosModule -->
<g id="edge22" class="edge">
<title>MatCardModule&#45;&gt;PedidosModule</title>
<path fill="none" stroke="black" d="M493,-122.17C493,-143.5 493,-176 493,-176 493,-176 1746.05,-176 1746.05,-176"/>
<polygon fill="black" stroke="black" points="1746.05,-179.5 1756.05,-176 1746.05,-172.5 1746.05,-179.5"/>
</g>
<!-- MatChipsModule -->
<g id="node24" class="node">
<title>MatChipsModule</title>
<polygon fill="#8dd3c7" stroke="black" points="420.27,-122 417.27,-126 396.27,-126 393.27,-122 305.73,-122 305.73,-86 420.27,-86 420.27,-122"/>
<text text-anchor="middle" x="363" y="-99.8" font-family="Times,serif" font-size="14.00">MatChipsModule</text>
</g>
<!-- MatChipsModule&#45;&gt;PedidosModule -->
<g id="edge23" class="edge">
<title>MatChipsModule&#45;&gt;PedidosModule</title>
<path fill="none" stroke="black" d="M363,-122.16C363,-144.35 363,-179 363,-179 363,-179 1745.72,-179 1745.72,-179"/>
<polygon fill="black" stroke="black" points="1745.72,-182.5 1755.72,-179 1745.72,-175.5 1745.72,-182.5"/>
</g>
<!-- MatProgressBarModule -->
<g id="node25" class="node">
<title>MatProgressBarModule</title>
<polygon fill="#8dd3c7" stroke="black" points="287.02,-122 284.02,-126 263.02,-126 260.02,-122 136.98,-122 136.98,-86 287.02,-86 287.02,-122"/>
<text text-anchor="middle" x="212" y="-99.8" font-family="Times,serif" font-size="14.00">MatProgressBarModule</text>
</g>
<!-- MatProgressBarModule&#45;&gt;PedidosModule -->
<g id="edge24" class="edge">
<title>MatProgressBarModule&#45;&gt;PedidosModule</title>
<path fill="none" stroke="black" d="M212,-122.09C212,-145.13 212,-182 212,-182 212,-182 1745.81,-182 1745.81,-182"/>
<polygon fill="black" stroke="black" points="1745.81,-185.5 1755.81,-182 1745.81,-178.5 1745.81,-185.5"/>
</g>
<!-- PratosModule -->
<g id="node26" class="node">
<title>PratosModule</title>
<polygon fill="#8dd3c7" stroke="black" points="118.04,-122 115.04,-126 94.04,-126 91.04,-122 23.96,-122 23.96,-86 118.04,-86 118.04,-122"/>
<text text-anchor="middle" x="71" y="-99.8" font-family="Times,serif" font-size="14.00">PratosModule</text>
</g>
<!-- PratosModule&#45;&gt;PedidosModule -->
<g id="edge25" class="edge">
<title>PratosModule&#45;&gt;PedidosModule</title>
<path fill="none" stroke="black" d="M71,-122.38C71,-146.28 71,-185 71,-185 71,-185 1746.02,-185 1746.02,-185"/>
<polygon fill="black" stroke="black" points="1746.02,-188.5 1756.02,-185 1746.02,-181.5 1746.02,-188.5"/>
</g>
</g>
</svg>
