<?xml version="1.0" encoding="UTF-8" standalone="no"?>
<!DOCTYPE svg PUBLIC "-//W3C//DTD SVG 1.1//EN"
 "http://www.w3.org/Graphics/SVG/1.1/DTD/svg11.dtd">
<!-- Generated by graphviz version 2.47.0 (20210316.0004)
 -->
<!-- Title: dependencies Pages: 1 -->
<svg width="632pt" height="349pt"
 viewBox="0.00 0.00 632.00 349.00" xmlns="http://www.w3.org/2000/svg" xmlns:xlink="http://www.w3.org/1999/xlink">
<g id="graph0" class="graph" transform="scale(1 1) rotate(0) translate(4 345)">
<title>dependencies</title>
<polygon fill="white" stroke="transparent" points="-4,4 -4,-345 628,-345 628,4 -4,4"/>
<text text-anchor="start" x="291.01" y="-42.4" font-family="Times-12" font-weight="bold" font-size="14.00">Legend</text>
<polygon fill="#ffffb3" stroke="transparent" points="78,-10 78,-30 98,-30 98,-10 78,-10"/>
<text text-anchor="start" x="101.63" y="-15.4" font-family="Times-12" font-size="14.00"> &#160;Declarations</text>
<polygon fill="#8dd3c7" stroke="transparent" points="191,-10 191,-30 211,-30 211,-10 191,-10"/>
<text text-anchor="start" x="214.73" y="-15.4" font-family="Times-12" font-size="14.00"> &#160;Module</text>
<polygon fill="#80b1d3" stroke="transparent" points="277,-10 277,-30 297,-30 297,-10 277,-10"/>
<text text-anchor="start" x="300.78" y="-15.4" font-family="Times-12" font-size="14.00"> &#160;Bootstrap</text>
<polygon fill="#fdb462" stroke="transparent" points="374,-10 374,-30 394,-30 394,-10 374,-10"/>
<text text-anchor="start" x="397.67" y="-15.4" font-family="Times-12" font-size="14.00"> &#160;Providers</text>
<polygon fill="#fb8072" stroke="transparent" points="470,-10 470,-30 490,-30 490,-10 470,-10"/>
<text text-anchor="start" x="493.73" y="-15.4" font-family="Times-12" font-size="14.00"> &#160;Exports</text>
<g id="clust1" class="cluster">
<title>cluster_ImagekitioAngularModule</title>
<polygon fill="none" stroke="black" stroke-dasharray="1,5" points="8,-70 8,-333 616,-333 616,-70 8,-70"/>
</g>
<g id="clust6" class="cluster">
<title>cluster_ImagekitioAngularModule_imports</title>
<polygon fill="none" stroke="black" points="480,-143 480,-195 608,-195 608,-143 480,-143"/>
</g>
<g id="clust2" class="cluster">
<title>cluster_ImagekitioAngularModule_declarations</title>
<polygon fill="none" stroke="black" points="16,-143 16,-195 458,-195 458,-143 16,-143"/>
</g>
<g id="clust3" class="cluster">
<title>cluster_ImagekitioAngularModule_IkUploadComponent_providers</title>
<polygon fill="none" stroke="black" points="344,-78 344,-130 508,-130 508,-78 344,-78"/>
</g>
<g id="clust7" class="cluster">
<title>cluster_ImagekitioAngularModule_exports</title>
<polygon fill="none" stroke="black" points="156,-273 156,-325 608,-325 608,-273 156,-273"/>
</g>
<!-- IkUploadComponent -->
<g id="node1" class="node">
<title>IkUploadComponent</title>
<polygon fill="#ffffb3" stroke="black" points="450.2,-187 315.8,-187 315.8,-151 450.2,-151 450.2,-187"/>
<text text-anchor="middle" x="383" y="-164.8" font-family="Times,serif" font-size="14.00">IkUploadComponent</text>
</g>
<!-- ImagekitioAngularModule -->
<g id="node4" class="node">
<title>ImagekitioAngularModule</title>
<polygon fill="#8dd3c7" stroke="black" points="463.07,-252 460.07,-256 439.07,-256 436.07,-252 296.93,-252 296.93,-216 463.07,-216 463.07,-252"/>
<text text-anchor="middle" x="380" y="-229.8" font-family="Times,serif" font-size="14.00">ImagekitioAngularModule</text>
</g>
<!-- IkUploadComponent&#45;&gt;ImagekitioAngularModule -->
<g id="edge1" class="edge">
<title>IkUploadComponent&#45;&gt;ImagekitioAngularModule</title>
<path fill="none" stroke="black" d="M383,-187.11C383,-187.11 383,-205.99 383,-205.99"/>
<polygon fill="black" stroke="black" points="379.5,-205.99 383,-215.99 386.5,-205.99 379.5,-205.99"/>
</g>
<!-- IkImageComponent -->
<g id="node2" class="node">
<title>IkImageComponent</title>
<polygon fill="#ffffb3" stroke="black" points="297.97,-187 170.03,-187 170.03,-151 297.97,-151 297.97,-187"/>
<text text-anchor="middle" x="234" y="-164.8" font-family="Times,serif" font-size="14.00">IkImageComponent</text>
</g>
<!-- IkImageComponent&#45;&gt;ImagekitioAngularModule -->
<g id="edge3" class="edge">
<title>IkImageComponent&#45;&gt;ImagekitioAngularModule</title>
<path fill="none" stroke="black" d="M298,-169C303.45,-169 306.94,-169 306.94,-169 306.94,-169 306.94,-205.89 306.94,-205.89"/>
<polygon fill="black" stroke="black" points="303.44,-205.89 306.94,-215.89 310.44,-205.89 303.44,-205.89"/>
</g>
<!-- IkVideoComponent -->
<g id="node3" class="node">
<title>IkVideoComponent</title>
<polygon fill="#ffffb3" stroke="black" points="151.7,-187 24.3,-187 24.3,-151 151.7,-151 151.7,-187"/>
<text text-anchor="middle" x="88" y="-164.8" font-family="Times,serif" font-size="14.00">IkVideoComponent</text>
</g>
<!-- IkVideoComponent&#45;&gt;ImagekitioAngularModule -->
<g id="edge4" class="edge">
<title>IkVideoComponent&#45;&gt;ImagekitioAngularModule</title>
<path fill="none" stroke="black" d="M88,-187.11C88,-206.34 88,-234 88,-234 88,-234 286.72,-234 286.72,-234"/>
<polygon fill="black" stroke="black" points="286.72,-237.5 296.72,-234 286.72,-230.5 286.72,-237.5"/>
</g>
<!-- IkUploadComponent  -->
<g id="node7" class="node">
<title>IkUploadComponent </title>
<polygon fill="#fb8072" stroke="black" points="599.71,-317 462.29,-317 462.29,-281 599.71,-281 599.71,-317"/>
<text text-anchor="middle" x="531" y="-294.8" font-family="Times,serif" font-size="14.00">IkUploadComponent </text>
</g>
<!-- ImagekitioAngularModule&#45;&gt;IkUploadComponent  -->
<g id="edge6" class="edge">
<title>ImagekitioAngularModule&#45;&gt;IkUploadComponent </title>
<path fill="none" stroke="black" stroke-dasharray="5,2" d="M452.94,-252.11C452.94,-271.34 452.94,-299 452.94,-299 452.94,-299 453.87,-299 453.87,-299"/>
<polygon fill="black" stroke="black" points="452.2,-302.5 462.2,-299 452.2,-295.5 452.2,-302.5"/>
</g>
<!-- IkImageComponent  -->
<g id="node8" class="node">
<title>IkImageComponent </title>
<polygon fill="#fb8072" stroke="black" points="443.97,-317 312.03,-317 312.03,-281 443.97,-281 443.97,-317"/>
<text text-anchor="middle" x="378" y="-294.8" font-family="Times,serif" font-size="14.00">IkImageComponent </text>
</g>
<!-- ImagekitioAngularModule&#45;&gt;IkImageComponent  -->
<g id="edge7" class="edge">
<title>ImagekitioAngularModule&#45;&gt;IkImageComponent </title>
<path fill="none" stroke="black" stroke-dasharray="5,2" d="M378,-252.11C378,-252.11 378,-270.99 378,-270.99"/>
<polygon fill="black" stroke="black" points="374.5,-270.99 378,-280.99 381.5,-270.99 374.5,-270.99"/>
</g>
<!-- IkVideoComponent  -->
<g id="node9" class="node">
<title>IkVideoComponent </title>
<polygon fill="#fb8072" stroke="black" points="294.21,-317 163.79,-317 163.79,-281 294.21,-281 294.21,-317"/>
<text text-anchor="middle" x="229" y="-294.8" font-family="Times,serif" font-size="14.00">IkVideoComponent </text>
</g>
<!-- ImagekitioAngularModule&#45;&gt;IkVideoComponent  -->
<g id="edge8" class="edge">
<title>ImagekitioAngularModule&#45;&gt;IkVideoComponent </title>
<path fill="none" stroke="black" stroke-dasharray="5,2" d="M304.61,-252.11C304.61,-271.34 304.61,-299 304.61,-299 304.61,-299 303.59,-299 303.59,-299"/>
<polygon fill="black" stroke="black" points="304.42,-295.5 294.42,-299 304.42,-302.5 304.42,-295.5"/>
</g>
<!-- ImagekitService -->
<g id="node5" class="node">
<title>ImagekitService</title>
<ellipse fill="#fdb462" stroke="black" cx="426" cy="-104" rx="74.13" ry="18"/>
<text text-anchor="middle" x="426" y="-99.8" font-family="Times,serif" font-size="14.00">ImagekitService</text>
</g>
<!-- ImagekitService&#45;&gt;IkUploadComponent -->
<g id="edge2" class="edge">
<title>ImagekitService&#45;&gt;IkUploadComponent</title>
<path fill="none" stroke="black" d="M400.89,-121.08C400.89,-121.08 400.89,-140.9 400.89,-140.9"/>
<polygon fill="black" stroke="black" points="397.39,-140.9 400.89,-150.9 404.39,-140.9 397.39,-140.9"/>
</g>
<!-- ImagekitService&#45;&gt;ImagekitioAngularModule -->
<g id="edge9" class="edge">
<title>ImagekitService&#45;&gt;ImagekitioAngularModule</title>
<path fill="none" stroke="black" d="M454.41,-120.73C454.41,-120.73 454.41,-205.66 454.41,-205.66"/>
<polygon fill="black" stroke="black" points="450.91,-205.66 454.41,-215.66 457.91,-205.66 450.91,-205.66"/>
</g>
<!-- CommonModule -->
<g id="node6" class="node">
<title>CommonModule</title>
<polygon fill="#8dd3c7" stroke="black" points="599.67,-187 596.67,-191 575.67,-191 572.67,-187 488.33,-187 488.33,-151 599.67,-151 599.67,-187"/>
<text text-anchor="middle" x="544" y="-164.8" font-family="Times,serif" font-size="14.00">CommonModule</text>
</g>
<!-- CommonModule&#45;&gt;ImagekitioAngularModule -->
<g id="edge5" class="edge">
<title>CommonModule&#45;&gt;ImagekitioAngularModule</title>
<path fill="none" stroke="black" d="M488.07,-169C472,-169 458.73,-169 458.73,-169 458.73,-169 458.73,-205.89 458.73,-205.89"/>
<polygon fill="black" stroke="black" points="455.23,-205.89 458.73,-215.89 462.23,-205.89 455.23,-205.89"/>
</g>
</g>
</svg>
