<?xml version="1.0" encoding="UTF-8" standalone="no"?>
<!DOCTYPE svg PUBLIC "-//W3C//DTD SVG 1.1//EN"
 "http://www.w3.org/Graphics/SVG/1.1/DTD/svg11.dtd">
<!-- Generated by graphviz version 2.47.0 (20210316.0004)
 -->
<!-- Title: dependencies Pages: 1 -->
<svg width="2469pt" height="211pt"
 viewBox="0.00 0.00 2469.00 211.00" xmlns="http://www.w3.org/2000/svg" xmlns:xlink="http://www.w3.org/1999/xlink">
<g id="graph0" class="graph" transform="scale(1 1) rotate(0) translate(4 207)">
<title>dependencies</title>
<polygon fill="white" stroke="transparent" points="-4,4 -4,-207 2465,-207 2465,4 -4,4"/>
<text text-anchor="start" x="1209.51" y="-42.4" font-family="Times-12" font-weight="bold" font-size="14.00">Legend</text>
<polygon fill="#ffffb3" stroke="transparent" points="996.5,-10 996.5,-30 1016.5,-30 1016.5,-10 996.5,-10"/>
<text text-anchor="start" x="1020.13" y="-15.4" font-family="Times-12" font-size="14.00"> &#160;Declarations</text>
<polygon fill="#8dd3c7" stroke="transparent" points="1109.5,-10 1109.5,-30 1129.5,-30 1129.5,-10 1109.5,-10"/>
<text text-anchor="start" x="1133.23" y="-15.4" font-family="Times-12" font-size="14.00"> &#160;Module</text>
<polygon fill="#80b1d3" stroke="transparent" points="1195.5,-10 1195.5,-30 1215.5,-30 1215.5,-10 1195.5,-10"/>
<text text-anchor="start" x="1219.28" y="-15.4" font-family="Times-12" font-size="14.00"> &#160;Bootstrap</text>
<polygon fill="#fdb462" stroke="transparent" points="1292.5,-10 1292.5,-30 1312.5,-30 1312.5,-10 1292.5,-10"/>
<text text-anchor="start" x="1316.17" y="-15.4" font-family="Times-12" font-size="14.00"> &#160;Providers</text>
<polygon fill="#fb8072" stroke="transparent" points="1388.5,-10 1388.5,-30 1408.5,-30 1408.5,-10 1388.5,-10"/>
<text text-anchor="start" x="1412.23" y="-15.4" font-family="Times-12" font-size="14.00"> &#160;Exports</text>
<g id="clust1" class="cluster">
<title>cluster_IngredienteModule</title>
<polygon fill="none" stroke="black" stroke-dasharray="1,5" points="8,-70 8,-195 2453,-195 2453,-70 8,-70"/>
</g>
<g id="clust5" class="cluster">
<title>cluster_IngredienteModule_imports</title>
<polygon fill="none" stroke="black" points="379,-78 379,-130 2445,-130 2445,-78 379,-78"/>
</g>
<g id="clust2" class="cluster">
<title>cluster_IngredienteModule_declarations</title>
<polygon fill="none" stroke="black" points="16,-78 16,-130 371,-130 371,-78 16,-78"/>
</g>
<!-- IngredienteComponent -->
<g id="node1" class="node">
<title>IngredienteComponent</title>
<polygon fill="#ffffb3" stroke="black" points="362.58,-122 217.42,-122 217.42,-86 362.58,-86 362.58,-122"/>
<text text-anchor="middle" x="290" y="-99.8" font-family="Times,serif" font-size="14.00">IngredienteComponent</text>
</g>
<!-- IngredienteModule -->
<g id="node3" class="node">
<title>IngredienteModule</title>
<polygon fill="#8dd3c7" stroke="black" points="1373.8,-187 1370.8,-191 1349.8,-191 1346.8,-187 1250.2,-187 1250.2,-151 1373.8,-151 1373.8,-187"/>
<text text-anchor="middle" x="1312" y="-164.8" font-family="Times,serif" font-size="14.00">IngredienteModule</text>
</g>
<!-- IngredienteComponent&#45;&gt;IngredienteModule -->
<g id="edge1" class="edge">
<title>IngredienteComponent&#45;&gt;IngredienteModule</title>
<path fill="none" stroke="black" d="M290,-122.29C290,-144.21 290,-178 290,-178 290,-178 1239.99,-178 1239.99,-178"/>
<polygon fill="black" stroke="black" points="1239.99,-181.5 1249.99,-178 1239.99,-174.5 1239.99,-181.5"/>
</g>
<!-- IngredienteFormComponent -->
<g id="node2" class="node">
<title>IngredienteFormComponent</title>
<polygon fill="#ffffb3" stroke="black" points="199.91,-122 24.09,-122 24.09,-86 199.91,-86 199.91,-122"/>
<text text-anchor="middle" x="112" y="-99.8" font-family="Times,serif" font-size="14.00">IngredienteFormComponent</text>
</g>
<!-- IngredienteFormComponent&#45;&gt;IngredienteModule -->
<g id="edge2" class="edge">
<title>IngredienteFormComponent&#45;&gt;IngredienteModule</title>
<path fill="none" stroke="black" d="M112,-122.32C112,-145.66 112,-183 112,-183 112,-183 1240.01,-183 1240.01,-183"/>
<polygon fill="black" stroke="black" points="1240.01,-186.5 1250.01,-183 1240.01,-179.5 1240.01,-186.5"/>
</g>
<!-- IngredienteRoutingModule -->
<g id="node4" class="node">
<title>IngredienteRoutingModule</title>
<polygon fill="#8dd3c7" stroke="black" points="2437.41,-122 2434.41,-126 2413.41,-126 2410.41,-122 2268.59,-122 2268.59,-86 2437.41,-86 2437.41,-122"/>
<text text-anchor="middle" x="2353" y="-99.8" font-family="Times,serif" font-size="14.00">IngredienteRoutingModule</text>
</g>
<!-- IngredienteRoutingModule&#45;&gt;IngredienteModule -->
<g id="edge3" class="edge">
<title>IngredienteRoutingModule&#45;&gt;IngredienteModule</title>
<path fill="none" stroke="black" d="M2353,-122.32C2353,-145.66 2353,-183 2353,-183 2353,-183 1384,-183 1384,-183"/>
<polygon fill="black" stroke="black" points="1384,-179.5 1374,-183 1384,-186.5 1384,-179.5"/>
</g>
<!-- AsyncPipe -->
<g id="node5" class="node">
<title>AsyncPipe</title>
<polygon fill="#8dd3c7" stroke="black" points="2250.15,-122 2247.15,-126 2226.15,-126 2223.15,-122 2173.85,-122 2173.85,-86 2250.15,-86 2250.15,-122"/>
<text text-anchor="middle" x="2212" y="-99.8" font-family="Times,serif" font-size="14.00">AsyncPipe</text>
</g>
<!-- AsyncPipe&#45;&gt;IngredienteModule -->
<g id="edge4" class="edge">
<title>AsyncPipe&#45;&gt;IngredienteModule</title>
<path fill="none" stroke="black" d="M2212,-122.29C2212,-144.21 2212,-178 2212,-178 2212,-178 1383.86,-178 1383.86,-178"/>
<polygon fill="black" stroke="black" points="1383.86,-174.5 1373.86,-178 1383.86,-181.5 1383.86,-174.5"/>
</g>
<!-- ReactiveFormsModule -->
<g id="node6" class="node">
<title>ReactiveFormsModule</title>
<polygon fill="#8dd3c7" stroke="black" points="2156.3,-122 2153.3,-126 2132.3,-126 2129.3,-122 2011.7,-122 2011.7,-86 2156.3,-86 2156.3,-122"/>
<text text-anchor="middle" x="2084" y="-99.8" font-family="Times,serif" font-size="14.00">ReactiveFormsModule</text>
</g>
<!-- ReactiveFormsModule&#45;&gt;IngredienteModule -->
<g id="edge5" class="edge">
<title>ReactiveFormsModule&#45;&gt;IngredienteModule</title>
<path fill="none" stroke="black" d="M2084,-122.03C2084,-142.77 2084,-174 2084,-174 2084,-174 1383.87,-174 1383.87,-174"/>
<polygon fill="black" stroke="black" points="1383.87,-170.5 1373.87,-174 1383.87,-177.5 1383.87,-170.5"/>
</g>
<!-- MatListModule -->
<g id="node7" class="node">
<title>MatListModule</title>
<polygon fill="#8dd3c7" stroke="black" points="1993.88,-122 1990.88,-126 1969.88,-126 1966.88,-122 1890.12,-122 1890.12,-86 1993.88,-86 1993.88,-122"/>
<text text-anchor="middle" x="1942" y="-99.8" font-family="Times,serif" font-size="14.00">MatListModule</text>
</g>
<!-- MatListModule&#45;&gt;IngredienteModule -->
<g id="edge6" class="edge">
<title>MatListModule&#45;&gt;IngredienteModule</title>
<path fill="none" stroke="black" d="M1942,-122.11C1942,-141.34 1942,-169 1942,-169 1942,-169 1383.84,-169 1383.84,-169"/>
<polygon fill="black" stroke="black" points="1383.84,-165.5 1373.84,-169 1383.84,-172.5 1383.84,-165.5"/>
</g>
<!-- MatButtonModule -->
<g id="node8" class="node">
<title>MatButtonModule</title>
<polygon fill="#8dd3c7" stroke="black" points="1872.22,-122 1869.22,-126 1848.22,-126 1845.22,-122 1751.78,-122 1751.78,-86 1872.22,-86 1872.22,-122"/>
<text text-anchor="middle" x="1812" y="-99.8" font-family="Times,serif" font-size="14.00">MatButtonModule</text>
</g>
<!-- MatButtonModule&#45;&gt;IngredienteModule -->
<g id="edge7" class="edge">
<title>MatButtonModule&#45;&gt;IngredienteModule</title>
<path fill="none" stroke="black" d="M1812,-122.3C1812,-140.27 1812,-165 1812,-165 1812,-165 1383.81,-165 1383.81,-165"/>
<polygon fill="black" stroke="black" points="1383.81,-161.5 1373.81,-165 1383.81,-168.5 1383.81,-161.5"/>
</g>
<!-- MatDividerModule -->
<g id="node9" class="node">
<title>MatDividerModule</title>
<polygon fill="#8dd3c7" stroke="black" points="1733.36,-122 1730.36,-126 1709.36,-126 1706.36,-122 1608.64,-122 1608.64,-86 1733.36,-86 1733.36,-122"/>
<text text-anchor="middle" x="1671" y="-99.8" font-family="Times,serif" font-size="14.00">MatDividerModule</text>
</g>
<!-- MatDividerModule&#45;&gt;IngredienteModule -->
<g id="edge8" class="edge">
<title>MatDividerModule&#45;&gt;IngredienteModule</title>
<path fill="none" stroke="black" d="M1671,-122.03C1671,-138.4 1671,-160 1671,-160 1671,-160 1383.71,-160 1383.71,-160"/>
<polygon fill="black" stroke="black" points="1383.71,-156.5 1373.71,-160 1383.71,-163.5 1383.71,-156.5"/>
</g>
<!-- MatFormFieldModule -->
<g id="node10" class="node">
<title>MatFormFieldModule</title>
<polygon fill="#8dd3c7" stroke="black" points="1590.71,-122 1587.71,-126 1566.71,-126 1563.71,-122 1449.29,-122 1449.29,-86 1590.71,-86 1590.71,-122"/>
<text text-anchor="middle" x="1520" y="-99.8" font-family="Times,serif" font-size="14.00">MatFormFieldModule</text>
</g>
<!-- MatFormFieldModule&#45;&gt;IngredienteModule -->
<g id="edge9" class="edge">
<title>MatFormFieldModule&#45;&gt;IngredienteModule</title>
<path fill="none" stroke="black" d="M1520,-122.19C1520,-137.18 1520,-156 1520,-156 1520,-156 1383.84,-156 1383.84,-156"/>
<polygon fill="black" stroke="black" points="1383.84,-152.5 1373.84,-156 1383.84,-159.5 1383.84,-152.5"/>
</g>
<!-- MatInputModule -->
<g id="node11" class="node">
<title>MatInputModule</title>
<polygon fill="#8dd3c7" stroke="black" points="1431.65,-122 1428.65,-126 1407.65,-126 1404.65,-122 1320.35,-122 1320.35,-86 1431.65,-86 1431.65,-122"/>
<text text-anchor="middle" x="1376" y="-99.8" font-family="Times,serif" font-size="14.00">MatInputModule</text>
</g>
<!-- MatInputModule&#45;&gt;IngredienteModule -->
<g id="edge10" class="edge">
<title>MatInputModule&#45;&gt;IngredienteModule</title>
<path fill="none" stroke="black" d="M1346.91,-122.11C1346.91,-122.11 1346.91,-140.99 1346.91,-140.99"/>
<polygon fill="black" stroke="black" points="1343.41,-140.99 1346.91,-150.99 1350.41,-140.99 1343.41,-140.99"/>
</g>
<!-- MatIconModule -->
<g id="node12" class="node">
<title>MatIconModule</title>
<polygon fill="#8dd3c7" stroke="black" points="1302.47,-122 1299.47,-126 1278.47,-126 1275.47,-122 1195.53,-122 1195.53,-86 1302.47,-86 1302.47,-122"/>
<text text-anchor="middle" x="1249" y="-99.8" font-family="Times,serif" font-size="14.00">MatIconModule</text>
</g>
<!-- MatIconModule&#45;&gt;IngredienteModule -->
<g id="edge11" class="edge">
<title>MatIconModule&#45;&gt;IngredienteModule</title>
<path fill="none" stroke="black" d="M1276.42,-122.11C1276.42,-122.11 1276.42,-140.99 1276.42,-140.99"/>
<polygon fill="black" stroke="black" points="1272.92,-140.99 1276.42,-150.99 1279.92,-140.99 1272.92,-140.99"/>
</g>
<!-- MatSnackBarModule -->
<g id="node13" class="node">
<title>MatSnackBarModule</title>
<polygon fill="#8dd3c7" stroke="black" points="1177.02,-122 1174.02,-126 1153.02,-126 1150.02,-122 1040.98,-122 1040.98,-86 1177.02,-86 1177.02,-122"/>
<text text-anchor="middle" x="1109" y="-99.8" font-family="Times,serif" font-size="14.00">MatSnackBarModule</text>
</g>
<!-- MatSnackBarModule&#45;&gt;IngredienteModule -->
<g id="edge12" class="edge">
<title>MatSnackBarModule&#45;&gt;IngredienteModule</title>
<path fill="none" stroke="black" d="M1109,-122.19C1109,-137.18 1109,-156 1109,-156 1109,-156 1240.27,-156 1240.27,-156"/>
<polygon fill="black" stroke="black" points="1240.27,-159.5 1250.27,-156 1240.27,-152.5 1240.27,-159.5"/>
</g>
<!-- AmsDialogModule -->
<g id="node14" class="node">
<title>AmsDialogModule</title>
<polygon fill="#8dd3c7" stroke="black" points="1023.09,-122 1020.09,-126 999.09,-126 996.09,-122 898.91,-122 898.91,-86 1023.09,-86 1023.09,-122"/>
<text text-anchor="middle" x="961" y="-99.8" font-family="Times,serif" font-size="14.00">AmsDialogModule</text>
</g>
<!-- AmsDialogModule&#45;&gt;IngredienteModule -->
<g id="edge13" class="edge">
<title>AmsDialogModule&#45;&gt;IngredienteModule</title>
<path fill="none" stroke="black" d="M961,-122.03C961,-138.4 961,-160 961,-160 961,-160 1240.06,-160 1240.06,-160"/>
<polygon fill="black" stroke="black" points="1240.06,-163.5 1250.06,-160 1240.06,-156.5 1240.06,-163.5"/>
</g>
<!-- CentralContainerComponent -->
<g id="node15" class="node">
<title>CentralContainerComponent</title>
<polygon fill="#8dd3c7" stroke="black" points="880.75,-122 877.75,-126 856.75,-126 853.75,-122 703.25,-122 703.25,-86 880.75,-86 880.75,-122"/>
<text text-anchor="middle" x="792" y="-99.8" font-family="Times,serif" font-size="14.00">CentralContainerComponent</text>
</g>
<!-- CentralContainerComponent&#45;&gt;IngredienteModule -->
<g id="edge14" class="edge">
<title>CentralContainerComponent&#45;&gt;IngredienteModule</title>
<path fill="none" stroke="black" d="M792,-122.3C792,-140.27 792,-165 792,-165 792,-165 1240.31,-165 1240.31,-165"/>
<polygon fill="black" stroke="black" points="1240.31,-168.5 1250.31,-165 1240.31,-161.5 1240.31,-168.5"/>
</g>
<!-- CentralFormComponent -->
<g id="node16" class="node">
<title>CentralFormComponent</title>
<polygon fill="#8dd3c7" stroke="black" points="685.37,-122 682.37,-126 661.37,-126 658.37,-122 532.63,-122 532.63,-86 685.37,-86 685.37,-122"/>
<text text-anchor="middle" x="609" y="-99.8" font-family="Times,serif" font-size="14.00">CentralFormComponent</text>
</g>
<!-- CentralFormComponent&#45;&gt;IngredienteModule -->
<g id="edge15" class="edge">
<title>CentralFormComponent&#45;&gt;IngredienteModule</title>
<path fill="none" stroke="black" d="M609,-122.11C609,-141.34 609,-169 609,-169 609,-169 1240.23,-169 1240.23,-169"/>
<polygon fill="black" stroke="black" points="1240.23,-172.5 1250.23,-169 1240.23,-165.5 1240.23,-172.5"/>
</g>
<!-- LongPressDirective -->
<g id="node17" class="node">
<title>LongPressDirective</title>
<polygon fill="#8dd3c7" stroke="black" points="514.68,-122 511.68,-126 490.68,-126 487.68,-122 387.32,-122 387.32,-86 514.68,-86 514.68,-122"/>
<text text-anchor="middle" x="451" y="-99.8" font-family="Times,serif" font-size="14.00">LongPressDirective</text>
</g>
<!-- LongPressDirective&#45;&gt;IngredienteModule -->
<g id="edge16" class="edge">
<title>LongPressDirective&#45;&gt;IngredienteModule</title>
<path fill="none" stroke="black" d="M451,-122.03C451,-142.77 451,-174 451,-174 451,-174 1240.08,-174 1240.08,-174"/>
<polygon fill="black" stroke="black" points="1240.08,-177.5 1250.08,-174 1240.08,-170.5 1240.08,-177.5"/>
</g>
</g>
</svg>
