<?xml version="1.0" encoding="UTF-8" standalone="no"?>
<!DOCTYPE svg PUBLIC "-//W3C//DTD SVG 1.1//EN"
 "http://www.w3.org/Graphics/SVG/1.1/DTD/svg11.dtd">
<!-- Generated by graphviz version 2.47.0 (20210316.0004)
 -->
<!-- Title: dependencies Pages: 1 -->
<svg width="2235pt" height="284pt"
 viewBox="0.00 0.00 2235.00 284.00" xmlns="http://www.w3.org/2000/svg" xmlns:xlink="http://www.w3.org/1999/xlink">
<g id="graph0" class="graph" transform="scale(1 1) rotate(0) translate(4 280)">
<title>dependencies</title>
<polygon fill="white" stroke="transparent" points="-4,4 -4,-280 2231,-280 2231,4 -4,4"/>
<text text-anchor="start" x="1092.51" y="-42.4" font-family="Times-12" font-weight="bold" font-size="14.00">Legend</text>
<polygon fill="#ffffb3" stroke="transparent" points="879.5,-10 879.5,-30 899.5,-30 899.5,-10 879.5,-10"/>
<text text-anchor="start" x="903.13" y="-15.4" font-family="Times-12" font-size="14.00"> &#160;Declarations</text>
<polygon fill="#8dd3c7" stroke="transparent" points="992.5,-10 992.5,-30 1012.5,-30 1012.5,-10 992.5,-10"/>
<text text-anchor="start" x="1016.23" y="-15.4" font-family="Times-12" font-size="14.00"> &#160;Module</text>
<polygon fill="#80b1d3" stroke="transparent" points="1078.5,-10 1078.5,-30 1098.5,-30 1098.5,-10 1078.5,-10"/>
<text text-anchor="start" x="1102.28" y="-15.4" font-family="Times-12" font-size="14.00"> &#160;Bootstrap</text>
<polygon fill="#fdb462" stroke="transparent" points="1175.5,-10 1175.5,-30 1195.5,-30 1195.5,-10 1175.5,-10"/>
<text text-anchor="start" x="1199.17" y="-15.4" font-family="Times-12" font-size="14.00"> &#160;Providers</text>
<polygon fill="#fb8072" stroke="transparent" points="1271.5,-10 1271.5,-30 1291.5,-30 1291.5,-10 1271.5,-10"/>
<text text-anchor="start" x="1295.23" y="-15.4" font-family="Times-12" font-size="14.00"> &#160;Exports</text>
<g id="clust1" class="cluster">
<title>cluster_AppModule</title>
<polygon fill="none" stroke="black" stroke-dasharray="1,5" points="8,-70 8,-268 2219,-268 2219,-70 8,-70"/>
</g>
<g id="clust2" class="cluster">
<title>cluster_AppModule_declarations</title>
<polygon fill="none" stroke="black" points="2089,-78 2089,-130 2211,-130 2211,-78 2089,-78"/>
</g>
<g id="clust4" class="cluster">
<title>cluster_AppModule_imports</title>
<polygon fill="none" stroke="black" points="554,-78 554,-130 2081,-130 2081,-78 554,-78"/>
</g>
<g id="clust7" class="cluster">
<title>cluster_AppModule_providers</title>
<polygon fill="none" stroke="black" points="16,-78 16,-130 546,-130 546,-78 16,-78"/>
</g>
<g id="clust6" class="cluster">
<title>cluster_AppModule_bootstrap</title>
<polygon fill="none" stroke="black" points="1188,-208 1188,-260 1312,-260 1312,-208 1188,-208"/>
</g>
<!-- AppComponent -->
<g id="node1" class="node">
<title>AppComponent</title>
<polygon fill="#ffffb3" stroke="black" points="2202.94,-122 2097.06,-122 2097.06,-86 2202.94,-86 2202.94,-122"/>
<text text-anchor="middle" x="2150" y="-99.8" font-family="Times,serif" font-size="14.00">AppComponent</text>
</g>
<!-- AppModule -->
<g id="node2" class="node">
<title>AppModule</title>
<polygon fill="#8dd3c7" stroke="black" points="1291.66,-187 1288.66,-191 1267.66,-191 1264.66,-187 1208.34,-187 1208.34,-151 1291.66,-151 1291.66,-187"/>
<text text-anchor="middle" x="1250" y="-164.8" font-family="Times,serif" font-size="14.00">AppModule</text>
</g>
<!-- AppComponent&#45;&gt;AppModule -->
<g id="edge1" class="edge">
<title>AppComponent&#45;&gt;AppModule</title>
<path fill="none" stroke="black" d="M2150,-122.09C2150,-145.13 2150,-182 2150,-182 2150,-182 1301.9,-182 1301.9,-182"/>
<polygon fill="black" stroke="black" points="1301.9,-178.5 1291.9,-182 1301.9,-185.5 1301.9,-178.5"/>
</g>
<!-- AppComponent  -->
<g id="node13" class="node">
<title>AppComponent </title>
<polygon fill="#80b1d3" stroke="black" points="1304.44,-252 1195.56,-252 1195.56,-216 1304.44,-216 1304.44,-252"/>
<text text-anchor="middle" x="1250" y="-229.8" font-family="Times,serif" font-size="14.00">AppComponent </text>
</g>
<!-- AppModule&#45;&gt;AppComponent  -->
<g id="edge12" class="edge">
<title>AppModule&#45;&gt;AppComponent </title>
<path fill="none" stroke="black" stroke-dasharray="1,5" d="M1250,-187.11C1250,-187.11 1250,-205.99 1250,-205.99"/>
<polygon fill="black" stroke="black" points="1246.5,-205.99 1250,-215.99 1253.5,-205.99 1246.5,-205.99"/>
</g>
<!-- BrowserModule -->
<g id="node3" class="node">
<title>BrowserModule</title>
<polygon fill="#8dd3c7" stroke="black" points="2073.47,-122 2070.47,-126 2049.47,-126 2046.47,-122 1966.53,-122 1966.53,-86 2073.47,-86 2073.47,-122"/>
<text text-anchor="middle" x="2020" y="-99.8" font-family="Times,serif" font-size="14.00">BrowserModule</text>
</g>
<!-- BrowserModule&#45;&gt;AppModule -->
<g id="edge2" class="edge">
<title>BrowserModule&#45;&gt;AppModule</title>
<path fill="none" stroke="black" d="M2020,-122.04C2020,-143.66 2020,-177 2020,-177 2020,-177 1301.67,-177 1301.67,-177"/>
<polygon fill="black" stroke="black" points="1301.67,-173.5 1291.67,-177 1301.67,-180.5 1301.67,-173.5"/>
</g>
<!-- AppRoutingModule -->
<g id="node4" class="node">
<title>AppRoutingModule</title>
<polygon fill="#8dd3c7" stroke="black" points="1948.27,-122 1945.27,-126 1924.27,-126 1921.27,-122 1819.73,-122 1819.73,-86 1948.27,-86 1948.27,-122"/>
<text text-anchor="middle" x="1884" y="-99.8" font-family="Times,serif" font-size="14.00">AppRoutingModule</text>
</g>
<!-- AppRoutingModule&#45;&gt;AppModule -->
<g id="edge3" class="edge">
<title>AppRoutingModule&#45;&gt;AppModule</title>
<path fill="none" stroke="black" d="M1884,-122.22C1884,-142.37 1884,-172 1884,-172 1884,-172 1302.09,-172 1302.09,-172"/>
<polygon fill="black" stroke="black" points="1302.09,-168.5 1292.09,-172 1302.09,-175.5 1302.09,-168.5"/>
</g>
<!-- BrowserAnimationsModule -->
<g id="node5" class="node">
<title>BrowserAnimationsModule</title>
<polygon fill="#8dd3c7" stroke="black" points="1801.3,-122 1798.3,-126 1777.3,-126 1774.3,-122 1628.7,-122 1628.7,-86 1801.3,-86 1801.3,-122"/>
<text text-anchor="middle" x="1715" y="-99.8" font-family="Times,serif" font-size="14.00">BrowserAnimationsModule</text>
</g>
<!-- BrowserAnimationsModule&#45;&gt;AppModule -->
<g id="edge4" class="edge">
<title>BrowserAnimationsModule&#45;&gt;AppModule</title>
<path fill="none" stroke="black" d="M1715,-122.22C1715,-140.83 1715,-167 1715,-167 1715,-167 1301.67,-167 1301.67,-167"/>
<polygon fill="black" stroke="black" points="1301.67,-163.5 1291.67,-167 1301.67,-170.5 1301.67,-163.5"/>
</g>
<!-- VersaoSistemaDirective -->
<g id="node6" class="node">
<title>VersaoSistemaDirective</title>
<polygon fill="#8dd3c7" stroke="black" points="1611.05,-122 1608.05,-126 1587.05,-126 1584.05,-122 1458.95,-122 1458.95,-86 1611.05,-86 1611.05,-122"/>
<text text-anchor="middle" x="1535" y="-99.8" font-family="Times,serif" font-size="14.00">VersaoSistemaDirective</text>
</g>
<!-- VersaoSistemaDirective&#45;&gt;AppModule -->
<g id="edge5" class="edge">
<title>VersaoSistemaDirective&#45;&gt;AppModule</title>
<path fill="none" stroke="black" d="M1535,-122.03C1535,-139.06 1535,-162 1535,-162 1535,-162 1301.75,-162 1301.75,-162"/>
<polygon fill="black" stroke="black" points="1301.75,-158.5 1291.75,-162 1301.75,-165.5 1301.75,-158.5"/>
</g>
<!-- LoginComponent -->
<g id="node7" class="node">
<title>LoginComponent</title>
<polygon fill="#8dd3c7" stroke="black" points="1441.28,-122 1438.28,-126 1417.28,-126 1414.28,-122 1326.72,-122 1326.72,-86 1441.28,-86 1441.28,-122"/>
<text text-anchor="middle" x="1384" y="-99.8" font-family="Times,serif" font-size="14.00">LoginComponent</text>
</g>
<!-- LoginComponent&#45;&gt;AppModule -->
<g id="edge6" class="edge">
<title>LoginComponent&#45;&gt;AppModule</title>
<path fill="none" stroke="black" d="M1384,-122.24C1384,-137.57 1384,-157 1384,-157 1384,-157 1301.66,-157 1301.66,-157"/>
<polygon fill="black" stroke="black" points="1301.66,-153.5 1291.66,-157 1301.66,-160.5 1301.66,-153.5"/>
</g>
<!-- FooterComponent -->
<g id="node8" class="node">
<title>FooterComponent</title>
<polygon fill="#8dd3c7" stroke="black" points="1308.88,-122 1305.88,-126 1284.88,-126 1281.88,-122 1191.12,-122 1191.12,-86 1308.88,-86 1308.88,-122"/>
<text text-anchor="middle" x="1250" y="-99.8" font-family="Times,serif" font-size="14.00">FooterComponent</text>
</g>
<!-- FooterComponent&#45;&gt;AppModule -->
<g id="edge7" class="edge">
<title>FooterComponent&#45;&gt;AppModule</title>
<path fill="none" stroke="black" d="M1250,-122.11C1250,-122.11 1250,-140.99 1250,-140.99"/>
<polygon fill="black" stroke="black" points="1246.5,-140.99 1250,-150.99 1253.5,-140.99 1246.5,-140.99"/>
</g>
<!-- MatToolbarModule -->
<g id="node9" class="node">
<title>MatToolbarModule</title>
<polygon fill="#8dd3c7" stroke="black" points="1173.42,-122 1170.42,-126 1149.42,-126 1146.42,-122 1046.58,-122 1046.58,-86 1173.42,-86 1173.42,-122"/>
<text text-anchor="middle" x="1110" y="-99.8" font-family="Times,serif" font-size="14.00">MatToolbarModule</text>
</g>
<!-- MatToolbarModule&#45;&gt;AppModule -->
<g id="edge8" class="edge">
<title>MatToolbarModule&#45;&gt;AppModule</title>
<path fill="none" stroke="black" d="M1110,-122.24C1110,-137.57 1110,-157 1110,-157 1110,-157 1198,-157 1198,-157"/>
<polygon fill="black" stroke="black" points="1198,-160.5 1208,-157 1198,-153.5 1198,-160.5"/>
</g>
<!-- SharedModule -->
<g id="node10" class="node">
<title>SharedModule</title>
<polygon fill="#8dd3c7" stroke="black" points="1029.42,-122 1026.42,-126 1005.42,-126 1002.42,-122 930.58,-122 930.58,-86 1029.42,-86 1029.42,-122"/>
<text text-anchor="middle" x="980" y="-99.8" font-family="Times,serif" font-size="14.00">SharedModule</text>
</g>
<!-- SharedModule&#45;&gt;AppModule -->
<g id="edge9" class="edge">
<title>SharedModule&#45;&gt;AppModule</title>
<path fill="none" stroke="black" d="M980,-122.03C980,-139.06 980,-162 980,-162 980,-162 1198.11,-162 1198.11,-162"/>
<polygon fill="black" stroke="black" points="1198.11,-165.5 1208.11,-162 1198.11,-158.5 1198.11,-165.5"/>
</g>
<!-- CoreModule -->
<g id="node11" class="node">
<title>CoreModule</title>
<polygon fill="#8dd3c7" stroke="black" points="912.26,-122 909.26,-126 888.26,-126 885.26,-122 825.74,-122 825.74,-86 912.26,-86 912.26,-122"/>
<text text-anchor="middle" x="869" y="-99.8" font-family="Times,serif" font-size="14.00">CoreModule</text>
</g>
<!-- CoreModule&#45;&gt;AppModule -->
<g id="edge10" class="edge">
<title>CoreModule&#45;&gt;AppModule</title>
<path fill="none" stroke="black" d="M869,-122.22C869,-140.83 869,-167 869,-167 869,-167 1198.14,-167 1198.14,-167"/>
<polygon fill="black" stroke="black" points="1198.14,-170.5 1208.14,-167 1198.14,-163.5 1198.14,-170.5"/>
</g>
<!-- ImagekitioAngularModule.forRoot(args) -->
<g id="node12" class="node">
<title>ImagekitioAngularModule.forRoot(args)</title>
<polygon fill="#8dd3c7" stroke="black" points="807.76,-122 804.76,-126 783.76,-126 780.76,-122 562.24,-122 562.24,-86 807.76,-86 807.76,-122"/>
<text text-anchor="middle" x="685" y="-99.8" font-family="Times,serif" font-size="14.00">ImagekitioAngularModule.forRoot(args)</text>
</g>
<!-- ImagekitioAngularModule.forRoot(args)&#45;&gt;AppModule -->
<g id="edge11" class="edge">
<title>ImagekitioAngularModule.forRoot(args)&#45;&gt;AppModule</title>
<path fill="none" stroke="black" d="M685,-122.22C685,-142.37 685,-172 685,-172 685,-172 1197.99,-172 1197.99,-172"/>
<polygon fill="black" stroke="black" points="1197.99,-175.5 1207.99,-172 1197.99,-168.5 1197.99,-175.5"/>
</g>
<!-- provideAnimationsAsync.() -->
<g id="node14" class="node">
<title>provideAnimationsAsync.()</title>
<ellipse fill="#fdb462" stroke="black" cx="419" cy="-104" rx="119.22" ry="18"/>
<text text-anchor="middle" x="419" y="-99.8" font-family="Times,serif" font-size="14.00">provideAnimationsAsync.()</text>
</g>
<!-- provideAnimationsAsync.()&#45;&gt;AppModule -->
<g id="edge13" class="edge">
<title>provideAnimationsAsync.()&#45;&gt;AppModule</title>
<path fill="none" stroke="black" d="M419,-122.04C419,-143.66 419,-177 419,-177 419,-177 1198.22,-177 1198.22,-177"/>
<polygon fill="black" stroke="black" points="1198.22,-180.5 1208.22,-177 1198.22,-173.5 1198.22,-180.5"/>
</g>
<!-- provideImageKitLoader.(args) -->
<g id="node15" class="node">
<title>provideImageKitLoader.(args)</title>
<ellipse fill="#fdb462" stroke="black" cx="153" cy="-104" rx="129.05" ry="18"/>
<text text-anchor="middle" x="153" y="-99.8" font-family="Times,serif" font-size="14.00">provideImageKitLoader.(args)</text>
</g>
<!-- provideImageKitLoader.(args)&#45;&gt;AppModule -->
<g id="edge14" class="edge">
<title>provideImageKitLoader.(args)&#45;&gt;AppModule</title>
<path fill="none" stroke="black" d="M153,-122.09C153,-145.13 153,-182 153,-182 153,-182 1198.34,-182 1198.34,-182"/>
<polygon fill="black" stroke="black" points="1198.34,-185.5 1208.34,-182 1198.34,-178.5 1198.34,-185.5"/>
</g>
</g>
</svg>
