<?xml version="1.0" encoding="UTF-8" standalone="no"?>
<!DOCTYPE svg PUBLIC "-//W3C//DTD SVG 1.1//EN"
 "http://www.w3.org/Graphics/SVG/1.1/DTD/svg11.dtd">
<!-- Generated by graphviz version 2.47.0 (20210316.0004)
 -->
<!-- Title: dependencies Pages: 1 -->
<svg width="896pt" height="211pt"
 viewBox="0.00 0.00 896.00 211.00" xmlns="http://www.w3.org/2000/svg" xmlns:xlink="http://www.w3.org/1999/xlink">
<g id="graph0" class="graph" transform="scale(1 1) rotate(0) translate(4 207)">
<title>dependencies</title>
<polygon fill="white" stroke="transparent" points="-4,4 -4,-207 892,-207 892,4 -4,4"/>
<text text-anchor="start" x="423.01" y="-42.4" font-family="Times-12" font-weight="bold" font-size="14.00">Legend</text>
<polygon fill="#ffffb3" stroke="transparent" points="210,-10 210,-30 230,-30 230,-10 210,-10"/>
<text text-anchor="start" x="233.63" y="-15.4" font-family="Times-12" font-size="14.00"> &#160;Declarations</text>
<polygon fill="#8dd3c7" stroke="transparent" points="323,-10 323,-30 343,-30 343,-10 323,-10"/>
<text text-anchor="start" x="346.73" y="-15.4" font-family="Times-12" font-size="14.00"> &#160;Module</text>
<polygon fill="#80b1d3" stroke="transparent" points="409,-10 409,-30 429,-30 429,-10 409,-10"/>
<text text-anchor="start" x="432.78" y="-15.4" font-family="Times-12" font-size="14.00"> &#160;Bootstrap</text>
<polygon fill="#fdb462" stroke="transparent" points="506,-10 506,-30 526,-30 526,-10 506,-10"/>
<text text-anchor="start" x="529.67" y="-15.4" font-family="Times-12" font-size="14.00"> &#160;Providers</text>
<polygon fill="#fb8072" stroke="transparent" points="602,-10 602,-30 622,-30 622,-10 602,-10"/>
<text text-anchor="start" x="625.73" y="-15.4" font-family="Times-12" font-size="14.00"> &#160;Exports</text>
<g id="clust1" class="cluster">
<title>cluster_AmsDialogModule</title>
<polygon fill="none" stroke="black" stroke-dasharray="1,5" points="8,-70 8,-195 880,-195 880,-70 8,-70"/>
</g>
<g id="clust2" class="cluster">
<title>cluster_AmsDialogModule_declarations</title>
<polygon fill="none" stroke="black" points="492,-78 492,-130 872,-130 872,-78 492,-78"/>
</g>
<g id="clust5" class="cluster">
<title>cluster_AmsDialogModule_imports</title>
<polygon fill="none" stroke="black" points="210,-78 210,-130 484,-130 484,-78 210,-78"/>
</g>
<g id="clust8" class="cluster">
<title>cluster_AmsDialogModule_providers</title>
<polygon fill="none" stroke="black" points="16,-78 16,-130 202,-130 202,-78 16,-78"/>
</g>
<!-- ConfirmacaoComponentDialog -->
<g id="node1" class="node">
<title>ConfirmacaoComponentDialog</title>
<polygon fill="#ffffb3" stroke="black" points="864.02,-122 671.98,-122 671.98,-86 864.02,-86 864.02,-122"/>
<text text-anchor="middle" x="768" y="-99.8" font-family="Times,serif" font-size="14.00">ConfirmacaoComponentDialog</text>
</g>
<!-- AmsDialogModule -->
<g id="node3" class="node">
<title>AmsDialogModule</title>
<polygon fill="#8dd3c7" stroke="black" points="478.09,-187 475.09,-191 454.09,-191 451.09,-187 353.91,-187 353.91,-151 478.09,-151 478.09,-187"/>
<text text-anchor="middle" x="416" y="-164.8" font-family="Times,serif" font-size="14.00">AmsDialogModule</text>
</g>
<!-- ConfirmacaoComponentDialog&#45;&gt;AmsDialogModule -->
<g id="edge1" class="edge">
<title>ConfirmacaoComponentDialog&#45;&gt;AmsDialogModule</title>
<path fill="none" stroke="black" d="M768,-122.28C768,-143.32 768,-175 768,-175 768,-175 488.12,-175 488.12,-175"/>
<polygon fill="black" stroke="black" points="488.12,-171.5 478.12,-175 488.12,-178.5 488.12,-171.5"/>
</g>
<!-- AlertaComponentDialog -->
<g id="node2" class="node">
<title>AlertaComponentDialog</title>
<polygon fill="#ffffb3" stroke="black" points="654.41,-122 499.59,-122 499.59,-86 654.41,-86 654.41,-122"/>
<text text-anchor="middle" x="577" y="-99.8" font-family="Times,serif" font-size="14.00">AlertaComponentDialog</text>
</g>
<!-- AlertaComponentDialog&#45;&gt;AmsDialogModule -->
<g id="edge2" class="edge">
<title>AlertaComponentDialog&#45;&gt;AmsDialogModule</title>
<path fill="none" stroke="black" d="M577,-122.02C577,-139.37 577,-163 577,-163 577,-163 488.25,-163 488.25,-163"/>
<polygon fill="black" stroke="black" points="488.25,-159.5 478.25,-163 488.25,-166.5 488.25,-159.5"/>
</g>
<!-- MatDialogModule -->
<g id="node4" class="node">
<title>MatDialogModule</title>
<polygon fill="#8dd3c7" stroke="black" points="476.2,-122 473.2,-126 452.2,-126 449.2,-122 355.8,-122 355.8,-86 476.2,-86 476.2,-122"/>
<text text-anchor="middle" x="416" y="-99.8" font-family="Times,serif" font-size="14.00">MatDialogModule</text>
</g>
<!-- MatDialogModule&#45;&gt;AmsDialogModule -->
<g id="edge3" class="edge">
<title>MatDialogModule&#45;&gt;AmsDialogModule</title>
<path fill="none" stroke="black" d="M416,-122.11C416,-122.11 416,-140.99 416,-140.99"/>
<polygon fill="black" stroke="black" points="412.5,-140.99 416,-150.99 419.5,-140.99 412.5,-140.99"/>
</g>
<!-- MatButtonModule -->
<g id="node5" class="node">
<title>MatButtonModule</title>
<polygon fill="#8dd3c7" stroke="black" points="338.22,-122 335.22,-126 314.22,-126 311.22,-122 217.78,-122 217.78,-86 338.22,-86 338.22,-122"/>
<text text-anchor="middle" x="278" y="-99.8" font-family="Times,serif" font-size="14.00">MatButtonModule</text>
</g>
<!-- MatButtonModule&#45;&gt;AmsDialogModule -->
<g id="edge4" class="edge">
<title>MatButtonModule&#45;&gt;AmsDialogModule</title>
<path fill="none" stroke="black" d="M278,-122.02C278,-139.37 278,-163 278,-163 278,-163 343.86,-163 343.86,-163"/>
<polygon fill="black" stroke="black" points="343.86,-166.5 353.86,-163 343.86,-159.5 343.86,-166.5"/>
</g>
<!-- AmsDialogService -->
<g id="node6" class="node">
<title>AmsDialogService</title>
<ellipse fill="#fdb462" stroke="black" cx="109" cy="-104" rx="84.53" ry="18"/>
<text text-anchor="middle" x="109" y="-99.8" font-family="Times,serif" font-size="14.00">AmsDialogService</text>
</g>
<!-- AmsDialogService&#45;&gt;AmsDialogModule -->
<g id="edge5" class="edge">
<title>AmsDialogService&#45;&gt;AmsDialogModule</title>
<path fill="none" stroke="black" d="M109,-122.28C109,-143.32 109,-175 109,-175 109,-175 343.87,-175 343.87,-175"/>
<polygon fill="black" stroke="black" points="343.87,-178.5 353.87,-175 343.87,-171.5 343.87,-178.5"/>
</g>
</g>
</svg>
