<?xml version="1.0" encoding="UTF-8" standalone="no"?>
<!DOCTYPE svg PUBLIC "-//W3C//DTD SVG 1.1//EN"
 "http://www.w3.org/Graphics/SVG/1.1/DTD/svg11.dtd">
<!-- Generated by graphviz version 2.47.0 (20210316.0004)
 -->
<!-- Title: dependencies Pages: 1 -->
<svg width="4008pt" height="284pt"
 viewBox="0.00 0.00 4008.00 284.00" xmlns="http://www.w3.org/2000/svg" xmlns:xlink="http://www.w3.org/1999/xlink">
<g id="graph0" class="graph" transform="scale(1 1) rotate(0) translate(4 280)">
<title>dependencies</title>
<polygon fill="white" stroke="transparent" points="-4,4 -4,-280 4004,-280 4004,4 -4,4"/>
<text text-anchor="start" x="1979.01" y="-42.4" font-family="Times-12" font-weight="bold" font-size="14.00">Legend</text>
<polygon fill="#ffffb3" stroke="transparent" points="1766,-10 1766,-30 1786,-30 1786,-10 1766,-10"/>
<text text-anchor="start" x="1789.63" y="-15.4" font-family="Times-12" font-size="14.00"> &#160;Declarations</text>
<polygon fill="#8dd3c7" stroke="transparent" points="1879,-10 1879,-30 1899,-30 1899,-10 1879,-10"/>
<text text-anchor="start" x="1902.73" y="-15.4" font-family="Times-12" font-size="14.00"> &#160;Module</text>
<polygon fill="#80b1d3" stroke="transparent" points="1965,-10 1965,-30 1985,-30 1985,-10 1965,-10"/>
<text text-anchor="start" x="1988.78" y="-15.4" font-family="Times-12" font-size="14.00"> &#160;Bootstrap</text>
<polygon fill="#fdb462" stroke="transparent" points="2062,-10 2062,-30 2082,-30 2082,-10 2062,-10"/>
<text text-anchor="start" x="2085.67" y="-15.4" font-family="Times-12" font-size="14.00"> &#160;Providers</text>
<polygon fill="#fb8072" stroke="transparent" points="2158,-10 2158,-30 2178,-30 2178,-10 2158,-10"/>
<text text-anchor="start" x="2181.73" y="-15.4" font-family="Times-12" font-size="14.00"> &#160;Exports</text>
<g id="clust1" class="cluster">
<title>cluster_PratosModule</title>
<polygon fill="none" stroke="black" stroke-dasharray="1,5" points="8,-70 8,-268 3992,-268 3992,-70 8,-70"/>
</g>
<g id="clust6" class="cluster">
<title>cluster_PratosModule_exports</title>
<polygon fill="none" stroke="black" points="2216,-208 2216,-260 2346,-260 2346,-208 2216,-208"/>
</g>
<g id="clust2" class="cluster">
<title>cluster_PratosModule_declarations</title>
<polygon fill="none" stroke="black" points="3693,-78 3693,-130 3984,-130 3984,-78 3693,-78"/>
</g>
<g id="clust5" class="cluster">
<title>cluster_PratosModule_imports</title>
<polygon fill="none" stroke="black" points="648,-78 648,-130 3685,-130 3685,-78 648,-78"/>
</g>
<g id="clust8" class="cluster">
<title>cluster_PratosModule_providers</title>
<polygon fill="none" stroke="black" points="16,-78 16,-130 640,-130 640,-78 16,-78"/>
</g>
<!-- PratoComponent -->
<g id="node1" class="node">
<title>PratoComponent</title>
<polygon fill="#ffffb3" stroke="black" points="3976.38,-122 3865.62,-122 3865.62,-86 3976.38,-86 3976.38,-122"/>
<text text-anchor="middle" x="3921" y="-99.8" font-family="Times,serif" font-size="14.00">PratoComponent</text>
</g>
<!-- PratosModule -->
<g id="node3" class="node">
<title>PratosModule</title>
<polygon fill="#8dd3c7" stroke="black" points="2328.04,-187 2325.04,-191 2304.04,-191 2301.04,-187 2233.96,-187 2233.96,-151 2328.04,-151 2328.04,-187"/>
<text text-anchor="middle" x="2281" y="-164.8" font-family="Times,serif" font-size="14.00">PratosModule</text>
</g>
<!-- PratoComponent&#45;&gt;PratosModule -->
<g id="edge1" class="edge">
<title>PratoComponent&#45;&gt;PratosModule</title>
<path fill="none" stroke="black" d="M3921,-122.15C3921,-145.76 3921,-184 3921,-184 3921,-184 2338.31,-184 2338.31,-184"/>
<polygon fill="black" stroke="black" points="2338.31,-180.5 2328.31,-184 2338.31,-187.5 2338.31,-180.5"/>
</g>
<!-- PratosFormComponent -->
<g id="node2" class="node">
<title>PratosFormComponent</title>
<polygon fill="#ffffb3" stroke="black" points="3847.16,-122 3700.84,-122 3700.84,-86 3847.16,-86 3847.16,-122"/>
<text text-anchor="middle" x="3774" y="-99.8" font-family="Times,serif" font-size="14.00">PratosFormComponent</text>
</g>
<!-- PratosFormComponent&#45;&gt;PratosModule -->
<g id="edge2" class="edge">
<title>PratosFormComponent&#45;&gt;PratosModule</title>
<path fill="none" stroke="black" d="M3774,-122.25C3774,-145.02 3774,-181 3774,-181 3774,-181 2338.15,-181 2338.15,-181"/>
<polygon fill="black" stroke="black" points="2338.15,-177.5 2328.15,-181 2338.15,-184.5 2338.15,-177.5"/>
</g>
<!-- PratoComponent  -->
<g id="node25" class="node">
<title>PratoComponent </title>
<polygon fill="#fb8072" stroke="black" points="2338.38,-252 2223.62,-252 2223.62,-216 2338.38,-216 2338.38,-252"/>
<text text-anchor="middle" x="2281" y="-229.8" font-family="Times,serif" font-size="14.00">PratoComponent </text>
</g>
<!-- PratosModule&#45;&gt;PratoComponent  -->
<g id="edge24" class="edge">
<title>PratosModule&#45;&gt;PratoComponent </title>
<path fill="none" stroke="black" stroke-dasharray="5,2" d="M2281,-187.11C2281,-187.11 2281,-205.99 2281,-205.99"/>
<polygon fill="black" stroke="black" points="2277.5,-205.99 2281,-215.99 2284.5,-205.99 2277.5,-205.99"/>
</g>
<!-- PratosRoutingModule -->
<g id="node4" class="node">
<title>PratosRoutingModule</title>
<polygon fill="#8dd3c7" stroke="black" points="3676.66,-122 3673.66,-126 3652.66,-126 3649.66,-122 3537.34,-122 3537.34,-86 3676.66,-86 3676.66,-122"/>
<text text-anchor="middle" x="3607" y="-99.8" font-family="Times,serif" font-size="14.00">PratosRoutingModule</text>
</g>
<!-- PratosRoutingModule&#45;&gt;PratosModule -->
<g id="edge3" class="edge">
<title>PratosRoutingModule&#45;&gt;PratosModule</title>
<path fill="none" stroke="black" d="M3607,-122.29C3607,-144.21 3607,-178 3607,-178 3607,-178 2338.19,-178 2338.19,-178"/>
<polygon fill="black" stroke="black" points="2338.19,-174.5 2328.19,-178 2338.19,-181.5 2338.19,-174.5"/>
</g>
<!-- ReactiveFormsModule -->
<g id="node5" class="node">
<title>ReactiveFormsModule</title>
<polygon fill="#8dd3c7" stroke="black" points="3519.3,-122 3516.3,-126 3495.3,-126 3492.3,-122 3374.7,-122 3374.7,-86 3519.3,-86 3519.3,-122"/>
<text text-anchor="middle" x="3447" y="-99.8" font-family="Times,serif" font-size="14.00">ReactiveFormsModule</text>
</g>
<!-- ReactiveFormsModule&#45;&gt;PratosModule -->
<g id="edge4" class="edge">
<title>ReactiveFormsModule&#45;&gt;PratosModule</title>
<path fill="none" stroke="black" d="M3447,-122.28C3447,-143.32 3447,-175 3447,-175 3447,-175 2338.15,-175 2338.15,-175"/>
<polygon fill="black" stroke="black" points="2338.15,-171.5 2328.15,-175 2338.15,-178.5 2338.15,-171.5"/>
</g>
<!-- AsyncPipe -->
<g id="node6" class="node">
<title>AsyncPipe</title>
<polygon fill="#8dd3c7" stroke="black" points="3357.15,-122 3354.15,-126 3333.15,-126 3330.15,-122 3280.85,-122 3280.85,-86 3357.15,-86 3357.15,-122"/>
<text text-anchor="middle" x="3319" y="-99.8" font-family="Times,serif" font-size="14.00">AsyncPipe</text>
</g>
<!-- AsyncPipe&#45;&gt;PratosModule -->
<g id="edge5" class="edge">
<title>AsyncPipe&#45;&gt;PratosModule</title>
<path fill="none" stroke="black" d="M3319,-122.22C3319,-142.37 3319,-172 3319,-172 3319,-172 2338.3,-172 2338.3,-172"/>
<polygon fill="black" stroke="black" points="2338.3,-168.5 2328.3,-172 2338.3,-175.5 2338.3,-168.5"/>
</g>
<!-- NgStyle -->
<g id="node7" class="node">
<title>NgStyle</title>
<polygon fill="#8dd3c7" stroke="black" points="3262.89,-122 3259.89,-126 3238.89,-126 3235.89,-122 3201.11,-122 3201.11,-86 3262.89,-86 3262.89,-122"/>
<text text-anchor="middle" x="3232" y="-99.8" font-family="Times,serif" font-size="14.00">NgStyle</text>
</g>
<!-- NgStyle&#45;&gt;PratosModule -->
<g id="edge6" class="edge">
<title>NgStyle&#45;&gt;PratosModule</title>
<path fill="none" stroke="black" d="M3232,-122.11C3232,-141.34 3232,-169 3232,-169 3232,-169 2338.16,-169 2338.16,-169"/>
<polygon fill="black" stroke="black" points="2338.16,-165.5 2328.16,-169 2338.16,-172.5 2338.16,-165.5"/>
</g>
<!-- CorBoardaDirective -->
<g id="node8" class="node">
<title>CorBoardaDirective</title>
<polygon fill="#8dd3c7" stroke="black" points="3182.51,-122 3179.51,-126 3158.51,-126 3155.51,-122 3053.49,-122 3053.49,-86 3182.51,-86 3182.51,-122"/>
<text text-anchor="middle" x="3118" y="-99.8" font-family="Times,serif" font-size="14.00">CorBoardaDirective</text>
</g>
<!-- CorBoardaDirective&#45;&gt;PratosModule -->
<g id="edge7" class="edge">
<title>CorBoardaDirective&#45;&gt;PratosModule</title>
<path fill="none" stroke="black" d="M3118,-122.27C3118,-140.56 3118,-166 3118,-166 3118,-166 2338.1,-166 2338.1,-166"/>
<polygon fill="black" stroke="black" points="2338.1,-162.5 2328.1,-166 2338.1,-169.5 2338.1,-162.5"/>
</g>
<!-- GrupoPrincipalDirective -->
<g id="node9" class="node">
<title>GrupoPrincipalDirective</title>
<polygon fill="#8dd3c7" stroke="black" points="3035.39,-122 3032.39,-126 3011.39,-126 3008.39,-122 2880.61,-122 2880.61,-86 3035.39,-86 3035.39,-122"/>
<text text-anchor="middle" x="2958" y="-99.8" font-family="Times,serif" font-size="14.00">GrupoPrincipalDirective</text>
</g>
<!-- GrupoPrincipalDirective&#45;&gt;PratosModule -->
<g id="edge8" class="edge">
<title>GrupoPrincipalDirective&#45;&gt;PratosModule</title>
<path fill="none" stroke="black" d="M2958,-122.02C2958,-139.37 2958,-163 2958,-163 2958,-163 2338.07,-163 2338.07,-163"/>
<polygon fill="black" stroke="black" points="2338.07,-159.5 2328.07,-163 2338.07,-166.5 2338.07,-159.5"/>
</g>
<!-- SelecaoIngredientesComponent -->
<g id="node10" class="node">
<title>SelecaoIngredientesComponent</title>
<polygon fill="#8dd3c7" stroke="black" points="2863.05,-122 2860.05,-126 2839.05,-126 2836.05,-122 2668.95,-122 2668.95,-86 2863.05,-86 2863.05,-122"/>
<text text-anchor="middle" x="2766" y="-99.8" font-family="Times,serif" font-size="14.00">SelecaoIngredientesComponent</text>
</g>
<!-- SelecaoIngredientesComponent&#45;&gt;PratosModule -->
<g id="edge9" class="edge">
<title>SelecaoIngredientesComponent&#45;&gt;PratosModule</title>
<path fill="none" stroke="black" d="M2766,-122.03C2766,-138.4 2766,-160 2766,-160 2766,-160 2338.39,-160 2338.39,-160"/>
<polygon fill="black" stroke="black" points="2338.39,-156.5 2328.39,-160 2338.39,-163.5 2338.39,-156.5"/>
</g>
<!-- FormsModule -->
<g id="node11" class="node">
<title>FormsModule</title>
<polygon fill="#8dd3c7" stroke="black" points="2650.83,-122 2647.83,-126 2626.83,-126 2623.83,-122 2555.17,-122 2555.17,-86 2650.83,-86 2650.83,-122"/>
<text text-anchor="middle" x="2603" y="-99.8" font-family="Times,serif" font-size="14.00">FormsModule</text>
</g>
<!-- FormsModule&#45;&gt;PratosModule -->
<g id="edge10" class="edge">
<title>FormsModule&#45;&gt;PratosModule</title>
<path fill="none" stroke="black" d="M2603,-122.24C2603,-137.57 2603,-157 2603,-157 2603,-157 2338.17,-157 2338.17,-157"/>
<polygon fill="black" stroke="black" points="2338.17,-153.5 2328.17,-157 2338.17,-160.5 2338.17,-153.5"/>
</g>
<!-- MatButtonModule -->
<g id="node12" class="node">
<title>MatButtonModule</title>
<polygon fill="#8dd3c7" stroke="black" points="2537.22,-122 2534.22,-126 2513.22,-126 2510.22,-122 2416.78,-122 2416.78,-86 2537.22,-86 2537.22,-122"/>
<text text-anchor="middle" x="2477" y="-99.8" font-family="Times,serif" font-size="14.00">MatButtonModule</text>
</g>
<!-- MatButtonModule&#45;&gt;PratosModule -->
<g id="edge11" class="edge">
<title>MatButtonModule&#45;&gt;PratosModule</title>
<path fill="none" stroke="black" d="M2477,-122.05C2477,-136.37 2477,-154 2477,-154 2477,-154 2338.45,-154 2338.45,-154"/>
<polygon fill="black" stroke="black" points="2338.45,-150.5 2328.45,-154 2338.45,-157.5 2338.45,-150.5"/>
</g>
<!-- MatCardModule -->
<g id="node13" class="node">
<title>MatCardModule</title>
<polygon fill="#8dd3c7" stroke="black" points="2398.81,-122 2395.81,-126 2374.81,-126 2371.81,-122 2289.19,-122 2289.19,-86 2398.81,-86 2398.81,-122"/>
<text text-anchor="middle" x="2344" y="-99.8" font-family="Times,serif" font-size="14.00">MatCardModule</text>
</g>
<!-- MatCardModule&#45;&gt;PratosModule -->
<g id="edge12" class="edge">
<title>MatCardModule&#45;&gt;PratosModule</title>
<path fill="none" stroke="black" d="M2308.81,-122.11C2308.81,-122.11 2308.81,-140.99 2308.81,-140.99"/>
<polygon fill="black" stroke="black" points="2305.31,-140.99 2308.81,-150.99 2312.31,-140.99 2305.31,-140.99"/>
</g>
<!-- MatIconModule -->
<g id="node14" class="node">
<title>MatIconModule</title>
<polygon fill="#8dd3c7" stroke="black" points="2271.47,-122 2268.47,-126 2247.47,-126 2244.47,-122 2164.53,-122 2164.53,-86 2271.47,-86 2271.47,-122"/>
<text text-anchor="middle" x="2218" y="-99.8" font-family="Times,serif" font-size="14.00">MatIconModule</text>
</g>
<!-- MatIconModule&#45;&gt;PratosModule -->
<g id="edge13" class="edge">
<title>MatIconModule&#45;&gt;PratosModule</title>
<path fill="none" stroke="black" d="M2252.61,-122.11C2252.61,-122.11 2252.61,-140.99 2252.61,-140.99"/>
<polygon fill="black" stroke="black" points="2249.11,-140.99 2252.61,-150.99 2256.11,-140.99 2249.11,-140.99"/>
</g>
<!-- MatFormFieldModule -->
<g id="node15" class="node">
<title>MatFormFieldModule</title>
<polygon fill="#8dd3c7" stroke="black" points="2146.71,-122 2143.71,-126 2122.71,-126 2119.71,-122 2005.29,-122 2005.29,-86 2146.71,-86 2146.71,-122"/>
<text text-anchor="middle" x="2076" y="-99.8" font-family="Times,serif" font-size="14.00">MatFormFieldModule</text>
</g>
<!-- MatFormFieldModule&#45;&gt;PratosModule -->
<g id="edge14" class="edge">
<title>MatFormFieldModule&#45;&gt;PratosModule</title>
<path fill="none" stroke="black" d="M2076,-122.05C2076,-136.37 2076,-154 2076,-154 2076,-154 2223.71,-154 2223.71,-154"/>
<polygon fill="black" stroke="black" points="2223.71,-157.5 2233.71,-154 2223.71,-150.5 2223.71,-157.5"/>
</g>
<!-- MatInputModule -->
<g id="node16" class="node">
<title>MatInputModule</title>
<polygon fill="#8dd3c7" stroke="black" points="1987.65,-122 1984.65,-126 1963.65,-126 1960.65,-122 1876.35,-122 1876.35,-86 1987.65,-86 1987.65,-122"/>
<text text-anchor="middle" x="1932" y="-99.8" font-family="Times,serif" font-size="14.00">MatInputModule</text>
</g>
<!-- MatInputModule&#45;&gt;PratosModule -->
<g id="edge15" class="edge">
<title>MatInputModule&#45;&gt;PratosModule</title>
<path fill="none" stroke="black" d="M1932,-122.24C1932,-137.57 1932,-157 1932,-157 1932,-157 2223.93,-157 2223.93,-157"/>
<polygon fill="black" stroke="black" points="2223.93,-160.5 2233.93,-157 2223.93,-153.5 2223.93,-160.5"/>
</g>
<!-- MatExpansionModule -->
<g id="node17" class="node">
<title>MatExpansionModule</title>
<polygon fill="#8dd3c7" stroke="black" points="1858.7,-122 1855.7,-126 1834.7,-126 1831.7,-122 1717.3,-122 1717.3,-86 1858.7,-86 1858.7,-122"/>
<text text-anchor="middle" x="1788" y="-99.8" font-family="Times,serif" font-size="14.00">MatExpansionModule</text>
</g>
<!-- MatExpansionModule&#45;&gt;PratosModule -->
<g id="edge16" class="edge">
<title>MatExpansionModule&#45;&gt;PratosModule</title>
<path fill="none" stroke="black" d="M1788,-122.03C1788,-138.4 1788,-160 1788,-160 1788,-160 2223.73,-160 2223.73,-160"/>
<polygon fill="black" stroke="black" points="2223.73,-163.5 2233.73,-160 2223.73,-156.5 2223.73,-163.5"/>
</g>
<!-- MatChipsModule -->
<g id="node18" class="node">
<title>MatChipsModule</title>
<polygon fill="#8dd3c7" stroke="black" points="1699.27,-122 1696.27,-126 1675.27,-126 1672.27,-122 1584.73,-122 1584.73,-86 1699.27,-86 1699.27,-122"/>
<text text-anchor="middle" x="1642" y="-99.8" font-family="Times,serif" font-size="14.00">MatChipsModule</text>
</g>
<!-- MatChipsModule&#45;&gt;PratosModule -->
<g id="edge17" class="edge">
<title>MatChipsModule&#45;&gt;PratosModule</title>
<path fill="none" stroke="black" d="M1642,-122.02C1642,-139.37 1642,-163 1642,-163 1642,-163 2223.75,-163 2223.75,-163"/>
<polygon fill="black" stroke="black" points="2223.75,-166.5 2233.75,-163 2223.75,-159.5 2223.75,-166.5"/>
</g>
<!-- MatSelectModule -->
<g id="node19" class="node">
<title>MatSelectModule</title>
<polygon fill="#8dd3c7" stroke="black" points="1566.31,-122 1563.31,-126 1542.31,-126 1539.31,-122 1449.69,-122 1449.69,-86 1566.31,-86 1566.31,-122"/>
<text text-anchor="middle" x="1508" y="-99.8" font-family="Times,serif" font-size="14.00">MatSelectModule</text>
</g>
<!-- MatSelectModule&#45;&gt;PratosModule -->
<g id="edge18" class="edge">
<title>MatSelectModule&#45;&gt;PratosModule</title>
<path fill="none" stroke="black" d="M1508,-122.27C1508,-140.56 1508,-166 1508,-166 1508,-166 2223.81,-166 2223.81,-166"/>
<polygon fill="black" stroke="black" points="2223.81,-169.5 2233.81,-166 2223.81,-162.5 2223.81,-169.5"/>
</g>
<!-- CentralContainerComponent -->
<g id="node20" class="node">
<title>CentralContainerComponent</title>
<polygon fill="#8dd3c7" stroke="black" points="1431.75,-122 1428.75,-126 1407.75,-126 1404.75,-122 1254.25,-122 1254.25,-86 1431.75,-86 1431.75,-122"/>
<text text-anchor="middle" x="1343" y="-99.8" font-family="Times,serif" font-size="14.00">CentralContainerComponent</text>
</g>
<!-- CentralContainerComponent&#45;&gt;PratosModule -->
<g id="edge19" class="edge">
<title>CentralContainerComponent&#45;&gt;PratosModule</title>
<path fill="none" stroke="black" d="M1343,-122.11C1343,-141.34 1343,-169 1343,-169 1343,-169 2223.84,-169 2223.84,-169"/>
<polygon fill="black" stroke="black" points="2223.84,-172.5 2233.84,-169 2223.84,-165.5 2223.84,-172.5"/>
</g>
<!-- CentralFormComponent -->
<g id="node21" class="node">
<title>CentralFormComponent</title>
<polygon fill="#8dd3c7" stroke="black" points="1236.37,-122 1233.37,-126 1212.37,-126 1209.37,-122 1083.63,-122 1083.63,-86 1236.37,-86 1236.37,-122"/>
<text text-anchor="middle" x="1160" y="-99.8" font-family="Times,serif" font-size="14.00">CentralFormComponent</text>
</g>
<!-- CentralFormComponent&#45;&gt;PratosModule -->
<g id="edge20" class="edge">
<title>CentralFormComponent&#45;&gt;PratosModule</title>
<path fill="none" stroke="black" d="M1160,-122.22C1160,-142.37 1160,-172 1160,-172 1160,-172 2223.9,-172 2223.9,-172"/>
<polygon fill="black" stroke="black" points="2223.9,-175.5 2233.9,-172 2223.9,-168.5 2223.9,-175.5"/>
</g>
<!-- AmsDialogModule -->
<g id="node22" class="node">
<title>AmsDialogModule</title>
<polygon fill="#8dd3c7" stroke="black" points="1066.09,-122 1063.09,-126 1042.09,-126 1039.09,-122 941.91,-122 941.91,-86 1066.09,-86 1066.09,-122"/>
<text text-anchor="middle" x="1004" y="-99.8" font-family="Times,serif" font-size="14.00">AmsDialogModule</text>
</g>
<!-- AmsDialogModule&#45;&gt;PratosModule -->
<g id="edge21" class="edge">
<title>AmsDialogModule&#45;&gt;PratosModule</title>
<path fill="none" stroke="black" d="M1004,-122.28C1004,-143.32 1004,-175 1004,-175 1004,-175 2223.65,-175 2223.65,-175"/>
<polygon fill="black" stroke="black" points="2223.65,-178.5 2233.65,-175 2223.65,-171.5 2223.65,-178.5"/>
</g>
<!-- ImagemComponent -->
<g id="node23" class="node">
<title>ImagemComponent</title>
<polygon fill="#8dd3c7" stroke="black" points="923.7,-122 920.7,-126 899.7,-126 896.7,-122 796.3,-122 796.3,-86 923.7,-86 923.7,-122"/>
<text text-anchor="middle" x="860" y="-99.8" font-family="Times,serif" font-size="14.00">ImagemComponent</text>
</g>
<!-- ImagemComponent&#45;&gt;PratosModule -->
<g id="edge22" class="edge">
<title>ImagemComponent&#45;&gt;PratosModule</title>
<path fill="none" stroke="black" d="M860,-122.29C860,-144.21 860,-178 860,-178 860,-178 2223.72,-178 2223.72,-178"/>
<polygon fill="black" stroke="black" points="2223.72,-181.5 2233.72,-178 2223.72,-174.5 2223.72,-181.5"/>
</g>
<!-- UploadComponent -->
<g id="node24" class="node">
<title>UploadComponent</title>
<polygon fill="#8dd3c7" stroke="black" points="778.05,-122 775.05,-126 754.05,-126 751.05,-122 655.95,-122 655.95,-86 778.05,-86 778.05,-122"/>
<text text-anchor="middle" x="717" y="-99.8" font-family="Times,serif" font-size="14.00">UploadComponent</text>
</g>
<!-- UploadComponent&#45;&gt;PratosModule -->
<g id="edge23" class="edge">
<title>UploadComponent&#45;&gt;PratosModule</title>
<path fill="none" stroke="black" d="M717,-122.25C717,-145.02 717,-181 717,-181 717,-181 2223.77,-181 2223.77,-181"/>
<polygon fill="black" stroke="black" points="2223.77,-184.5 2233.77,-181 2223.77,-177.5 2223.77,-184.5"/>
</g>
<!-- { provide: TOKEN_PATH_IMAGEKIT, useValue: &#39;/amsmarmita/pratos&#39; } -->
<g id="node26" class="node">
<title>{ provide: TOKEN_PATH_IMAGEKIT, useValue: &#39;/amsmarmita/pratos&#39; }</title>
<ellipse fill="#fdb462" stroke="black" cx="328" cy="-104" rx="304.04" ry="18"/>
<text text-anchor="middle" x="328" y="-99.8" font-family="Times,serif" font-size="14.00">{ provide: TOKEN_PATH_IMAGEKIT, useValue: &#39;/amsmarmita/pratos&#39; }</text>
</g>
<!-- { provide: TOKEN_PATH_IMAGEKIT, useValue: &#39;/amsmarmita/pratos&#39; }&#45;&gt;PratosModule -->
<g id="edge25" class="edge">
<title>{ provide: TOKEN_PATH_IMAGEKIT, useValue: &#39;/amsmarmita/pratos&#39; }&#45;&gt;PratosModule</title>
<path fill="none" stroke="black" d="M328,-122.15C328,-145.76 328,-184 328,-184 328,-184 2223.69,-184 2223.69,-184"/>
<polygon fill="black" stroke="black" points="2223.69,-187.5 2233.69,-184 2223.69,-180.5 2223.69,-187.5"/>
</g>
</g>
</svg>
