<?xml version="1.0" encoding="UTF-8" standalone="no"?>
<!DOCTYPE svg PUBLIC "-//W3C//DTD SVG 1.1//EN"
 "http://www.w3.org/Graphics/SVG/1.1/DTD/svg11.dtd">
<!-- Generated by graphviz version 2.47.0 (20210316.0004)
 -->
<!-- Title: dependencies Pages: 1 -->
<svg width="2061pt" height="284pt"
 viewBox="0.00 0.00 2061.00 284.00" xmlns="http://www.w3.org/2000/svg" xmlns:xlink="http://www.w3.org/1999/xlink">
<g id="graph0" class="graph" transform="scale(1 1) rotate(0) translate(4 280)">
<title>dependencies</title>
<polygon fill="white" stroke="transparent" points="-4,4 -4,-280 2057,-280 2057,4 -4,4"/>
<text text-anchor="start" x="1005.51" y="-42.4" font-family="Times-12" font-weight="bold" font-size="14.00">Legend</text>
<polygon fill="#ffffb3" stroke="transparent" points="792.5,-10 792.5,-30 812.5,-30 812.5,-10 792.5,-10"/>
<text text-anchor="start" x="816.13" y="-15.4" font-family="Times-12" font-size="14.00"> &#160;Declarations</text>
<polygon fill="#8dd3c7" stroke="transparent" points="905.5,-10 905.5,-30 925.5,-30 925.5,-10 905.5,-10"/>
<text text-anchor="start" x="929.23" y="-15.4" font-family="Times-12" font-size="14.00"> &#160;Module</text>
<polygon fill="#80b1d3" stroke="transparent" points="991.5,-10 991.5,-30 1011.5,-30 1011.5,-10 991.5,-10"/>
<text text-anchor="start" x="1015.28" y="-15.4" font-family="Times-12" font-size="14.00"> &#160;Bootstrap</text>
<polygon fill="#fdb462" stroke="transparent" points="1088.5,-10 1088.5,-30 1108.5,-30 1108.5,-10 1088.5,-10"/>
<text text-anchor="start" x="1112.17" y="-15.4" font-family="Times-12" font-size="14.00"> &#160;Providers</text>
<polygon fill="#fb8072" stroke="transparent" points="1184.5,-10 1184.5,-30 1204.5,-30 1204.5,-10 1184.5,-10"/>
<text text-anchor="start" x="1208.23" y="-15.4" font-family="Times-12" font-size="14.00"> &#160;Exports</text>
<g id="clust1" class="cluster">
<title>cluster_PratosModule</title>
<polygon fill="none" stroke="black" stroke-dasharray="1,5" points="8,-70 8,-268 2045,-268 2045,-70 8,-70"/>
</g>
<g id="clust8" class="cluster">
<title>cluster_PratosModule_providers</title>
<polygon fill="none" stroke="black" points="1413,-78 1413,-130 2037,-130 2037,-78 1413,-78"/>
</g>
<g id="clust6" class="cluster">
<title>cluster_PratosModule_exports</title>
<polygon fill="none" stroke="black" points="730,-208 730,-260 860,-260 860,-208 730,-208"/>
</g>
<g id="clust2" class="cluster">
<title>cluster_PratosModule_declarations</title>
<polygon fill="none" stroke="black" points="1114,-78 1114,-130 1405,-130 1405,-78 1114,-78"/>
</g>
<g id="clust5" class="cluster">
<title>cluster_PratosModule_imports</title>
<polygon fill="none" stroke="black" points="16,-78 16,-130 1106,-130 1106,-78 16,-78"/>
</g>
<!-- PratoComponent -->
<g id="node1" class="node">
<title>PratoComponent</title>
<polygon fill="#ffffb3" stroke="black" points="1397.38,-122 1286.62,-122 1286.62,-86 1397.38,-86 1397.38,-122"/>
<text text-anchor="middle" x="1342" y="-99.8" font-family="Times,serif" font-size="14.00">PratoComponent</text>
</g>
<!-- PratosModule -->
<g id="node3" class="node">
<title>PratosModule</title>
<polygon fill="#8dd3c7" stroke="black" points="842.04,-187 839.04,-191 818.04,-191 815.04,-187 747.96,-187 747.96,-151 842.04,-151 842.04,-187"/>
<text text-anchor="middle" x="795" y="-164.8" font-family="Times,serif" font-size="14.00">PratosModule</text>
</g>
<!-- PratoComponent&#45;&gt;PratosModule -->
<g id="edge1" class="edge">
<title>PratoComponent&#45;&gt;PratosModule</title>
<path fill="none" stroke="black" d="M1342,-122.13C1342,-142.57 1342,-173 1342,-173 1342,-173 852.11,-173 852.11,-173"/>
<polygon fill="black" stroke="black" points="852.11,-169.5 842.11,-173 852.11,-176.5 852.11,-169.5"/>
</g>
<!-- PratosFormComponent -->
<g id="node2" class="node">
<title>PratosFormComponent</title>
<polygon fill="#ffffb3" stroke="black" points="1268.16,-122 1121.84,-122 1121.84,-86 1268.16,-86 1268.16,-122"/>
<text text-anchor="middle" x="1195" y="-99.8" font-family="Times,serif" font-size="14.00">PratosFormComponent</text>
</g>
<!-- PratosFormComponent&#45;&gt;PratosModule -->
<g id="edge2" class="edge">
<title>PratosFormComponent&#45;&gt;PratosModule</title>
<path fill="none" stroke="black" d="M1195,-122.27C1195,-140.56 1195,-166 1195,-166 1195,-166 852.06,-166 852.06,-166"/>
<polygon fill="black" stroke="black" points="852.06,-162.5 842.06,-166 852.06,-169.5 852.06,-162.5"/>
</g>
<!-- PratoComponent  -->
<g id="node11" class="node">
<title>PratoComponent </title>
<polygon fill="#fb8072" stroke="black" points="852.38,-252 737.62,-252 737.62,-216 852.38,-216 852.38,-252"/>
<text text-anchor="middle" x="795" y="-229.8" font-family="Times,serif" font-size="14.00">PratoComponent </text>
</g>
<!-- PratosModule&#45;&gt;PratoComponent  -->
<g id="edge10" class="edge">
<title>PratosModule&#45;&gt;PratoComponent </title>
<path fill="none" stroke="black" stroke-dasharray="5,2" d="M795,-187.11C795,-187.11 795,-205.99 795,-205.99"/>
<polygon fill="black" stroke="black" points="791.5,-205.99 795,-215.99 798.5,-205.99 791.5,-205.99"/>
</g>
<!-- PratosRoutingModule -->
<g id="node4" class="node">
<title>PratosRoutingModule</title>
<polygon fill="#8dd3c7" stroke="black" points="1097.66,-122 1094.66,-126 1073.66,-126 1070.66,-122 958.34,-122 958.34,-86 1097.66,-86 1097.66,-122"/>
<text text-anchor="middle" x="1028" y="-99.8" font-family="Times,serif" font-size="14.00">PratosRoutingModule</text>
</g>
<!-- PratosRoutingModule&#45;&gt;PratosModule -->
<g id="edge3" class="edge">
<title>PratosRoutingModule&#45;&gt;PratosModule</title>
<path fill="none" stroke="black" d="M1028,-122.01C1028,-138.05 1028,-159 1028,-159 1028,-159 852.15,-159 852.15,-159"/>
<polygon fill="black" stroke="black" points="852.15,-155.5 842.15,-159 852.15,-162.5 852.15,-155.5"/>
</g>
<!-- CorBoardaDirective -->
<g id="node5" class="node">
<title>CorBoardaDirective</title>
<polygon fill="#8dd3c7" stroke="black" points="939.51,-122 936.51,-126 915.51,-126 912.51,-122 810.49,-122 810.49,-86 939.51,-86 939.51,-122"/>
<text text-anchor="middle" x="875" y="-99.8" font-family="Times,serif" font-size="14.00">CorBoardaDirective</text>
</g>
<!-- CorBoardaDirective&#45;&gt;PratosModule -->
<g id="edge4" class="edge">
<title>CorBoardaDirective&#45;&gt;PratosModule</title>
<path fill="none" stroke="black" d="M826.26,-122.11C826.26,-122.11 826.26,-140.99 826.26,-140.99"/>
<polygon fill="black" stroke="black" points="822.76,-140.99 826.26,-150.99 829.76,-140.99 822.76,-140.99"/>
</g>
<!-- GrupoPrincipalDirective -->
<g id="node6" class="node">
<title>GrupoPrincipalDirective</title>
<polygon fill="#8dd3c7" stroke="black" points="792.39,-122 789.39,-126 768.39,-126 765.39,-122 637.61,-122 637.61,-86 792.39,-86 792.39,-122"/>
<text text-anchor="middle" x="715" y="-99.8" font-family="Times,serif" font-size="14.00">GrupoPrincipalDirective</text>
</g>
<!-- GrupoPrincipalDirective&#45;&gt;PratosModule -->
<g id="edge5" class="edge">
<title>GrupoPrincipalDirective&#45;&gt;PratosModule</title>
<path fill="none" stroke="black" d="M769.96,-122.11C769.96,-122.11 769.96,-140.99 769.96,-140.99"/>
<polygon fill="black" stroke="black" points="766.46,-140.99 769.96,-150.99 773.46,-140.99 766.46,-140.99"/>
</g>
<!-- SelecaoIngredientesComponent -->
<g id="node7" class="node">
<title>SelecaoIngredientesComponent</title>
<polygon fill="#8dd3c7" stroke="black" points="620.05,-122 617.05,-126 596.05,-126 593.05,-122 425.95,-122 425.95,-86 620.05,-86 620.05,-122"/>
<text text-anchor="middle" x="523" y="-99.8" font-family="Times,serif" font-size="14.00">SelecaoIngredientesComponent</text>
</g>
<!-- SelecaoIngredientesComponent&#45;&gt;PratosModule -->
<g id="edge6" class="edge">
<title>SelecaoIngredientesComponent&#45;&gt;PratosModule</title>
<path fill="none" stroke="black" d="M523,-122.01C523,-138.05 523,-159 523,-159 523,-159 737.93,-159 737.93,-159"/>
<polygon fill="black" stroke="black" points="737.93,-162.5 747.93,-159 737.93,-155.5 737.93,-162.5"/>
</g>
<!-- SharedModule -->
<g id="node8" class="node">
<title>SharedModule</title>
<polygon fill="#8dd3c7" stroke="black" points="408.42,-122 405.42,-126 384.42,-126 381.42,-122 309.58,-122 309.58,-86 408.42,-86 408.42,-122"/>
<text text-anchor="middle" x="359" y="-99.8" font-family="Times,serif" font-size="14.00">SharedModule</text>
</g>
<!-- SharedModule&#45;&gt;PratosModule -->
<g id="edge7" class="edge">
<title>SharedModule&#45;&gt;PratosModule</title>
<path fill="none" stroke="black" d="M359,-122.27C359,-140.56 359,-166 359,-166 359,-166 737.93,-166 737.93,-166"/>
<polygon fill="black" stroke="black" points="737.93,-169.5 747.93,-166 737.93,-162.5 737.93,-169.5"/>
</g>
<!-- ImagemComponent -->
<g id="node9" class="node">
<title>ImagemComponent</title>
<polygon fill="#8dd3c7" stroke="black" points="291.7,-122 288.7,-126 267.7,-126 264.7,-122 164.3,-122 164.3,-86 291.7,-86 291.7,-122"/>
<text text-anchor="middle" x="228" y="-99.8" font-family="Times,serif" font-size="14.00">ImagemComponent</text>
</g>
<!-- ImagemComponent&#45;&gt;PratosModule -->
<g id="edge8" class="edge">
<title>ImagemComponent&#45;&gt;PratosModule</title>
<path fill="none" stroke="black" d="M228,-122.13C228,-142.57 228,-173 228,-173 228,-173 737.63,-173 737.63,-173"/>
<polygon fill="black" stroke="black" points="737.63,-176.5 747.63,-173 737.63,-169.5 737.63,-176.5"/>
</g>
<!-- UploadComponent -->
<g id="node10" class="node">
<title>UploadComponent</title>
<polygon fill="#8dd3c7" stroke="black" points="146.05,-122 143.05,-126 122.05,-126 119.05,-122 23.95,-122 23.95,-86 146.05,-86 146.05,-122"/>
<text text-anchor="middle" x="85" y="-99.8" font-family="Times,serif" font-size="14.00">UploadComponent</text>
</g>
<!-- UploadComponent&#45;&gt;PratosModule -->
<g id="edge9" class="edge">
<title>UploadComponent&#45;&gt;PratosModule</title>
<path fill="none" stroke="black" d="M85,-122.01C85,-144.49 85,-180 85,-180 85,-180 737.87,-180 737.87,-180"/>
<polygon fill="black" stroke="black" points="737.87,-183.5 747.87,-180 737.87,-176.5 737.87,-183.5"/>
</g>
<!-- { provide: TOKEN_PATH_IMAGEKIT, useValue: &#39;/amsmarmita/pratos&#39; } -->
<g id="node12" class="node">
<title>{ provide: TOKEN_PATH_IMAGEKIT, useValue: &#39;/amsmarmita/pratos&#39; }</title>
<ellipse fill="#fdb462" stroke="black" cx="1725" cy="-104" rx="304.04" ry="18"/>
<text text-anchor="middle" x="1725" y="-99.8" font-family="Times,serif" font-size="14.00">{ provide: TOKEN_PATH_IMAGEKIT, useValue: &#39;/amsmarmita/pratos&#39; }</text>
</g>
<!-- { provide: TOKEN_PATH_IMAGEKIT, useValue: &#39;/amsmarmita/pratos&#39; }&#45;&gt;PratosModule -->
<g id="edge11" class="edge">
<title>{ provide: TOKEN_PATH_IMAGEKIT, useValue: &#39;/amsmarmita/pratos&#39; }&#45;&gt;PratosModule</title>
<path fill="none" stroke="black" d="M1725,-122.01C1725,-144.49 1725,-180 1725,-180 1725,-180 852.08,-180 852.08,-180"/>
<polygon fill="black" stroke="black" points="852.08,-176.5 842.08,-180 852.08,-183.5 852.08,-176.5"/>
</g>
</g>
</svg>
