<?xml version="1.0" encoding="UTF-8" standalone="no"?>
<!DOCTYPE svg PUBLIC "-//W3C//DTD SVG 1.1//EN"
 "http://www.w3.org/Graphics/SVG/1.1/DTD/svg11.dtd">
<!-- Generated by graphviz version 2.47.0 (20210316.0004)
 -->
<!-- Title: dependencies Pages: 1 -->
<svg width="1094pt" height="211pt"
 viewBox="0.00 0.00 1094.00 211.00" xmlns="http://www.w3.org/2000/svg" xmlns:xlink="http://www.w3.org/1999/xlink">
<g id="graph0" class="graph" transform="scale(1 1) rotate(0) translate(4 207)">
<title>dependencies</title>
<polygon fill="white" stroke="transparent" points="-4,4 -4,-207 1090,-207 1090,4 -4,4"/>
<text text-anchor="start" x="522.01" y="-42.4" font-family="Times-12" font-weight="bold" font-size="14.00">Legend</text>
<polygon fill="#ffffb3" stroke="transparent" points="309,-10 309,-30 329,-30 329,-10 309,-10"/>
<text text-anchor="start" x="332.63" y="-15.4" font-family="Times-12" font-size="14.00"> &#160;Declarations</text>
<polygon fill="#8dd3c7" stroke="transparent" points="422,-10 422,-30 442,-30 442,-10 422,-10"/>
<text text-anchor="start" x="445.73" y="-15.4" font-family="Times-12" font-size="14.00"> &#160;Module</text>
<polygon fill="#80b1d3" stroke="transparent" points="508,-10 508,-30 528,-30 528,-10 508,-10"/>
<text text-anchor="start" x="531.78" y="-15.4" font-family="Times-12" font-size="14.00"> &#160;Bootstrap</text>
<polygon fill="#fdb462" stroke="transparent" points="605,-10 605,-30 625,-30 625,-10 605,-10"/>
<text text-anchor="start" x="628.67" y="-15.4" font-family="Times-12" font-size="14.00"> &#160;Providers</text>
<polygon fill="#fb8072" stroke="transparent" points="701,-10 701,-30 721,-30 721,-10 701,-10"/>
<text text-anchor="start" x="724.73" y="-15.4" font-family="Times-12" font-size="14.00"> &#160;Exports</text>
<g id="clust1" class="cluster">
<title>cluster_RelatorioModule</title>
<polygon fill="none" stroke="black" stroke-dasharray="1,5" points="8,-70 8,-195 1078,-195 1078,-70 8,-70"/>
</g>
<g id="clust2" class="cluster">
<title>cluster_RelatorioModule_declarations</title>
<polygon fill="none" stroke="black" points="313,-78 313,-130 1070,-130 1070,-78 313,-78"/>
</g>
<g id="clust7" class="cluster">
<title>cluster_RelatorioModule_imports</title>
<polygon fill="none" stroke="black" points="16,-78 16,-130 305,-130 305,-78 16,-78"/>
</g>
<!-- RelatorioComponent -->
<g id="node1" class="node">
<title>RelatorioComponent</title>
<polygon fill="#ffffb3" stroke="black" points="1061.93,-122 928.07,-122 928.07,-86 1061.93,-86 1061.93,-122"/>
<text text-anchor="middle" x="995" y="-99.8" font-family="Times,serif" font-size="14.00">RelatorioComponent</text>
</g>
<!-- RelatorioModule -->
<g id="node5" class="node">
<title>RelatorioModule</title>
<polygon fill="#8dd3c7" stroke="black" points="582.65,-187 579.65,-191 558.65,-191 555.65,-187 471.35,-187 471.35,-151 582.65,-151 582.65,-187"/>
<text text-anchor="middle" x="527" y="-164.8" font-family="Times,serif" font-size="14.00">RelatorioModule</text>
</g>
<!-- RelatorioComponent&#45;&gt;RelatorioModule -->
<g id="edge1" class="edge">
<title>RelatorioComponent&#45;&gt;RelatorioModule</title>
<path fill="none" stroke="black" d="M995,-122.28C995,-143.32 995,-175 995,-175 995,-175 592.99,-175 592.99,-175"/>
<polygon fill="black" stroke="black" points="592.99,-171.5 582.99,-175 592.99,-178.5 592.99,-171.5"/>
</g>
<!-- RelatorioItemComponent -->
<g id="node2" class="node">
<title>RelatorioItemComponent</title>
<polygon fill="#ffffb3" stroke="black" points="910.59,-122 751.41,-122 751.41,-86 910.59,-86 910.59,-122"/>
<text text-anchor="middle" x="831" y="-99.8" font-family="Times,serif" font-size="14.00">RelatorioItemComponent</text>
</g>
<!-- RelatorioItemComponent&#45;&gt;RelatorioModule -->
<g id="edge2" class="edge">
<title>RelatorioItemComponent&#45;&gt;RelatorioModule</title>
<path fill="none" stroke="black" d="M831,-122.02C831,-139.37 831,-163 831,-163 831,-163 592.76,-163 592.76,-163"/>
<polygon fill="black" stroke="black" points="592.76,-159.5 582.76,-163 592.76,-166.5 592.76,-159.5"/>
</g>
<!-- RelatorioIngredienteComponent -->
<g id="node3" class="node">
<title>RelatorioIngredienteComponent</title>
<polygon fill="#ffffb3" stroke="black" points="733.68,-122 536.32,-122 536.32,-86 733.68,-86 733.68,-122"/>
<text text-anchor="middle" x="635" y="-99.8" font-family="Times,serif" font-size="14.00">RelatorioIngredienteComponent</text>
</g>
<!-- RelatorioIngredienteComponent&#45;&gt;RelatorioModule -->
<g id="edge3" class="edge">
<title>RelatorioIngredienteComponent&#45;&gt;RelatorioModule</title>
<path fill="none" stroke="black" d="M559.62,-122.11C559.62,-122.11 559.62,-140.99 559.62,-140.99"/>
<polygon fill="black" stroke="black" points="556.12,-140.99 559.62,-150.99 563.12,-140.99 556.12,-140.99"/>
</g>
<!-- RelatorioComedoresComponent -->
<g id="node4" class="node">
<title>RelatorioComedoresComponent</title>
<polygon fill="#ffffb3" stroke="black" points="518.69,-122 321.31,-122 321.31,-86 518.69,-86 518.69,-122"/>
<text text-anchor="middle" x="420" y="-99.8" font-family="Times,serif" font-size="14.00">RelatorioComedoresComponent</text>
</g>
<!-- RelatorioComedoresComponent&#45;&gt;RelatorioModule -->
<g id="edge4" class="edge">
<title>RelatorioComedoresComponent&#45;&gt;RelatorioModule</title>
<path fill="none" stroke="black" d="M494.89,-122.11C494.89,-122.11 494.89,-140.99 494.89,-140.99"/>
<polygon fill="black" stroke="black" points="491.39,-140.99 494.89,-150.99 498.39,-140.99 491.39,-140.99"/>
</g>
<!-- RelatorioRoutingModule -->
<g id="node6" class="node">
<title>RelatorioRoutingModule</title>
<polygon fill="#8dd3c7" stroke="black" points="297.27,-122 294.27,-126 273.27,-126 270.27,-122 140.73,-122 140.73,-86 297.27,-86 297.27,-122"/>
<text text-anchor="middle" x="219" y="-99.8" font-family="Times,serif" font-size="14.00">RelatorioRoutingModule</text>
</g>
<!-- RelatorioRoutingModule&#45;&gt;RelatorioModule -->
<g id="edge5" class="edge">
<title>RelatorioRoutingModule&#45;&gt;RelatorioModule</title>
<path fill="none" stroke="black" d="M219,-122.02C219,-139.37 219,-163 219,-163 219,-163 461.22,-163 461.22,-163"/>
<polygon fill="black" stroke="black" points="461.22,-166.5 471.22,-163 461.22,-159.5 461.22,-166.5"/>
</g>
<!-- SharedModule -->
<g id="node7" class="node">
<title>SharedModule</title>
<polygon fill="#8dd3c7" stroke="black" points="122.42,-122 119.42,-126 98.42,-126 95.42,-122 23.58,-122 23.58,-86 122.42,-86 122.42,-122"/>
<text text-anchor="middle" x="73" y="-99.8" font-family="Times,serif" font-size="14.00">SharedModule</text>
</g>
<!-- SharedModule&#45;&gt;RelatorioModule -->
<g id="edge6" class="edge">
<title>SharedModule&#45;&gt;RelatorioModule</title>
<path fill="none" stroke="black" d="M73,-122.28C73,-143.32 73,-175 73,-175 73,-175 461.33,-175 461.33,-175"/>
<polygon fill="black" stroke="black" points="461.33,-178.5 471.33,-175 461.33,-171.5 461.33,-178.5"/>
</g>
</g>
</svg>
